<?xml version="1.0" encoding="utf-8"?>
<!-- Generator: Adobe Illustrator 25.1.0, SVG Export Plug-In . SVG Version: 6.00 Build 0)  -->
<svg version="1.1" id="Layer_1" xmlns="http://www.w3.org/2000/svg" xmlns:xlink="http://www.w3.org/1999/xlink" x="0px" y="0px"
	 viewBox="0 0 684 720" style="enable-background:new 0 0 684 720;" xml:space="preserve">
<style type="text/css">
	.st0{fill:#E3F6F8;}
	.st1{opacity:0.18;clip-path:url(#SVGID_5_);fill:#4EC2D6;enable-background:new    ;}
	.st2{opacity:0.21;clip-path:url(#SVGID_8_);fill:#4EC2D6;enable-background:new    ;}
	.st3{opacity:0.21;clip-path:url(#SVGID_10_);fill:#4EC2D6;enable-background:new    ;}
	.st4{opacity:0.21;clip-path:url(#SVGID_12_);fill:#4EC2D6;enable-background:new    ;}
	.st5{opacity:0.21;clip-path:url(#SVGID_16_);}
	.st6{fill:#4EC2D6;}
	.st7{opacity:6.000000e-02;clip-path:url(#SVGID_22_);}
	.st8{opacity:6.000000e-02;clip-path:url(#SVGID_26_);}
	.st9{opacity:0.27;clip-path:url(#SVGID_28_);}
	.st10{clip-path:url(#SVGID_30_);}
	.st11{clip-path:url(#SVGID_33_);}
	.st12{clip-path:url(#SVGID_34_);fill:url(#SVGID_35_);}
	.st13{fill:#FFFFFF;}
	.st14{clip-path:url(#SVGID_38_);}
	.st15{clip-path:url(#SVGID_39_);fill:url(#SVGID_40_);}
	.st16{opacity:5.000000e-02;fill:url(#SVGID_41_);enable-background:new    ;}
	.st17{clip-path:url(#SVGID_43_);}
	.st18{clip-path:url(#SVGID_46_);}
	.st19{clip-path:url(#SVGID_47_);fill:url(#SVGID_48_);}
	.st20{opacity:0.37;fill:url(#SVGID_49_);enable-background:new    ;}
	.st21{clip-path:url(#SVGID_52_);}
	.st22{clip-path:url(#SVGID_53_);fill:url(#SVGID_54_);}
	.st23{opacity:0.42;fill:url(#SVGID_55_);enable-background:new    ;}
	.st24{clip-path:url(#SVGID_57_);}
	.st25{clip-path:url(#SVGID_59_);}
	.st26{fill:#597AFF;}
	.st27{clip-path:url(#SVGID_61_);}
	.st28{clip-path:url(#SVGID_63_);}
	.st29{fill:#0A0063;}
	.st30{clip-path:url(#SVGID_65_);}
	.st31{opacity:0.5;fill:#D7D3D2;enable-background:new    ;}
	.st32{fill:#F4F4F4;}
	.st33{fill:#3A3C6C;}
	.st34{fill:#B8E6F1;}
	.st35{opacity:0.37;fill:#B8E6F1;enable-background:new    ;}
	.st36{opacity:0.38;fill:url(#SVGID_66_);enable-background:new    ;}
	.st37{opacity:0.41;}
	.st38{fill:#2C9EB1;}
	.st39{opacity:0.47;}
	.st40{clip-path:url(#SVGID_68_);}
	.st41{opacity:0.4;}
	.st42{fill:#B0E6F2;}
	.st43{opacity:0.2;fill:#FFFFFF;enable-background:new    ;}
	.st44{fill:#F8A5A5;}
	.st45{opacity:0.5;fill:#F8A5A5;enable-background:new    ;}
	.st46{fill:#0C706E;}
	.st47{opacity:0.5;}
	.st48{fill:#FED45E;}
	.st49{fill:#C4594F;}
	.st50{fill:#B54D48;}
	.st51{fill:#14318A;}
	.st52{fill:#041B51;}
	.st53{opacity:0.3;}
	.st54{fill:#472C1E;}
	.st55{fill:#0A1A50;}
	.st56{opacity:0.5;fill:#0C706E;enable-background:new    ;}
	.st57{opacity:0.16;}
	.st58{fill:#EEF7FF;}
	.st59{clip-path:url(#SVGID_70_);}
	.st60{fill:#E3E9FF;}
	.st61{fill:#463635;}
	.st62{fill:#3CC5C0;}
	.st63{fill:#E84C65;}
	.st64{fill:#7BB791;}
	.st65{opacity:0.4;fill:#7BB791;enable-background:new    ;}
	.st66{opacity:0.3;fill:#463635;enable-background:new    ;}
	.st67{opacity:0.3;fill:#0C706E;enable-background:new    ;}
	.st68{fill:#AEE6F3;}
	.st69{fill:#E72540;}
	.st70{opacity:0.3;fill:#AE312D;enable-background:new    ;}
	.st71{fill:#DD263D;}
	.st72{fill:#B7E7F0;}
	.st73{clip-path:url(#SVGID_72_);}
	.st74{fill:#004EB0;}
	.st75{fill:#004C9E;}
	.st76{clip-path:url(#SVGID_74_);}
	.st77{fill:#FFB902;}
	.st78{opacity:0.44;}
	.st79{fill:#EFA500;}
	.st80{clip-path:url(#SVGID_76_);}
	.st81{clip-path:url(#SVGID_78_);}
	.st82{fill:#F43838;}
	.st83{fill:#FFA045;}
	.st84{fill:#8DC63D;}
	.st85{opacity:0.12;fill:url(#SVGID_79_);enable-background:new    ;}
	.st86{fill:#2D99A9;}
	.st87{opacity:0.61;}
	.st88{fill:url(#SVGID_80_);}
	.st89{opacity:0.38;fill:url(#SVGID_81_);enable-background:new    ;}
	.st90{fill:#6AEAF4;}
	.st91{opacity:0.5;fill:#47C2DB;enable-background:new    ;}
	.st92{opacity:0.6;fill:#1A1A1A;enable-background:new    ;}
	.st93{fill:#1A1A1A;}
	.st94{opacity:0.6;}
	.st95{fill:#EA4E67;}
	.st96{fill:#D83D5B;}
	.st97{fill:#FE9E88;}
	.st98{opacity:0.5;fill:#FE9E88;enable-background:new    ;}
	.st99{fill:#232323;}
	.st100{opacity:0.5;fill:#232323;enable-background:new    ;}
	.st101{fill:#FFFFFE;}
	.st102{opacity:0.5;fill:#E6ECED;enable-background:new    ;}
	.st103{fill:#FFAE42;}
	.st104{fill:#47C2DB;}
	.st105{fill:#274782;}
	.st106{fill:none;}
	.st107{opacity:0.3;fill:#47C2DB;enable-background:new    ;}
	.st108{fill:#F4627D;}
	.st109{opacity:0.49;fill:#D83D5B;enable-background:new    ;}
	.st110{clip-path:url(#SVGID_83_);}
	.st111{fill:#E8F8F9;}
</style>
<rect x="1.3" class="st0" width="682.7" height="720"/>
<g>
	<g>
		<g>
			<defs>
				<rect id="SVGID_3_" x="1.3" width="682.7" height="720"/>
			</defs>
			<clipPath id="SVGID_5_">
				<use xlink:href="#SVGID_3_"  style="overflow:visible;"/>
			</clipPath>
			<path class="st1" d="M589.7,299.4c-3.9,0-7.9-0.1-11.8-0.1c0-0.1,0-0.1,0-0.2c0-3.4,0-6.9,0-10.3c0.4,0,0.8,0,1.2,0
				c3.5,0,7,0,10.5,0c1.7,0,1.7-2.6,0-2.6c-14.9,0-29.8,0-44.7,0c-3.5,0-7,0-10.5,0c-1.7,0-1.7,2.6,0,2.6c5.8,0,11.6,0,17.4,0
				c0,3.4,0,6.9,0,10.3c0,0.2,0.1,0.4,0.1,0.6c-0.3,0-0.7,0-1,0c-3,0.1-5.9,0.2-8.9,0.3c-1.6,0.1-1.7,2.7,0,2.6c7-0.4,14-0.6,21-0.6
				c0,0,0,0.1,0,0.1c0,3.6,0,7.3,0,10.9c-8,0-16,0.2-24,0.4c-3,0.1-5.9,0.2-8.9,0.3c-1.6,0.1-1.7,2.7,0,2.6
				c12.9-0.7,25.8-0.7,38.7-0.7c3,0,5.9,0,8.9,0c1.7,0,1.7-2.5,0-2.6c-4,0-8.1-0.1-12.1-0.1c0-3.6,0-7.3,0-10.9c0,0,0-0.1,0-0.1
				c5,0,10.1,0,15.1,0c3,0,5.9,0,8.9,0C591.3,302,591.3,299.4,589.7,299.4z M554.4,299.2c0-3.4,0-6.9,0-10.3c7,0,13.9,0,20.9,0
				c0,3.4,0,6.9,0,10.3c0,0.1,0,0.1,0,0.2c-7,0-14,0.1-21.1,0.3C554.4,299.5,554.4,299.4,554.4,299.2z"/>
		</g>
		<g>
			<defs>
				<rect id="SVGID_7_" x="1.3" width="682.7" height="720"/>
			</defs>
			<clipPath id="SVGID_8_">
				<use xlink:href="#SVGID_7_"  style="overflow:visible;"/>
			</clipPath>
			<path class="st2" d="M140.8,373.7c-3.9,0-7.9-0.1-11.8-0.1c0-0.1,0-0.1,0-0.2c0-3.4,0-6.9,0-10.3c0.4,0,0.8,0,1.2,0
				c3.5,0,7,0,10.6,0c1.6,0,1.6-2.6,0-2.6c-14.9,0-29.8,0-44.7,0c-3.5,0-7,0-10.6,0c-1.7,0-1.7,2.6,0,2.6c5.8,0,11.6,0,17.4,0
				c0,3.4,0,6.9,0,10.3c0,0.2,0.1,0.4,0.1,0.6c-0.3,0-0.7,0-1,0c-3,0.1-5.9,0.2-8.9,0.3c-1.6,0.1-1.7,2.7,0,2.6c7-0.4,14-0.6,21-0.6
				c0,0,0,0.1,0,0.1c0,3.6,0,7.3,0,10.9c-8,0-16,0.2-24,0.4c-3,0.1-5.9,0.2-8.9,0.3c-1.6,0.1-1.7,2.7,0,2.6
				c12.9-0.7,25.8-0.7,38.7-0.7c3,0,5.9,0,8.9,0c1.6,0,1.6-2.5,0-2.6c-4,0-8.1-0.1-12.1-0.1c0-3.6,0-7.3,0-10.9c0,0,0-0.1,0-0.1
				c5,0,10.1,0,15.1,0c3,0,5.9,0,8.9,0C142.4,376.3,142.4,373.8,140.8,373.7z M105.5,373.5c0-3.4,0-6.9,0-10.3c7,0,13.9,0,20.9,0
				c0,3.4,0,6.9,0,10.3c0,0.1,0,0.1,0.1,0.2c-7,0-14.1,0.1-21.1,0.3C105.5,373.8,105.5,373.7,105.5,373.5z"/>
		</g>
		<g>
			<defs>
				<rect id="SVGID_9_" x="1.3" width="682.7" height="720"/>
			</defs>
			<clipPath id="SVGID_10_">
				<use xlink:href="#SVGID_9_"  style="overflow:visible;"/>
			</clipPath>
			<path class="st3" d="M56.4,469.5c-4.6-0.1-9.2-0.1-13.8-0.1c0-0.1,0-0.1,0-0.2v-12.1h13.8c1.9,0,1.9-3,0-3H5.3v3h6.8v12.1
				c0,0.3,0.1,0.5,0.2,0.7c-0.4,0-0.8,0-1.1,0c-1.9,0-3.9,0.1-5.8,0.2v3c6.7-0.3,13.4-0.5,20.1-0.6c0,0,0,0.1,0,0.1v12.8
				c-6.7,0-13.4,0.2-20,0.3v2.9c8.9-0.2,17.9-0.2,26.8-0.2c3.5,0,6.9,0,10.4,0c1.9,0,1.9-3,0-3c-4.7-0.1-9.4-0.1-14.1-0.1v-12.8
				c0-0.1,0-0.1,0-0.1c5.9,0,11.8,0,17.7-0.1c3.5,0,6.9,0,10.4,0C58.4,472.5,58.4,469.5,56.4,469.5z M15,469.8
				c0.1-0.2,0.1-0.4,0.1-0.6v-12.1h24.5v12.1c0,0.1,0,0.2,0,0.3C31.5,469.5,23.2,469.6,15,469.8z"/>
		</g>
		<g>
			<defs>
				<rect id="SVGID_11_" x="1.3" width="682.7" height="720"/>
			</defs>
			<clipPath id="SVGID_12_">
				<use xlink:href="#SVGID_11_"  style="overflow:visible;"/>
			</clipPath>
			<path class="st4" d="M688,490.7c-2.8,0-5.6,0-8.5,0v-12.8c0-0.1,0-0.1,0-0.1c2.8,0,5.7,0,8.5,0v-3c-7.3,0-14.5,0.1-21.8,0.3
				c0.1-0.2,0.1-0.4,0.1-0.6v-12.1H688v-3h-45.1c-1.9,0-1.9,3,0,3h20.4v12.1c0,0.3,0.1,0.5,0.2,0.7c-0.4,0-0.8,0-1.2,0
				c-3.5,0.1-6.9,0.2-10.4,0.4c-1.9,0.1-1.9,3.1,0,3c8.2-0.5,16.4-0.7,24.6-0.8c0,0,0,0.1,0,0.1v12.8c-9.4,0-18.7,0.2-28.1,0.5
				c-3.5,0.1-6.9,0.2-10.4,0.4c-1.9,0.1-1.9,3.1,0,3c15-0.9,30.2-0.8,45.2-0.8c1.6,0,3.1,0,4.7,0L688,490.7L688,490.7z"/>
		</g>
		<g>
			<defs>
				<rect id="SVGID_13_" x="1.3" width="682.7" height="720"/>
			</defs>
			<clipPath id="SVGID_14_">
				<use xlink:href="#SVGID_13_"  style="overflow:visible;"/>
			</clipPath>
		</g>
		<g>
			<defs>
				<rect id="SVGID_15_" x="1.3" width="682.7" height="720"/>
			</defs>
			<clipPath id="SVGID_16_">
				<use xlink:href="#SVGID_15_"  style="overflow:visible;"/>
			</clipPath>
			<g class="st5">
				<rect x="533.2" y="391" class="st6" width="24.5" height="10.3"/>
				<rect x="502.8" y="369.9" class="st6" width="38.1" height="16.3"/>
			</g>
		</g>
		<g>
			<defs>
				<rect id="SVGID_17_" x="1.3" width="682.7" height="720"/>
			</defs>
			<clipPath id="SVGID_18_">
				<use xlink:href="#SVGID_17_"  style="overflow:visible;"/>
			</clipPath>
		</g>
		<g>
			<defs>
				<rect id="SVGID_20_" x="1.3" width="682.7" height="720"/>
			</defs>
			<clipPath id="SVGID_22_">
				<use xlink:href="#SVGID_20_"  style="overflow:visible;"/>
			</clipPath>
			<g class="st7">
				<rect x="24.7" y="415.1" class="st6" width="24.5" height="10.3"/>
				<rect x="-5.8" y="393.9" class="st6" width="38.1" height="16.3"/>
			</g>
		</g>
		<g>
			<defs>
				<rect id="SVGID_24_" x="1.3" width="682.7" height="720"/>
			</defs>
			<clipPath id="SVGID_26_">
				<use xlink:href="#SVGID_24_"  style="overflow:visible;"/>
			</clipPath>
			<g class="st8">
				<rect x="528.7" y="504.4" class="st6" width="24.5" height="10.3"/>
				<rect x="498.3" y="483.2" class="st6" width="38.1" height="16.3"/>
			</g>
		</g>
		<g>
			<defs>
				<rect id="SVGID_27_" x="1.3" width="682.7" height="720"/>
			</defs>
			<clipPath id="SVGID_28_">
				<use xlink:href="#SVGID_27_"  style="overflow:visible;"/>
			</clipPath>
			<g class="st9">
				<rect x="55.8" y="234.9" class="st6" width="27.7" height="11.7"/>
				<rect x="21.4" y="210.9" class="st6" width="43.1" height="18.5"/>
			</g>
		</g>
		<g>
			<defs>
				<rect id="SVGID_29_" x="1.3" width="682.7" height="720"/>
			</defs>
			<clipPath id="SVGID_30_">
				<use xlink:href="#SVGID_29_"  style="overflow:visible;"/>
			</clipPath>
			<g class="st10">
				<g>
					<g>
						<g>
							<g>
								<defs>
									<polygon id="SVGID_31_" points="1,1 2,1 1,2 									"/>
								</defs>
								<defs>
									<polygon id="SVGID_32_" points="-1,-1 -2,-1 -1,-2 									"/>
								</defs>
								<clipPath id="SVGID_33_">
									<use xlink:href="#SVGID_31_"  style="overflow:visible;"/>
								</clipPath>
								<clipPath id="SVGID_34_" class="st11">
									<use xlink:href="#SVGID_32_"  style="overflow:visible;"/>
								</clipPath>
								
									<linearGradient id="SVGID_35_" gradientUnits="userSpaceOnUse" x1="593.395" y1="412.9663" x2="593.395" y2="353.8569" gradientTransform="matrix(1 0 0 -1 0 722)">
									<stop  offset="6.770830e-03" style="stop-color:#FFFFFF"/>
									<stop  offset="0.1121" style="stop-color:#DFDFDF"/>
									<stop  offset="0.4425" style="stop-color:#818181"/>
									<stop  offset="0.7105" style="stop-color:#3B3B3B"/>
									<stop  offset="0.9024" style="stop-color:#101010"/>
									<stop  offset="1" style="stop-color:#000000"/>
								</linearGradient>
								<path class="st12" d="M579.8,296.9h26.4l27.9,51.9h-81.3C552.8,348.8,579.8,296.1,579.8,296.9z"/>
							</g>
						</g>
						<path class="st13" d="M579.8,296.9h26.4l27.9,51.9h-81.3C552.8,348.8,579.8,296.1,579.8,296.9z"/>
						<g>
							<g>
								<path class="st6" d="M587.3,275.3h12.1l9,18.7c0.6,1.3-0.3,2.9-1.8,2.9h-26.4c-1.5,0-2.5-1.6-1.8-2.9L587.3,275.3z"/>
							</g>
							<rect x="592.5" y="222.5" class="st6" width="1.7" height="46.8"/>
							<rect x="592.5" y="187.5" class="st6" width="1.7" height="46.8"/>
						</g>
						<path class="st6" d="M599.5,276.2h-12.1V267c0-2.6,2.1-4.6,4.6-4.6h2.8c2.6,0,4.6,2.1,4.6,4.6L599.5,276.2L599.5,276.2z"/>
					</g>
					<g>
						<g>
							<defs>
								<polygon id="SVGID_36_" points="1,1 2,1 1,2 								"/>
							</defs>
							<defs>
								<polygon id="SVGID_37_" points="-1,-1 -2,-1 -1,-2 								"/>
							</defs>
							<clipPath id="SVGID_38_">
								<use xlink:href="#SVGID_36_"  style="overflow:visible;"/>
							</clipPath>
							<clipPath id="SVGID_39_" class="st14">
								<use xlink:href="#SVGID_37_"  style="overflow:visible;"/>
							</clipPath>
							
								<linearGradient id="SVGID_40_" gradientUnits="userSpaceOnUse" x1="593.395" y1="412.9663" x2="593.395" y2="353.8569" gradientTransform="matrix(1 0 0 -1 0 722)">
								<stop  offset="0" style="stop-color:#FFFFFF"/>
								<stop  offset="0.1061" style="stop-color:#DFDFDF"/>
								<stop  offset="0.4387" style="stop-color:#818181"/>
								<stop  offset="0.7085" style="stop-color:#3B3B3B"/>
								<stop  offset="0.9018" style="stop-color:#101010"/>
								<stop  offset="1" style="stop-color:#000000"/>
							</linearGradient>
							<path class="st15" d="M579.8,296.9h26.4l27.9,51.9h-81.3C552.8,348.8,579.8,296.1,579.8,296.9z"/>
						</g>
					</g>
					
						<linearGradient id="SVGID_41_" gradientUnits="userSpaceOnUse" x1="593.395" y1="412.9663" x2="593.395" y2="353.8569" gradientTransform="matrix(1 0 0 -1 0 722)">
						<stop  offset="0" style="stop-color:#FFFFFF;stop-opacity:0.24"/>
						<stop  offset="1" style="stop-color:#FFFFFF;stop-opacity:0"/>
					</linearGradient>
					<path class="st16" d="M579.8,296.9h26.4l27.9,51.9h-81.3C552.8,348.8,579.8,296.1,579.8,296.9z"/>
				</g>
			</g>
		</g>
		<g>
			<defs>
				<rect id="SVGID_42_" x="1.3" width="682.7" height="720"/>
			</defs>
			<clipPath id="SVGID_43_">
				<use xlink:href="#SVGID_42_"  style="overflow:visible;"/>
			</clipPath>
			<g class="st17">
				<g>
					<g>
						<g>
							<g>
								<defs>
									<polygon id="SVGID_44_" points="1,1 2,1 1,2 									"/>
								</defs>
								<defs>
									<polygon id="SVGID_45_" points="-1,-1 -2,-1 -1,-2 									"/>
								</defs>
								<clipPath id="SVGID_46_">
									<use xlink:href="#SVGID_44_"  style="overflow:visible;"/>
								</clipPath>
								<clipPath id="SVGID_47_" class="st18">
									<use xlink:href="#SVGID_45_"  style="overflow:visible;"/>
								</clipPath>
								
									<linearGradient id="SVGID_48_" gradientUnits="userSpaceOnUse" x1="108.98" y1="436.7636" x2="108.98" y2="354.3717" gradientTransform="matrix(1 0 0 -1 0 722)">
									<stop  offset="6.770830e-03" style="stop-color:#FFFFFF"/>
									<stop  offset="0.1121" style="stop-color:#DFDFDF"/>
									<stop  offset="0.4425" style="stop-color:#818181"/>
									<stop  offset="0.7105" style="stop-color:#3B3B3B"/>
									<stop  offset="0.9024" style="stop-color:#101010"/>
									<stop  offset="1" style="stop-color:#000000"/>
								</linearGradient>
								<path class="st19" d="M90,268.4h36.8l38.8,72.3H52.3C52.3,340.7,90,267.2,90,268.4z"/>
							</g>
						</g>
						
							<linearGradient id="SVGID_49_" gradientUnits="userSpaceOnUse" x1="108.98" y1="453.6345" x2="108.98" y2="381.29" gradientTransform="matrix(1 0 0 -1 0 722)">
							<stop  offset="6.770832e-03" style="stop-color:#FFFFFF"/>
							<stop  offset="1" style="stop-color:#FFFFFF"/>
						</linearGradient>
						<path class="st20" d="M90,268.4h36.8l38.8,72.3H52.3C52.3,340.7,90,267.2,90,268.4z"/>
						<g>
							<g>
								<path class="st6" d="M100.5,238.2h16.9l12.5,26.1c0.9,1.9-0.5,4-2.5,4H90.6c-2.1,0-3.4-2.2-2.5-4L100.5,238.2z"/>
							</g>
							<rect x="107.8" y="164.6" class="st6" width="2.4" height="65.2"/>
							<rect x="107.8" y="128.6" class="st6" width="2.4" height="65.2"/>
						</g>
						<path class="st6" d="M117.4,239.4h-16.9v-12.8c0-3.6,2.9-6.5,6.5-6.5h3.9c3.6,0,6.5,2.9,6.5,6.5
							C117.4,226.6,117.4,239.4,117.4,239.4z"/>
					</g>
					<g>
						<g>
							<defs>
								<polygon id="SVGID_50_" points="1,1 2,1 1,2 								"/>
							</defs>
							<defs>
								<polygon id="SVGID_51_" points="-1,-1 -2,-1 -1,-2 								"/>
							</defs>
							<clipPath id="SVGID_52_">
								<use xlink:href="#SVGID_50_"  style="overflow:visible;"/>
							</clipPath>
							<clipPath id="SVGID_53_" class="st21">
								<use xlink:href="#SVGID_51_"  style="overflow:visible;"/>
							</clipPath>
							
								<linearGradient id="SVGID_54_" gradientUnits="userSpaceOnUse" x1="108.98" y1="436.7636" x2="108.98" y2="354.3717" gradientTransform="matrix(1 0 0 -1 0 722)">
								<stop  offset="0" style="stop-color:#FFFFFF"/>
								<stop  offset="0.1061" style="stop-color:#DFDFDF"/>
								<stop  offset="0.4387" style="stop-color:#818181"/>
								<stop  offset="0.7085" style="stop-color:#3B3B3B"/>
								<stop  offset="0.9018" style="stop-color:#101010"/>
								<stop  offset="1" style="stop-color:#000000"/>
							</linearGradient>
							<path class="st22" d="M90,268.4h36.8l38.8,72.3H52.3C52.3,340.7,90,267.2,90,268.4z"/>
						</g>
					</g>
					
						<linearGradient id="SVGID_55_" gradientUnits="userSpaceOnUse" x1="108.98" y1="436.7636" x2="108.98" y2="354.3717" gradientTransform="matrix(1 0 0 -1 0 722)">
						<stop  offset="0" style="stop-color:#FFFFFF"/>
						<stop  offset="1" style="stop-color:#FFFFFF;stop-opacity:0.19"/>
					</linearGradient>
					<path class="st23" d="M90,268.4h36.8l38.8,72.3H52.3C52.3,340.7,90,267.2,90,268.4z"/>
				</g>
			</g>
		</g>
		<g>
			<defs>
				<rect id="SVGID_56_" x="1.3" width="682.7" height="720"/>
			</defs>
			<clipPath id="SVGID_57_">
				<use xlink:href="#SVGID_56_"  style="overflow:visible;"/>
			</clipPath>
			<g class="st24">
				<path class="st6" d="M529.3,670.7c6-5.2,10.8-11.8,13.3-19.7c1.7-5.2,2.5-10.9,6.2-15c3.8-4.2,10-5.9,13.1-10.7
					c3.7-5.8,1.2-13.5,3-20c2.4-8.6,11.4-13.4,16.7-20.6c7.5-10.1,6.6-25.8-2.5-34.5c-8-7.6-23.8-9.1-32-0.8
					c-3.6,3.6-4.7,8.2-9.7,10.5c-4.9,2.3-10.6,2-15.5,4.1c-5.5,2.3-9.6,7.2-12.1,12.7c-2.5,5.3-2.3,13.8-6.3,17.8
					c-3.9,3.9-10.8,3.5-15.5,5.7c-4.1,1.9-7.4,5.7-8.8,10c-2.7,8.5,3.2,16.9,0.3,25.1c-2.1,6.2-8.8,9.4-12.9,14.5
					c-5,6.2-4.9,13.6-3.4,20.8L529.3,670.7L529.3,670.7z"/>
				<g>
					<path class="st13" d="M485.8,670.7C494.7,654,504,637.5,515,622c14-19.7,30.6-37.4,49.2-52.8c1-0.8-0.4-2.3-1.4-1.4
						c-18.4,15.2-34.9,32.8-48.8,52.2c-11.5,16-21.2,33.2-30.5,50.7L485.8,670.7L485.8,670.7z"/>
				</g>
			</g>
		</g>
		<g>
			<defs>
				<rect id="SVGID_58_" x="1.3" width="682.7" height="720"/>
			</defs>
			<clipPath id="SVGID_59_">
				<use xlink:href="#SVGID_58_"  style="overflow:visible;"/>
			</clipPath>
			<g class="st25">
				<path class="st26" d="M640.1,609.7c-5-9.8-19.3-16.6-29.9-11.6c-4.6,2.2-7.1,6.1-12.7,6.6c-5.4,0.5-10.6-1.7-16-1.4
					c-6,0.3-11.5,3.6-15.7,7.8c-4.1,4.1-6.9,12.2-11.9,14.6c-5,2.3-11.3-0.3-16.5,0.1c-4.5,0.4-8.9,2.8-11.6,6.5
					c-5.4,7.1-2.7,17-8.2,23.7c-4.1,5.1-11.4,5.9-17,9.3c-2.4,1.4-4.1,3.2-5.6,5.2h106.9c2.5-4.3,3.4-9.8,6.3-13.9
					c5.2-7.3,15.2-8.8,22.7-13.7C641.3,636.1,645.8,621,640.1,609.7z"/>
				<g>
					<path class="st13" d="M618.8,620.7c-22.5,8.1-43.9,19.1-63.6,32.7c-7.9,5.4-15.4,11.3-22.8,17.3h3.2c6.4-5.3,13-10.3,19.9-15.1
						c19.8-13.8,41.4-24.9,64.1-33.1C620.9,622.1,620,620.2,618.8,620.7z"/>
				</g>
			</g>
		</g>
		<g>
			<defs>
				<rect id="SVGID_60_" x="1.3" width="682.7" height="720"/>
			</defs>
			<clipPath id="SVGID_61_">
				<use xlink:href="#SVGID_60_"  style="overflow:visible;"/>
			</clipPath>
			<g class="st27">
				<path class="st26" d="M77.4,683.2c-2.2-6.1-7.5-11.3-7.5-17.9c-0.1-8.7,8.2-14.8,8.4-23.7c0.1-4.6-1.8-9.2-5.1-12.3
					c-3.8-3.6-10.4-5.5-12.9-10.4c-2.5-5,0.4-13-0.2-18.8c-0.7-6-2.9-11.9-7.4-15.9c-4-3.6-9.5-5.2-13.4-8.9
					c-4-3.8-3.5-8.5-5.8-13.1c-5.1-10.5-20.5-14.2-30.6-9.6c-0.6,0.2-1.1,0.5-1.6,0.8v85.8c1,1.3,2,2.7,2.6,4.3
					c2.1,5,1.1,10.7,1,16.2c-0.1,8.3,2.2,16.1,6.3,22.9l62.6,21.3C77.7,697.7,80.2,690.7,77.4,683.2z"/>
				<g>
					<path class="st13" d="M52.5,696.8c-3-18.7-6.5-37.3-11.9-55.5C33.6,618.1,23.6,596,11,575.4c-0.7-1.1,1.1-2,1.8-0.9
						c12.5,20.4,22.4,42.3,29.4,65.2c5.7,18.9,9.3,38.3,12.5,57.8L52.5,696.8z"/>
				</g>
			</g>
		</g>
		<g>
			<defs>
				<rect id="SVGID_62_" x="1.3" width="682.7" height="720"/>
			</defs>
			<clipPath id="SVGID_63_">
				<use xlink:href="#SVGID_62_"  style="overflow:visible;"/>
			</clipPath>
			<g class="st28">
				<path class="st29" d="M5.3,679.3L44,692.5c-0.7-2.4-1.8-4.7-3.6-6.8c-4.2-5-10.9-8.2-13.1-14.3c-3-8.2,2.7-16.7-0.1-25.1
					c-1.4-4.3-4.8-8-8.9-9.9c-3.8-1.7-9-1.8-12.9-3.7L5.3,679.3L5.3,679.3z"/>
			</g>
		</g>
		<g>
			<defs>
				<rect id="SVGID_64_" x="1.3" width="682.7" height="720"/>
			</defs>
			<clipPath id="SVGID_65_">
				<use xlink:href="#SVGID_64_"  style="overflow:visible;"/>
			</clipPath>
			<g class="st30">
				<path class="st29" d="M414.6,549.4H94.4c-5.8,0-10.5,5.4-10.5,12l0,0c0,6.7,4.7,12,10.5,12h320.2c5.8,0,10.5-5.4,10.5-12l0,0
					C425.1,554.8,420.4,549.4,414.6,549.4z"/>
				<g>
					<g>
						<polygon class="st31" points="287.2,549.4 280.8,510.2 225.8,510.2 219.4,549.4 						"/>
						<path class="st13" d="M287.2,549.4l-6.5-39.1h-16.6c-2.7,11.2-6.4,26.2-9.5,39.1H287.2z"/>
						<polygon class="st31" points="221.8,534.8 221.8,534.8 283.2,524.9 280.8,510.2 226,510.2 						"/>
						<g>
							<path class="st32" d="M362.2,517.7H144.4c-5.1,0-9.1-4.2-8.9-9.3l6.4-139.8c0.2-4.7,4.1-8.5,8.9-8.5h204.9
								c4.7,0,8.6,3.7,8.9,8.5l6.4,139.8C371.3,513.5,367.2,517.7,362.2,517.7z"/>
							<path class="st31" d="M237.6,391.5c21.8,21.7,43.5,43.5,65.3,65.2c19.1,19.1,38.1,38.1,57.1,57.2c3.6-1.1,6.2-4.5,6-8.5
								l-6.2-133.8c-0.2-4.5-3.9-8.1-8.5-8.1H209.6C218.9,372.8,228.2,382.1,237.6,391.5z"/>
							<path class="st31" d="M314.8,514c-20.2-20.2-40.5-40.5-60.7-60.7c-20.4-20.4-40.7-40.7-61.1-61.1l-28.6-28.6h-9.1
								c-4.5,0-8.3,3.6-8.5,8.1l-6.2,133.8c-0.2,4.8,3.6,8.9,8.5,8.9h166.1L314.8,514z"/>
							<path class="st33" d="M257.9,508.2c0,2.6-2.1,4.6-4.6,4.6s-4.6-2.1-4.6-4.6s2.1-4.6,4.6-4.6
								C255.9,503.5,257.9,505.6,257.9,508.2z"/>
							<path class="st34" d="M357.3,493.7h-208c-2.3,0-4.2-2-4.1-4.3l6.2-118c0.1-2.2,1.9-3.9,4.1-3.9h195.5c2.2,0,4,1.7,4.1,3.9
								l6.2,118C361.5,491.7,359.6,493.7,357.3,493.7z"/>
							<path class="st35" d="M348.3,488.2H158.3c-2.1,0-3.8-1.8-3.7-3.9l5.7-107.8c0.1-2,1.7-3.5,3.7-3.5h178.7c2,0,3.6,1.5,3.7,3.5
								l5.7,107.8C352.2,486.5,350.5,488.2,348.3,488.2z"/>
						</g>
					</g>
				</g>
				<g>
					
						<linearGradient id="SVGID_66_" gradientUnits="userSpaceOnUse" x1="338.13" y1="322.4466" x2="338.13" y2="200.5792" gradientTransform="matrix(1 0 0 -1 0 722)">
						<stop  offset="2.350000e-02" style="stop-color:#4EC2D6"/>
						<stop  offset="0.2588" style="stop-color:#7FD3E1"/>
						<stop  offset="0.6131" style="stop-color:#C4EBF1"/>
						<stop  offset="0.8696" style="stop-color:#EFF9FB"/>
						<stop  offset="1" style="stop-color:#FFFFFF"/>
					</linearGradient>
					<rect x="220" y="263.5" class="st36" width="236.3" height="221.5"/>
					<g>
						<rect x="232.6" y="270.9" class="st6" width="211.3" height="202.1"/>
						<rect x="297.4" y="270.9" class="st13" width="146.5" height="14.6"/>
						<g>
							<g class="st37">
								<path class="st38" d="M418.5,315H393v-16.8h25.5V315z M393.9,314.1h23.7V299h-23.7V314.1z"/>
							</g>
							<g class="st37">
								<path class="st38" d="M425.1,322.8h-15.2v-7.6h15.2V322.8z M410.8,322h13.5V316h-13.5V322z"/>
							</g>
							<g class="st37">
								<g class="st39">
									<path class="st38" d="M347.1,338.7h-25.5v-16.8h25.5L347.1,338.7L347.1,338.7z M322.5,337.9h23.7v-15.1h-23.7V337.9z"/>
								</g>
								<g class="st39">
									<path class="st38" d="M330.2,321.7H315v-7.6h15.2V321.7z M315.9,320.9h13.5V315h-13.5V320.9z"/>
								</g>
							</g>
							<g>
								<g>
									<defs>
										<path id="SVGID_67_" d="M443.9,270.9h-124c-6.1,0-11,4.8-11,10.7V372h135V270.9z"/>
									</defs>
									<clipPath id="SVGID_68_">
										<use xlink:href="#SVGID_67_"  style="overflow:visible;"/>
									</clipPath>
									<g class="st40">
										<g>
											<g>
												<path class="st13" d="M412.8,399.5h-70.6v-56.9c0-12.9,10.7-23.3,24-23.3h22.6c13.2,0,24,10.4,24,23.3L412.8,399.5
													L412.8,399.5z"/>
												<g class="st41">
													<path class="st42" d="M401,322.5c3.4,15.9,5.8,42.1-14.8,46.6c-25.9,5.8-42-16-40.3-39c-2.3,3.6-3.7,7.9-3.7,12.4v56.9
														h70.6v-56.9C412.8,334,408.1,326.5,401,322.5z"/>
												</g>
												<path class="st43" d="M377.5,346.3L377.5,346.3c10,0,18-7.8,18-17.5v-8.6c-2.1-0.6-4.4-0.9-6.7-0.9h-22.6
													c-2.3,0-4.6,0.3-6.7,0.9v8.6C359.5,338.5,367.6,346.3,377.5,346.3z"/>
												<rect x="328.2" y="388.3" class="st42" width="98.6" height="16.7"/>
												<rect x="342.2" y="388.3" class="st43" width="70.6" height="8.7"/>
											</g>
											<g>
												<g>
													<path class="st44" d="M342.4,441.2c0,0,2.4,6.1-2.2,11c-4.7,4.9-3.2,6.3,2.9,5.7c6.1-0.6,18-3.4,18.4-8.3
														c0.4-4.9-4.9-16.3-4.9-16.3L342.4,441.2z"/>
													<path class="st45" d="M361.5,449.7c0.3-3.3-2-9.4-3.5-13.2l-4.2,8.6c0,0-1.1,1.4,0.5,4.5c0.9,1.8,2.3,3.5,3.5,4.5
														C359.9,452.8,361.4,451.4,361.5,449.7z"/>
													<path class="st46" d="M342.2,449.2c0,0,11.4,0.6,18.2-5.9c3,5.6,3,7.7-1.6,11c-4.7,3.3-20.3,7.1-22,3.8
														C335,454.9,340.5,452.3,342.2,449.2z"/>
													<g class="st47">
														<path class="st46" d="M358.8,454.3c4.7-3.3,4.7-5.4,1.6-11c-1.9,1.8-4.1,3.1-6.4,4l0,0c0,0,2.9,6.9-9,9.9
															c-3.5,0.9-6.3,1-8.4,0.8c0,0,0,0.1,0.1,0.2C338.5,461.4,354.1,457.6,358.8,454.3z"/>
													</g>
												</g>
												<g>
													<path class="st44" d="M412.4,441.2c0,0-2.4,6.1,2.2,11s3.2,6.3-2.9,5.7c-6.1-0.6-18-3.4-18.4-8.3
														c-0.4-4.9,4.9-16.3,4.9-16.3L412.4,441.2z"/>
													<path class="st45" d="M393.4,449.7c-0.3-3.3,2-9.4,3.5-13.2l4.2,8.6c0,0,1.1,1.4-0.5,4.5c-0.9,1.8-2.3,3.5-3.5,4.5
														C395,452.8,393.5,451.4,393.4,449.7z"/>
													<path class="st46" d="M412.6,449.2c0,0-11.4,0.6-18.2-5.9c-3,5.6-3,7.7,1.6,11c4.7,3.3,20.3,7.1,22,3.8
														C419.8,454.9,414.4,452.3,412.6,449.2z"/>
													<g class="st47">
														<path class="st46" d="M396.1,454.3c-4.7-3.3-4.7-5.4-1.6-11c1.9,1.8,4.1,3.1,6.4,4l0,0c0,0-2.9,6.9,9,9.9
															c3.5,0.9,6.3,1,8.4,0.8c0,0,0,0.1-0.1,0.2C416.4,461.4,400.8,457.6,396.1,454.3z"/>
													</g>
												</g>
												<path class="st48" d="M370.7,321.9c0,0,6-3.5,13.6,0C388.4,329.9,367,326.8,370.7,321.9z"/>
												<g>
													<path class="st49" d="M390.2,309.6c0.2,2-1.1,3.3-2.8,3.5s-3.4-0.8-3.6-2.8c-0.2-2,1-4.1,2.8-4.3
														C388.3,305.8,389.9,307.6,390.2,309.6z"/>
													<path class="st49" d="M364.9,309.6c-0.2,2,1.1,3.3,2.8,3.5s3.4-0.8,3.6-2.8c0.2-2-1-4.1-2.8-4.3
														C366.8,305.8,365.1,307.6,364.9,309.6z"/>
												</g>
												<path class="st49" d="M382.7,314.8c0,0-2.2,4.8,2.4,8.9c-2.2,7.7-7.6,7-7.6,7s-5.4,0.7-7.6-7c4.6-4.1,2.4-8.9,2.4-8.9
													H382.7z"/>
												<path class="st50" d="M377.5,323.6c2.1,0,4-1.4,5.6-2.5c-1.8-3.3-0.4-6.4-0.4-6.4h-10.4c0,0,1.4,3-0.4,6.4
													C373.5,322.1,375.5,323.6,377.5,323.6z"/>
												<path class="st13" d="M384.3,321.9c0,0,10.2,3.7,13.2,5.8c3,2.1,12.1,47.3,2.8,61.1c-8.4,12.5-16.2,5-22.8,5
													s-14.4,7.4-22.8-5c-9.3-13.8-0.3-59,2.8-61.1c3-2.1,13.2-5.8,13.2-5.8S377.2,328.6,384.3,321.9z"/>
												<path class="st51" d="M370.3,322c-1.9,0.7-10.1,3.8-12.8,5.6c-3,2.1-12.1,47.3-2.8,61.1c5.5,8.2,10.8,7.8,15.6,6.6
													L370.3,322L370.3,322z"/>
												<path class="st51" d="M397.5,327.7c-2.1-1.5-9.1-4.2-12.2-5.5l0.2,73.4c4.3,0.8,10,0.2,14.8-6.9
													C409.6,375,400.6,329.8,397.5,327.7z"/>
												<g>
													<path class="st52" d="M403.7,355c-4.7,26.7-25,27-39.8,22.6c-13.9-4.1-12.5-22.9-12-27.5c-1.9,14.1-2.3,31,2.8,38.6
														c2.3,3.4,4.6,5.4,6.8,6.3c2.8,0.2,5.3,0.4,7.6,0.5c3-0.6,5.8-1.8,8.4-1.8c2.5,0,5.1,1,7.8,1.7c3.5-0.3,6.4-0.8,9.7-1.2
														c1.7-1.1,3.5-2.9,5.2-5.5C404.8,382.1,405,368,403.7,355z"/>
													<g>
														<path class="st48" d="M352.1,349.2L352.1,349.2L352.1,349.2z"/>
													</g>
												</g>
												<g>
													<path class="st46" d="M380.1,380.7c0,0-15.8-0.9-26.8-3c-6.3,0-22.2,1.6-28.3,15.3s13.5,52,17.8,54.7
														c15.1-1,16.8-5.6,17.5-8.3c0.9-10.5-6.2-35.2-4.9-36.1c1.3-0.9,21.4-2.4,24.8-5.2C383,391.2,380.1,380.7,380.1,380.7z"
														/>
													<g class="st53">
														<path class="st46" d="M380.1,380.7c0,0-15.8-0.9-26.8-3c-5.3,0-17.5,1.1-24.8,9.7c3.3-2.8,8.8-5.5,17.5-5.5
															c16,0.1,26.3,1.8,34.6,1.3C380.4,381.7,380.1,380.7,380.1,380.7z"/>
													</g>
													<g class="st47">
														<path class="st46" d="M380.1,398c0.7-1.6,1-3.4,1.2-5.3l0.1-2.6c0,0,0-0.1,0-0.1c-0.2,0.3-4.9,8.4-26.8,11.1
															c-4.2-0.3,4,34.5-1.3,44.8c5.5-1.9,6.4-4.6,6.9-6.4c0.9-10.5-6.2-35.2-4.9-36.1C356.6,402.3,376.8,400.9,380.1,398z"
															/>
													</g>
													<path class="st46" d="M374.9,380.7c0,0,15.8-0.9,26.8-3c6.3,0,22.2,1.6,28.3,15.3s-13.5,52-17.8,54.7
														c-15.1-1-16.8-5.6-17.5-8.3c-0.9-10.5,6.2-35.2,4.9-36.1c-1.3-0.9-21.4-2.4-24.8-5.2
														C372,391.2,374.9,380.7,374.9,380.7z"/>
													<g class="st53">
														<path class="st46" d="M374.9,380.7c0,0,15.8-0.9,26.8-3c5.3,0,17.5,1.1,24.8,9.7c-3.3-2.8-8.8-5.5-17.5-5.5
															c-16,0.1-26.2,2.5-34.6,1.3C374.6,381.7,374.9,380.7,374.9,380.7z"/>
													</g>
												</g>
												<path class="st49" d="M387.4,310.7c0,6.3-4.4,10.2-9.9,10.2s-9.9-3.9-9.9-10.2s4.4-12.7,9.9-12.7
													C383,298,387.4,304.4,387.4,310.7z"/>
												<g>
													<g>
														<path class="st54" d="M382.6,307.4c0,0.5-0.4,0.9-1,0.9s-1-0.4-1-0.9s0.4-0.9,1-0.9S382.6,306.8,382.6,307.4z"/>
														<path class="st54" d="M374.3,307.4c0,0.5-0.4,0.9-1,0.9s-1-0.4-1-0.9s0.4-0.9,1-0.9S374.3,306.8,374.3,307.4z"/>
													</g>
													<path class="st54" d="M374.8,304.8c-0.6-0.5-1.3-0.6-2-0.4c-0.7,0.2-1.4,0.5-1.8,1c-0.1,0.2,0,0.4,0.1,0.5
														c0.2,0.1,0.4,0,0.5-0.1c0.2-0.4,0.8-0.5,1.2-0.7c0.4-0.1,1-0.1,1.3,0.2c0.2,0.1,0.4,0.2,0.6,0
														C374.9,305.2,374.9,304.9,374.8,304.8z"/>
													<path class="st54" d="M383,305c-0.1-0.1-0.3-0.2-0.4-0.3c-0.3-0.1-0.6-0.2-1-0.3c-0.7,0-1.4,0.2-1.8,0.7
														c-0.4,0.4,0.2,0.9,0.6,0.5c0.3-0.3,0.7-0.5,1.2-0.5c0.2,0,0.4,0,0.6,0.1c0.1,0,0.2,0.1,0.3,0.1c0,0,0.1,0,0.1,0.1
														c0,0,0,0,0,0v0c0,0.1,0.1,0.2,0.3,0.3c0.1,0,0.2,0,0.4,0c0.1-0.1,0.2-0.2,0.2-0.3C383.3,305.2,383.2,305.1,383,305z"/>
												</g>
												<path class="st55" d="M366.2,306.9c0,0,1,1,1,4.9c0.5,0.9,1.3,0.7,1.5,0.5s-0.5-5.2,0.6-6.1c1.1-0.9,3-1.3,2.5-3.9
													c-0.4-2,1.7-2.1,3.6-0.9c1.9,1.1,4.4,1.2,7.2,0.1c2.3-0.9,2.1,3.7,3.3,5.1c1.2,1.4,0.5,5.6,0.7,5.9s0.9-0.1,1.4-0.9
													c0.5-0.8,0.4-4.4,0.8-4.8c1.9,0,1.5-3.1,0.4-4.8c-0.7-1.1,1.5-4.9-0.5-6.6s-3.8-3.2-7.6-1.7c-2.3,0.9-4.6-2.6-7.8-1.3
													s-2.3,5.1-5,5.3s-4.2,1.1-3,3.8C366.4,304.5,363.1,305.4,366.2,306.9z"/>
												<g class="st47">
													<path class="st46" d="M400.4,401c-9.3-1.1-15.4-3.2-19.5-5.3c-1.3-0.7-2.4-1.4-3.4-2c-0.9,0.6-2,1.3-3.4,2
														c0.2,0.8,0.4,1.5,0.7,2.2c0.5,0.5,1.4,0.9,2.6,1.2c6.5,2.1,21.1,3.2,22.2,4c1.3,0.9-5.8,25.6-4.9,36.1
														c0.4,1.9,1.4,4.6,6.9,6.4C396.4,435.6,404.6,400.8,400.4,401z"/>
												</g>
												<g class="st47">
													<path class="st48" d="M411.5,337c1,0.9,18.6,17.9,9.5,28.5c-7.1,8.2-26.4,10.8-36.6,10.6c0.3,0.8,0.7,1.5,1.2,2
														c22.3,0.4,46.4-4.7,40.3-21.1C422.8,348.4,417.2,341.8,411.5,337z"/>
												</g>
												<g>
													<path class="st51" d="M396.4,327c6,3.4,23,12.1,29.6,30c6.1,16.4-18,21.5-40.3,21.1c-2.5-2-3.2-10.9,0-12
														c14.7-3.9,22-4.6,19.7-7.9c-1.7-2.4-16.5-11.1-18.1-15.4C385.8,338.4,391,324,396.4,327z"/>
													<g>
														<g class="st47">
															<path class="st48" d="M399.3,347.4c0-0.1-0.1-0.1-0.1-0.2C399.2,347.2,399.2,347.3,399.3,347.4z"/>
														</g>
														<g class="st47">
															<path class="st48" d="M405.4,358.2c0.4,0.5,0.5,1,0.4,1.4l2.1,1.5l-0.9-4.5c0,0-6.6-7.5-7.7-9.3
																c2.5,4.5,3.4,7.2,3.7,8.7C404.2,357,405.1,357.7,405.4,358.2z"/>
														</g>
													</g>
													<g>
														<path class="st49" d="M386,368c0,0-8.7-3.1-10.4-1c-2.1,2.6-1.8,9,0.2,10.3c1.9,1.5,4.8,1.5,10.5,0
															C395,369.6,386,368,386,368z"/>
														<path class="st45" d="M382.6,374c-0.2,2.9-5.3,4.1-7.5,2.5c0.2,0.3,0.5,0.6,0.7,0.8c1.9,1.5,4.8,1.5,10.5,0
															c8-7.1,0.9-9-0.2-9.3l-2-0.3C384.2,367.8,382.9,370.3,382.6,374z"/>
														<path class="st51" d="M422.5,349.7c-7.3,1.1-14.5,6.1-17.2,8.2c0.1,0.1,0.1,0.2,0.2,0.2c2.4,3.4-5,4-19.7,7.9
															c-3.3,1.1-2.6,10,0,12c22.3,0.4,46.4-4.7,40.3-21.1C425,354.4,423.8,352,422.5,349.7z"/>
														<path class="st52" d="M426.1,357c-0.1-0.4-0.3-0.9-0.5-1.3c-0.4-1.1-1-2.1-1.5-3.1c-0.1-0.3-1.4-2.9-1.6-2.8
															c-0.4,0.1-0.8,0.1-1.1,0.2c2.6,5.2,3.7,11-0.3,15.6c-7.1,8.2-26.4,10.8-36.6,10.6c0.2,0.6,0.5,1.1,0.9,1.6
															c0,0,0.1,0.1,0.1,0.1c0,0,0.1,0.1,0.1,0.1c0.1,0.1,0.1,0.1,0.2,0.2c0.2,0.2,1.5,0,1.8,0c0.6,0,1.2,0,1.9,0
															c1.2,0,2.5,0,3.7-0.1c2.4-0.1,4.9-0.3,7.3-0.5c4.5-0.5,8.9-1.2,13.2-2.6c3.4-1.1,6.9-2.6,9.5-5c2.3-2,3.8-4.7,3.9-7.7
															C427,360.5,426.7,358.7,426.1,357z"/>
													</g>
												</g>
												<g>
													<path class="st51" d="M359.8,350.4c3.7-2.8,7.1-5.6,7.9-7.6c1.6-4.4-3.6-18.8-9-15.8c-5.2,2.9-27.5,18.6-25.6,26.2
														L359.8,350.4z"/>
													<g>
														<g class="st47">
															<path class="st48" d="M355.8,347.4c0-0.1,0.1-0.1,0.1-0.2C355.9,347.2,355.8,347.3,355.8,347.4z"/>
														</g>
													</g>
													<g>
														<path class="st49" d="M371.4,337.4c0,0,5.6-7.2,8.1-6.3c3.2,1,6.6,6.6,5.6,8.7c-0.7,2.2-3.2,3.8-8.8,5.6
															C364.8,343.5,371.4,337.4,371.4,337.4z"/>
														<path class="st50" d="M385.3,339.3c0-0.1,0-0.1,0-0.2c0.1-0.8-0.2-1.6-0.5-2.3c-0.5-1.2-1.2-2.3-2-3.3
															c-0.6-0.7-1.4-1.4-2.2-2c-0.4-0.3-0.9-0.5-1.5-0.5c-0.9,0-1.7,0.5-2.4,1c0.5-0.3,1.1-0.5,1.7-0.5
															c0.4,0,0.8,0.2,1.2,0.5c1.3,0.8,2.3,1.9,3.1,3.1c0.9,1.3,2.3,5.1-1.5,6.4c-1.2,0.4-2.7,0.1-3.6-0.9
															c0,0-0.1-0.1-0.1-0.1c-2.4-2.9-4.8-4.4-4.8-4.4l-1.5,1.3c-0.8,0.8-5.7,6.1,5,7.9c2.7-0.8,5.9-1.8,7.8-3.9
															C384.7,340.9,385.2,340.1,385.3,339.3z"/>
													</g>
													<path class="st52" d="M368.5,335.9c-1.8,1-3.5,1.9-5.4,2.8c-3.2,1.5-6.5,2.9-9.7,4.4c-3.1,1.4-6.1,2.8-9.3,4
														c-1.5,0.5-2.9,1.1-4.3,1.9c-0.3,0.1-0.6,0.3-0.9,0.5l20.7-2.1c0.2-0.2,0.3-0.4,0.5-0.7
														C362.9,343.1,366.2,339.7,368.5,335.9z"/>
												</g>
												<g class="st47">
													<path class="st48" d="M407,356.6"/>
												</g>
												<path class="st56" d="M334.4,397c-0.6-1.4-1.3-2.8-2.6-3.7c-1.3-0.9-3.2-1.2-4.6-0.2c-0.4,0.3,0,1,0.4,0.7
													c1.4-1,3.2-0.4,4.3,0.7c1.2,1.2,1.9,2.9,2.3,4.5c0.5,1.6,0.7,3.4-0.1,5c-0.4,0.7-1,1.5-1.8,1.8
													c-0.9,0.3-1.9-0.1-2.6-0.7c-0.4-0.3-1,0.2-0.6,0.5c1.3,1,2.9,1.4,4.3,0.4c1.2-0.9,1.8-2.4,2-3.8
													C335.6,400.3,335,398.6,334.4,397z"/>
												<path class="st56" d="M421.7,397.2c0.6-1.4,1.3-2.8,2.6-3.7c1.3-0.9,3.2-1.2,4.6-0.2c0.4,0.3,0,1-0.4,0.7
													c-1.4-1-3.2-0.4-4.3,0.7c-1.2,1.2-1.9,2.9-2.3,4.5c-0.5,1.6-0.7,3.4,0.1,5c0.4,0.7,1,1.5,1.8,1.8
													c0.9,0.3,1.9-0.1,2.6-0.7c0.4-0.3,1,0.2,0.6,0.5c-1.3,1-2.9,1.4-4.3,0.4c-1.2-0.9-1.8-2.4-2-3.8
													C420.5,400.5,421,398.8,421.7,397.2z"/>
												<g class="st47">
													<g>
														<rect x="377.3" y="383.3" class="st46" width="0.4" height="10.5"/>
													</g>
												</g>
												<g>
													<g>
														<g>
															<path class="st13" d="M382,312.8c-2.1,0-3.9-1.7-3.9-3.7s1.7-3.7,3.9-3.7s3.9,1.7,3.9,3.7S384.1,312.8,382,312.8z
																 M382,305.7c-1.9,0-3.4,1.5-3.4,3.3c0,1.8,1.5,3.3,3.4,3.3s3.4-1.5,3.4-3.3C385.5,307.2,383.9,305.7,382,305.7z"/>
														</g>
														<g>
															<path class="st13" d="M373,312.8c-2.1,0-3.9-1.7-3.9-3.7s1.7-3.7,3.9-3.7s3.9,1.7,3.9,3.7S375.1,312.8,373,312.8z
																 M373,305.7c-1.9,0-3.4,1.5-3.4,3.3c0,1.8,1.5,3.3,3.4,3.3c1.9,0,3.4-1.5,3.4-3.3C376.4,307.2,374.9,305.7,373,305.7
																z"/>
														</g>
													</g>
													<g>
														<polygon class="st13" points="385.6,308.2 385.5,307.9 388.3,306.8 388.4,307.2 														"/>
													</g>
													<g>
														<polygon class="st13" points="369.7,308.2 366.9,307.2 367,306.8 369.9,307.9 														"/>
													</g>
													<g>
														<path class="st13" d="M376,308.8l-0.2-0.3c0,0,1.9-1.3,3.5,0l-0.3,0.3C377.6,307.6,376,308.7,376,308.8z"/>
													</g>
												</g>
											</g>
										</g>
										<g>
											<path class="st13" d="M380.8,315.1c0,0.9-1.4,2.2-3,2.2s-3-1.4-3-2.2s1.4,0,3,0C379.4,315.1,380.8,314.2,380.8,315.1z"/>
											<g>
												<path class="st44" d="M377.5,313c-0.2,0-0.4,0-0.5-0.2c-0.1-0.1-0.2-0.2-0.2-0.4c-0.1-0.5,0-1,0.4-1.3l0.3,0.3
													c-0.2,0.2-0.4,0.6-0.3,0.9c0,0.1,0.1,0.1,0.1,0.2c0.1,0.1,0.4,0.1,0.7,0l0.1,0.4C377.9,313,377.7,313,377.5,313z"/>
											</g>
										</g>
										<path class="st51" d="M334.3,356.5c-1.8-4.1,0.6-8.7,4.9-10.1c4.5-1.5,8.9-2,11.2-2.2c0,0.1,0,0.2,0,0.3
											c0.7,4,6.4-0.4,19.9-7.5c1-0.5,2.3,0,3.6,0.9c4,2.8,4.2,8.6,0.6,11.8c-15.2,13.3-33.2,22.3-39.8,7.7
											C334.5,357.1,334.4,356.8,334.3,356.5z"/>
										<path class="st52" d="M377,347.3c0.1-1,0.1-1.9,0.2-2.9c-7.7,7-22.5,17-32.9,15.8c-5.6-0.6-8.9-4.9-10.8-9.8
											c-0.2,0.7-0.5,1.4-0.6,2.1c0,0.1,0,0.2,0,0.3c0.3,1.1,0.7,2.2,1.1,3.3c0.2,0.4,0.4,0.9,0.6,1.3c0.8,1.6,1.8,3.2,3.1,4.4
											c2.2,2.1,5.2,3.1,8.3,3c3.6-0.1,7.2-1.3,10.4-2.8c4-1.9,7.8-4.3,11.4-7c1.9-1.4,3.8-3,5.7-4.5c0.9-0.8,1.9-1.6,2.8-2.4
											C376.5,347.8,376.7,347.6,377,347.3z"/>
									</g>
								</g>
							</g>
						</g>
						<g>
							<g>
								<rect x="308.9" y="378.2" class="st6" width="135" height="94.8"/>
								<g class="st57">
									<g>
										<path class="st58" d="M426.4,413.2h-21.5c-0.2,0-0.3-0.1-0.3-0.3s0.1-0.3,0.3-0.3h21.2v-4.9c0-0.2,0.1-0.3,0.3-0.3
											s0.3,0.1,0.3,0.3v5.2C426.7,413,426.6,413.2,426.4,413.2z"/>
									</g>
									<g>
										<path class="st58" d="M344.4,438.7h-21.5c-0.2,0-0.3-0.1-0.3-0.3s0.1-0.3,0.3-0.3h21.2v-4.9c0-0.2,0.1-0.3,0.3-0.3
											s0.3,0.1,0.3,0.3v5.2C344.7,438.6,344.6,438.7,344.4,438.7z"/>
									</g>
									<g>
										<path class="st58" d="M411,406.2h-12.4c-0.2,0-0.3-0.1-0.3-0.3s0.1-0.3,0.3-0.3H411c0.2,0,0.3,0.1,0.3,0.3
											S411.2,406.2,411,406.2z"/>
									</g>
									<g>
										<g>
											<path class="st58" d="M314.6,425.5c-0.2,0-0.3-0.1-0.3-0.3V420c0-0.1,0.1-0.3,0.3-0.3h18.1c0.2,0,0.3,0.1,0.3,0.3
												s-0.1,0.3-0.3,0.3h-17.8v5C314.9,425.4,314.7,425.5,314.6,425.5z"/>
										</g>
										<g>
											<path class="st58" d="M338.6,420.3H335c-0.2,0-0.3-0.1-0.3-0.3s0.1-0.3,0.3-0.3h3.6c0.2,0,0.3,0.1,0.3,0.3
												C338.9,420.2,338.8,420.3,338.6,420.3z"/>
										</g>
									</g>
									<g>
										<g>
											<path class="st58" d="M391.4,402.3c-0.2,0-0.3-0.1-0.3-0.3v-5.2c0-0.1,0.1-0.3,0.3-0.3h18.1c0.2,0,0.3,0.1,0.3,0.3
												s-0.1,0.3-0.3,0.3h-17.8v5C391.6,402.2,391.5,402.3,391.4,402.3z"/>
										</g>
										<g>
											<path class="st58" d="M415.4,397.1h-3.6c-0.2,0-0.3-0.1-0.3-0.3s0.1-0.3,0.3-0.3h3.6c0.2,0,0.3,0.1,0.3,0.3
												S415.6,397.1,415.4,397.1z"/>
										</g>
									</g>
									<g>
										<path class="st58" d="M329.9,428.8h-12.4c-0.2,0-0.3-0.1-0.3-0.3s0.1-0.3,0.3-0.3h12.4c0.2,0,0.3,0.1,0.3,0.3
											S330,428.8,329.9,428.8z"/>
									</g>
								</g>
								<g>
									<g>
										<defs>
											<path id="SVGID_69_" d="M443.9,473v-90.4c0-5.9-17.1-10.7-23.2-10.7H308.9V473H443.9z"/>
										</defs>
										<clipPath id="SVGID_70_">
											<use xlink:href="#SVGID_69_"  style="overflow:visible;"/>
										</clipPath>
										<g class="st59">
											<g>
												<g>
													<g>
														<path class="st13" d="M411,498.9h-65.1v-52.5c0-11.9,9.9-21.5,22.1-21.5h20.9c12.2,0,22.1,9.6,22.1,21.5V498.9z"/>
														<path class="st60" d="M400.1,427.9c3.2,14.6,5.3,38.8-13.6,43c-23.9,5.3-38.7-14.8-37.1-35.9
															c-2.2,3.3-3.4,7.2-3.4,11.5v52.5H411v-52.5C411,438.5,406.6,431.6,400.1,427.9z"/>
														<path class="st43" d="M378.4,449.9L378.4,449.9c9.2,0,16.6-7.2,16.6-16.1v-7.9c-2-0.5-4-0.9-6.2-0.9H368
															c-2.1,0-4.2,0.3-6.2,0.9v7.9C361.8,442.6,369.3,449.9,378.4,449.9z"/>
														<rect x="332.1" y="488.9" class="st60" width="91" height="15.4"/>
														<rect x="345.9" y="488.6" class="st43" width="65.1" height="8"/>
													</g>
													<g>
														<path class="st61" d="M341.5,524.7c0,0,24.7,12.3,46.2,4.8C409.2,522,355.8,507.4,341.5,524.7z"/>
														<path class="st43" d="M377.7,453.8L377.7,453.8c8.5,0,15.3-6.7,15.3-14.9v-7.3c-1.8-0.5-3.7-0.8-5.7-0.8h-19.2
															c-2,0-3.9,0.3-5.7,0.8v7.3C362.4,447.1,369.2,453.8,377.7,453.8z"/>
														<path class="st62" d="M371.3,423.7c0,0,5.7-3.4,13,0C388.2,431.4,367.6,428.4,371.3,423.7z"/>
														<path class="st63" d="M394.9,417.8c-1.2-4.9-3.1-9.6-5.6-13.6c-2.5-4-6.4-7.5-11.5-7.5c-6.4,0.1-10.9,5.5-13.1,11
															c-3.2,8-4.9,17.2-4.9,25.8c0,2.5-0.4,8.1,3.4,7.6c2.5-0.4,5-3.2,6.5-4.9c2.4-2.6,4-5.8,4.7-9.2c0.4-2,0.4-4.1-0.5-5.9
															c-0.8-1.6-2.2-2.8-3.1-4.3c-2.5-4.1-0.6-9.8,3.5-12.2c0.9-0.5,2.2,0.4,3.5,0.4c1.3,0,2.7-0.9,3.5-0.4
															c2.5,1.4,4.1,4.2,4.5,7c0.7,4.1-0.8,5.7-3.8,8.2c-0.8,0.7-1.7,1.4-2,2.4c-0.3,1.3,0.5,2.6,1.3,3.7
															c2,2.4,2.6,2.6,2.6,5.7c0,3,0.3,6,0.6,8.9c0.3,2.3,0.6,8.7,3.7,7.7c6.4-1.9,7.9-9.8,8.1-15.4
															C396.7,427.9,396.1,422.8,394.9,417.8z"/>
														<path class="st44" d="M382.8,416.9c0,0-2.1,4.6,2.3,8.5c-2.1,7.4-7.3,6.7-7.3,6.7s-5.2,0.7-7.3-6.7
															c4.4-4,2.3-8.5,2.3-8.5H382.8z"/>
														<path class="st45" d="M377.8,425.3c2,0,3.8-1.4,5.3-2.4c-1.7-3.2-0.4-6.1-0.4-6.1h-10c0,0,1.3,2.9-0.4,6.1
															C374,424,375.8,425.3,377.8,425.3z"/>
														<g>
															<path class="st51" d="M356,462.1c2.7-1.3,12.4-13.2,12.8-23.3c0.3-8.4-6.7-10.3-6.7-10.3s-11.6,9.2-17,28.4
																C344.2,460.1,352.8,463.6,356,462.1z"/>
														</g>
														<g>
															<path class="st51" d="M399.2,462.1c-2.7-1.3-12.4-13.2-12.8-23.3c-0.3-8.4,7.7-9.9,7.7-9.9s10.6,8.8,16,27.9
																C411,460.1,402.4,463.6,399.2,462.1z"/>
														</g>
														<path class="st62" d="M394.9,430.4c-0.3-0.6-0.5-1-0.7-1.1c-2.5-2-10.8-5.6-10.8-5.6s-2.3,8.4-5.5,8.4
															c-3.2,0-5.5-8.4-5.5-8.4s-8.3,3.5-10.8,5.6c-0.2,0.1-0.4,0.5-0.7,1.1c-1.9,3.1-4,11.9-3.2,16.7
															c1,6.3,2.9,20.1,3.5,28.6c0,4.9-0.8,9.1-1.8,12.2c6.9,12,13.2,4.9,18.6,4.8c5.4,0,11.7,7.1,18.6-4.8
															c-1-3.1-1.8-7.3-1.8-12.2c0.6-8.5,2.5-22.3,3.5-28.6C398.9,442.3,396.8,433.5,394.9,430.4z"/>
														<path class="st51" d="M394.9,429.9c-0.3-0.6-0.5-1-0.7-1.1c-2.5-2-10.8-5.6-10.8-5.6s-2.3,8.4-5.5,8.4
															c-3.2,0-5.5-8.4-5.5-8.4s-8.3,3.5-10.8,5.6c-0.2,0.1-0.4,0.5-0.7,1.1c-1.9,3.1-6.6,12.2-5.9,17
															c1,6.3,5.5,19.8,6.1,28.2c0,4.9-0.8,9.1-1.8,12.2c6.9,12,13.2,4.9,18.6,4.8c5.4,0,11.7,7.1,18.6-4.8
															c-1-3.1-1.8-7.3-1.8-12.2c0.6-8.5,4.2-21.8,5.2-28.1C400.6,442.2,396.8,433,394.9,429.9z"/>
														<g>
															<path class="st52" d="M388.6,455.9c4.2,4,10.5,15.7-6.3,18.7c3.8-0.2,7.9-0.8,12.3-1.8c0.1,0,0.1,0.1,0.2,0.1
																c0.7-8.5,2.4-20.2,3.3-25.9c0.4-2.4,0.1-5.9-0.6-9.1l-0.2-1c0,0,2.2,10.5-14.8,12.2
																C375.8,450.8,383.8,451.3,388.6,455.9z"/>
															<path class="st52" d="M360.7,472.9c0.6,0.2,5.5,1.4,12.8,1.8c-12.2-3.5-10.8-14.7-6.6-18.8c4.9-4.6,10.9-5.6,4.2-7.2
																c-13.9-1.1-13-10.6-13-10.6l0,0c-0.7,3.2-1,6.6-0.6,9.1C358.4,452.8,360,464.4,360.7,472.9z"/>
														</g>
														<g>
															<g>
																<path class="st48" d="M352.4,446.1L352.4,446.1L352.4,446.1z"/>
															</g>
														</g>
														<g class="st47">
															<path class="st48" d="M407,453.5"/>
														</g>
														<g>
															<g>
																<path class="st44" d="M367.9,489.7c-10.4,8.8-6.9,38.7-8.1,52c-0.1,1.7-1.7,4.9-5.5,6.4c-5.3,2-4.7,3.6,0,5.2
																	s14.7,3.7,16.8,0.2c0.8-1.4,1.4-3.9,1.7-6.3c0.6-4.3,1.6-8.6,2.9-12.8c3.4-11,8.9-26.1,10-26.4
																	C387.2,507.8,379,480.3,367.9,489.7z"/>
																<path class="st45" d="M375.7,534.6c0.9-2.8,1.9-5.8,2.9-8.8c1.8-7.2,3.1-13.4,3.2-14.7c0,0-8.3,29.6-14.8,36.3
																	c-0.6,0.7-1.3,0.6-1.3,3.5c0,0.9,0,3.9,0.9,4.5c1,0.7,3.4-0.7,4.1-1.4c1.5-1.6,1.7-4.3,2-6.3
																	C373.4,543.2,374.4,538.9,375.7,534.6z"/>
																<path class="st64" d="M356.9,546.5c0,0,8.3,4.4,15.7,1.9c0.2,5.2-0.6,6.8-5.3,7.6c-4.7,0.8-17.7-1.8-17.8-4.8
																	C349.5,548.2,354.5,548.2,356.9,546.5z"/>
																<path class="st65" d="M367.4,556c4.7-0.8,5.5-2.4,5.3-7.6c-2.1,0.7-4.2,0.8-6.2,0.7l0,0c0,0-0.4,6.1-10.3,4.2
																	c-3-0.6-5.1-1.4-6.5-2.3c0,0,0,0.1,0,0.2C349.6,554.2,362.6,556.9,367.4,556z"/>
															</g>
															<g>
																<path class="st44" d="M380.1,486.4c13,4.5,20.9,33.6,27,45.5c0.8,1.5,3.4,4,7.5,4c5.7,0,5.7,1.7,2,4.9
																	c-3.8,3.2-12.2,8.7-15.5,6.2c-1.3-1-2.7-3.1-4-5.3c-2.2-3.8-4.7-7.4-7.5-10.8c-7.3-9-18.1-21.2-19.2-21
																	C368.8,510.1,366.1,481.6,380.1,486.4z"/>
																<path class="st45" d="M389.7,531c-1.8-2.3-3.9-4.8-6-7.2c-4.4-6.1-7.9-11.4-8.5-12.5c0,0,18.8,24.6,27.4,28.5
																	c0.9,0.4,1.5,0.1,2.5,2.8c0.3,0.8,1.4,3.7,0.8,4.5c-0.7,1-3.4,0.6-4.4,0.1c-2-1-3.2-3.4-4.2-5.2
																	C395,538.2,392.5,534.5,389.7,531z"/>
																<path class="st64" d="M411.6,535.4c0,0-6,7-13.9,7.4c1.8,4.9,3.1,6.1,7.8,5.2s15.8-8,14.8-10.8
																	C419.1,534.3,414.5,536.1,411.6,535.4z"/>
																<path class="st65" d="M405.5,548c-4.7,0.9-6-0.3-7.8-5.2c2.2-0.1,4.2-0.7,6-1.5l0,0c0,0,2.7,5.6,11.2,0.3
																	c2.5-1.6,4.2-3.1,5.2-4.5c0,0,0,0.1,0.1,0.1C421.3,540,410.2,547.1,405.5,548z"/>
															</g>
															<path class="st61" d="M360.6,472.9c0,0,15,4.3,34,0c10,5,5.9,24.2-6.1,26.4C376.5,501.3,345.5,502.5,360.6,472.9z"/>
															<path class="st66" d="M399.5,488.4c-2.5-5.5-4.7-9.4-6.5-10.6c-1.7-1.1-6.4-2.2-11.6-3.1
																c-10.9,0.6-18.8-1.3-20.4-1.7c-0.2,0.2-0.4,0.4-0.6,0.6c-14.3,28.9,16.3,27.7,28.2,25.6
																C394,498.2,397.9,493.6,399.5,488.4z"/>
															<path class="st61" d="M360.6,472.9c0,0-13.5,2.9-8.6,25.5c-3.2,9-10.6,23.4-10.6,27.3c21.9,12.3,37.2-0.1,48,0
																s16.7-1.6,20.2-8c-9.6-20.9-13.4-36.1-17.9-39.2C387.2,475.5,360.6,472.9,360.6,472.9z"/>
															<g>
																<path class="st66" d="M377.6,528.2c-16.1,4.5-25.4,1-30.2-2c-5-3.1,2.1-21.6,2.1-21.6l0,0c-3.5,8.3-8.1,18-8.1,21.1
																	C356.3,534,368.2,531,377.6,528.2z"/>
																<path class="st67" d="M379.9,527.5L379.9,527.5L379.9,527.5z"/>
															</g>
															<path class="st66" d="M403.9,520.6c-4.4,4.3-12.5,2.2-19,5.6l0,0c1.6-0.3,3.1-0.5,4.5-0.5c10.8,0.1,16.7-1.6,20.2-8
																c-4.5-9.8-7.7-18.3-10.3-25C399.3,492.8,408.3,516.3,403.9,520.6z"/>
															<path class="st66" d="M370.8,498.4c-4-2.8-18.8,0-18.8,0c-0.4,1-0.8,2.1-1.2,3.2c3.5-1,7.9-1.6,13-0.4
																c11.7,2.8,10.9,13.1,21.1,25c0,0,0,0,0,0C381.1,521,374.7,501.1,370.8,498.4z"/>
														</g>
														<path class="st54" d="M374.1,408.9c0-0.1,0-0.2-0.1-0.3c-0.1-0.1-0.2-0.1-0.3-0.1c-0.3,0-0.5,0.1-0.8,0.2
															c-0.2,0.1-0.4,0.2-0.6,0.4c-0.1,0.1-0.1,0.4,0,0.5c0.2,0.1,0.4,0.1,0.6,0c0,0,0.1-0.1,0.1-0.1
															c0.1-0.1,0.2-0.1,0.3-0.2c0.1,0,0.3-0.1,0.4-0.1h0c0.1,0,0.2,0,0.3-0.1C374.1,409.1,374.1,409,374.1,408.9z"/>
														<path class="st54" d="M382.8,409.1C382.7,409.1,382.7,409.1,382.8,409.1L382.8,409.1c-0.3-0.4-0.7-0.7-1.2-0.8
															c0,0-0.1,0-0.2,0c0,0-0.1,0-0.1,0c-0.1,0-0.2,0.1-0.2,0.2c0,0.1,0,0.2,0,0.3c0,0.1,0.1,0.2,0.2,0.2
															c0.1,0,0.2,0,0.3,0.1c0.1,0,0.2,0.1,0.2,0.1c0.1,0.1,0.1,0.1,0.2,0.2c0,0,0,0,0,0c0.1,0.1,0.1,0.1,0.2,0.2
															c0.1,0,0.2,0,0.3,0c0.1,0,0.2-0.1,0.2-0.2C382.8,409.4,382.8,409.2,382.8,409.1z"/>
														<path class="st51" d="M410,456.8c0,0,9.3,15.7-30,17.6c-1.5-2.2-1.1-6.1,0-6.5C387.4,461.8,404.6,449.6,410,456.8z"/>
														<path class="st52" d="M379.1,471.1c26.4,1.1,31.1-5.9,31.9-9.1c-0.9,4.7-6.6,11.2-30.9,12.3
															C379.5,473.5,379.2,472.2,379.1,471.1z"/>
														<g>
															<path class="st68" d="M376.1,456.7c-8.3-0.3-12.9,2-12.9,2s2.5,12.8,3.3,16.4c5,1,9.1,1.1,10.3,0.9
																c0.8,0.2,5.1-0.2,10.4-1.7c0.5-3.6,2-16.6,2-16.6S382.8,455.6,376.1,456.7z"/>
															<path class="st69" d="M358.8,459.1c0,0,3.4,12.8,4.4,16.4c7.6,1.1,13.6,1.1,14.1,0.8c-0.6-2.8-1-18.9-1.3-19.3
																C373,457.1,358.8,459.1,358.8,459.1z"/>
															<path class="st70" d="M358.8,459.1c0,0,3.4,12.8,4.4,16.4c0.8,0.1,1.6,0.2,2.4,0.3c-4.5-3.7-5.3-12.4-5.4-16.9
																C359.3,459.1,358.8,459.1,358.8,459.1z"/>
															<path class="st69" d="M393.5,458.1c0,0-2.1,13-2.7,16.6c-7.5,1.5-13.5,1.9-14,1.6c0.4-2.8-1-18.9-0.7-19.3
																C379.1,457,393.5,458.1,393.5,458.1z"/>
															<path class="st71" d="M380.9,465.2c0.4-4.3,2.4-6.5,4.7-7.7c-3.9-0.3-8-0.5-9.5-0.5c-0.3,0.4,1,16.5,0.7,19.3
																c0.4,0.2,4.2,0,9.4-0.8C383.1,474,380.5,470.7,380.9,465.2z"/>
														</g>
														<path class="st44" d="M374.9,468.7c0,0,3.6-1.3,5-1.7c1.4-0.4,0.4,2.2-0.4,2.8c-0.8,0.6,5.5-1.1,6.9,0.5
															s-3.2,7.3-12.3,3.7C370.8,469.8,374.9,468.7,374.9,468.7z"/>
														<path class="st51" d="M345.1,456.8c0,0-9.3,15.7,30,17.6c1.5-2.2,1.1-6.1,0-6.5C367.8,461.8,350.5,449.6,345.1,456.8z
															"/>
														<path class="st52" d="M376.1,471.1c-26.4,1.1-31.1-5.9-31.9-9.1c0.9,4.7,6.6,11.2,30.9,12.3
															C375.8,473.5,376.1,472.2,376.1,471.1z"/>
														<g>
															<path class="st44" d="M388.1,411.9c0.1,1.1-0.6,1.9-1.6,2c-1,0.1-1.9-0.5-2-1.6s0.5-2.3,1.6-2.4
																C387,409.8,387.9,410.8,388.1,411.9z"/>
															<path class="st44" d="M368.1,411.9c-0.1,1.1,0.6,1.9,1.6,2c1,0.1,1.9-0.5,2-1.6s-0.5-2.3-1.6-2.4
																C369.2,409.8,368.2,410.8,368.1,411.9z"/>
														</g>
													</g>
												</g>
												<g>
													<path class="st44" d="M381.3,404.6c-0.9-0.5-2.2,0.4-3.5,0.4s-2.7-0.9-3.5-0.4c-7.4,4.4-6.4,18.2,3.5,18.2
														C387.3,422.8,388.8,408.8,381.3,404.6z"/>
												</g>
											</g>
											<g>
												<g>
													<g>
														<path class="st54" d="M380.9,412.3c0,0,0.1-0.1,0.1-0.1c0,0,0,0,0,0c0,0,0,0,0,0c0.1,0,0.1-0.1,0.2-0.1
															c-0.1,0,0,0,0,0c0,0,0.1,0,0.1,0c0,0,0.1,0,0,0c0,0,0,0,0,0c0,0,0.1,0,0.1,0c0,0,0,0,0,0c0,0,0.1,0,0,0s0,0,0,0
															c0,0,0,0,0,0c0,0,0.1,0,0.1,0c0,0,0,0,0,0c-0.1,0,0,0,0,0c0.1,0,0.1,0.1,0.2,0.1c0,0,0,0,0,0c0,0,0,0,0,0
															c0,0,0.1,0.1,0.1,0.1c0.1,0.1,0.4,0.1,0.5,0c0.1-0.1,0.1-0.3,0-0.5c-0.3-0.3-0.7-0.5-1.1-0.5c-0.4,0-0.9,0.2-1.1,0.5
															c-0.1,0.1-0.1,0.3,0,0.5C380.6,412.4,380.8,412.5,380.9,412.3L380.9,412.3z"/>
													</g>
													<g>
														<path class="st54" d="M380.6,409.6c0.4-0.2,0.9-0.4,1.3-0.4c0.5,0,0.9,0.2,1.3,0.4c0.4,0.2,0.7-0.3,0.3-0.5
															c-0.5-0.3-1.1-0.5-1.6-0.5c-0.6,0-1.2,0.2-1.7,0.5C379.9,409.3,380.2,409.8,380.6,409.6L380.6,409.6z"/>
													</g>
												</g>
												<g>
													<g>
														<path class="st54" d="M373.5,412.3c0,0,0.1-0.1,0.1-0.1c0,0,0,0,0,0c0,0,0,0,0,0c0.1,0,0.1-0.1,0.2-0.1
															c-0.1,0,0,0,0,0c0,0,0.1,0,0.1,0c0,0,0.1,0,0,0c0,0,0,0,0,0c0,0,0.1,0,0.1,0c0,0,0,0,0,0c0,0,0.1,0,0,0s0,0,0,0
															c0,0,0,0,0,0c0,0,0.1,0,0.1,0c0,0,0,0,0,0c-0.1,0,0,0,0,0c0.1,0,0.1,0.1,0.2,0.1c0,0,0,0,0,0c0,0,0,0,0,0
															c0,0,0.1,0.1,0.1,0.1c0.1,0.1,0.4,0.1,0.5,0c0.1-0.1,0.1-0.3,0-0.5c-0.3-0.3-0.7-0.5-1.1-0.5c-0.4,0-0.9,0.2-1.1,0.5
															c-0.1,0.1-0.1,0.3,0,0.5C373.2,412.4,373.4,412.5,373.5,412.3L373.5,412.3z"/>
													</g>
													<g>
														<path class="st54" d="M372.9,409.6c0.4-0.2,0.8-0.4,1.3-0.4s0.9,0.2,1.3,0.4c0.4,0.2,0.7-0.3,0.3-0.5
															c-0.5-0.3-1-0.5-1.6-0.5c-0.6,0-1.1,0.2-1.6,0.5C372.2,409.3,372.5,409.8,372.9,409.6L372.9,409.6z"/>
													</g>
												</g>
											</g>
											<g>
												<path class="st13" d="M381.3,417.9c0,0.9-1.4,2.3-3.2,2.3c-1.8,0-3.2-1.4-3.2-2.3s1.4,0,3.2,0
													C379.8,417.9,381.3,417,381.3,417.9z"/>
												<g>
													<path class="st44" d="M377.8,415.7c-0.2,0-0.4,0-0.6-0.2c-0.1-0.1-0.2-0.2-0.2-0.4c-0.2-0.5,0-1,0.4-1.4l0.3,0.3
														c-0.3,0.2-0.4,0.6-0.3,1c0,0.1,0.1,0.2,0.1,0.2c0.1,0.1,0.5,0.1,0.7,0l0.1,0.4C378.2,415.7,378,415.7,377.8,415.7z"/>
												</g>
											</g>
										</g>
									</g>
								</g>
							</g>
							<rect x="308.9" y="372" class="st13" width="135" height="14.6"/>
						</g>
						<rect x="232.6" y="270.9" class="st13" width="76.3" height="202.1"/>
						<g>
							<path class="st72" d="M300.1,424.4h-59.8c-1.5,0-2.7-1.2-2.7-2.7V293.1c0-1.5,1.2-2.7,2.7-2.7h59.8c1.5,0,2.7,1.2,2.7,2.7
								v128.5C302.8,423.2,301.6,424.4,300.1,424.4z"/>
							<g>
								<g>
									<g>
										<g>
											<g>
												<path id="SVGID_19_" class="st6" d="M299.8,342.4c0,5-4.2,9.1-9.4,9.1s-9.4-4.1-9.4-9.1s4.2-9.1,9.4-9.1
													S299.8,337.3,299.8,342.4z"/>
											</g>
											<g>
												<defs>
													<ellipse id="SVGID_71_" cx="290.4" cy="342.4" rx="9.4" ry="9.1"/>
												</defs>
												<clipPath id="SVGID_72_">
													<use xlink:href="#SVGID_71_"  style="overflow:visible;"/>
												</clipPath>
												<g class="st73">
													<g>
														<g>
															<path class="st13" d="M303.5,355.1v-0.9c0-4.6-3.9-8.4-8.7-8.4h-8.2c-4.8,0-8.7,3.8-8.7,8.4v0.9H303.5z"/>
															<g class="st41">
																<path class="st42" d="M299.9,355.1h3.5v-0.9c0-3.1-1.7-5.8-4.3-7.3C299.7,349.3,300.1,352.2,299.9,355.1z"/>
															</g>
															<g class="st41">
																<path class="st42" d="M279.8,355.1c-0.5-1.7-0.7-3.5-0.5-5.4c-0.9,1.3-1.3,2.8-1.3,4.5v0.9H279.8z"/>
															</g>
															<path class="st43" d="M288.3,355.1h4.8c2.4-0.9,4.1-3.2,4.1-5.9v-3.1c-0.8-0.2-1.6-0.3-2.4-0.3h-8.2
																c-0.8,0-1.6,0.1-2.4,0.3v3.1C284.2,351.9,285.9,354.1,288.3,355.1z"/>
														</g>
														<g>
															<path class="st48" d="M288.2,346.7c0,0,2.2-1.3,4.9,0C294.6,349.6,286.9,348.5,288.2,346.7z"/>
															<g>
																<path class="st49" d="M295.3,342.2c0.1,0.7-0.4,1.2-1,1.3c-0.6,0.1-1.2-0.3-1.3-1c-0.1-0.7,0.4-1.5,1-1.6
																	C294.6,340.9,295.2,341.5,295.3,342.2z"/>
																<path class="st49" d="M286.1,342.2c-0.1,0.7,0.4,1.2,1,1.3c0.6,0.1,1.2-0.3,1.3-1c0.1-0.7-0.4-1.5-1-1.6
																	C286.8,340.9,286.2,341.5,286.1,342.2z"/>
															</g>
															<path class="st49" d="M292.6,344.1c0,0-0.8,1.7,0.9,3.2c-0.8,2.8-2.7,2.5-2.7,2.5s-2,0.3-2.7-2.5
																c1.7-1.5,0.9-3.2,0.9-3.2H292.6z"/>
															<path class="st50" d="M290.7,347.3c0.8,0,1.4-0.5,2-0.9c-0.6-1.2-0.1-2.3-0.1-2.3h-3.8c0,0,0.5,1.1-0.1,2.3
																C289.3,346.8,290,347.3,290.7,347.3z"/>
															<path class="st13" d="M299.7,355.1c-0.6-3.4-1.3-6-1.7-6.3c-1.1-0.8-4.8-2.1-4.8-2.1c-2.6,2.4-4.9,0-4.9,0
																s-3.7,1.3-4.8,2.1c-0.4,0.3-1.2,2.9-1.7,6.3H299.7z"/>
															<path class="st51" d="M288.1,355.1v-8.3c-0.7,0.2-3.7,1.4-4.6,2c-0.4,0.3-1.2,2.9-1.7,6.3H288.1z"/>
															<path class="st51" d="M299.7,355.1c-0.6-3.4-1.3-6-1.7-6.3c-0.8-0.5-3.3-1.5-4.4-2l0,8.3H299.7z"/>
															<path class="st49" d="M294.3,342.6c0,2.3-1.6,3.7-3.6,3.7s-3.6-1.4-3.6-3.7s1.6-4.6,3.6-4.6
																C292.7,338,294.3,340.4,294.3,342.6z"/>
															<g>
																<g>
																	<path class="st54" d="M292.5,341.4c0,0.2-0.2,0.3-0.4,0.3s-0.4-0.1-0.4-0.3s0.2-0.3,0.4-0.3
																		S292.5,341.2,292.5,341.4z"/>
																	<path class="st54" d="M289.5,341.4c0,0.2-0.2,0.3-0.4,0.3s-0.4-0.1-0.4-0.3s0.2-0.3,0.4-0.3
																		C289.4,341.1,289.5,341.2,289.5,341.4z"/>
																</g>
																<path class="st54" d="M289.7,340.5c-0.2-0.2-0.5-0.2-0.7-0.1c-0.2,0.1-0.5,0.2-0.6,0.4c0,0.1,0,0.1,0,0.2
																	c0.1,0,0.1,0,0.2,0c0.1-0.1,0.3-0.2,0.4-0.2c0.2,0,0.4,0,0.5,0.1c0.1,0,0.1,0.1,0.2,0
																	C289.8,340.6,289.8,340.5,289.7,340.5z"/>
																<path class="st54" d="M292.7,340.6c0,0-0.1-0.1-0.2-0.1c-0.1-0.1-0.2-0.1-0.4-0.1c-0.2,0-0.5,0.1-0.7,0.2
																	c-0.1,0.1,0.1,0.3,0.2,0.2c0.1-0.1,0.3-0.2,0.4-0.2c0.1,0,0.1,0,0.2,0c0,0,0.1,0,0.1,0.1c0,0,0,0,0,0c0,0,0,0,0,0
																	l0,0c0,0,0,0.1,0.1,0.1c0,0,0.1,0,0.1,0c0,0,0.1-0.1,0.1-0.1C292.8,340.7,292.7,340.6,292.7,340.6z"/>
															</g>
															<path class="st55" d="M286.6,341.3c0,0,0.4,0.4,0.4,1.8c0.2,0.3,0.5,0.3,0.5,0.2c0.1-0.1-0.2-1.9,0.2-2.2
																c0.4-0.3,1.1-0.5,0.9-1.4c-0.1-0.7,0.6-0.8,1.3-0.3c0.7,0.4,1.6,0.4,2.6,0c0.8-0.3,0.8,1.3,1.2,1.8s0.2,2,0.3,2.1
																s0.3,0,0.5-0.3c0.2-0.3,0.1-1.6,0.3-1.7c0.7,0,0.5-1.1,0.1-1.7c-0.3-0.4,0.6-1.8-0.2-2.4s-1.4-1.2-2.7-0.6
																c-0.8,0.3-1.7-0.9-2.8-0.5c-1.1,0.5-0.8,1.8-1.8,1.9c-1,0.1-1.5,0.4-1.1,1.4C286.7,340.4,285.5,340.7,286.6,341.3z"
																/>
															<g>
																<path class="st74" d="M294.8,355.1h11c-2.8-3.6-6.6-5.6-8.3-6.5c-2-1.1-3.8,4.1-3.3,5.7
																	C294.4,354.5,294.5,354.8,294.8,355.1z"/>
															</g>
															<g>
																<path class="st74" d="M286.6,355.1c0.3-0.3,0.5-0.6,0.6-0.8c0.6-1.6-1.3-6.8-3.3-5.7c-1.3,0.8-5.8,3.8-8,6.5H286.6z
																	"/>
																<g>
																	<path class="st49" d="M289.7,355.1h0.9c1.8-0.6,2.6-1.2,2.8-1.9c0.4-0.8-0.9-2.8-2-3.1c-0.9-0.3-2.9,2.3-2.9,2.3
																		S286.3,354.3,289.7,355.1z"/>
																	<path class="st50" d="M289.7,355.1h0.9c0.9-0.3,1.9-0.6,2.5-1.3c0.2-0.2,0.4-0.5,0.4-0.8c0,0,0,0,0-0.1
																		c0-0.3-0.1-0.6-0.2-0.8c-0.2-0.4-0.4-0.8-0.7-1.2c-0.2-0.3-0.5-0.5-0.8-0.7c-0.2-0.1-0.3-0.2-0.5-0.2
																		c-0.3,0-0.6,0.2-0.9,0.4c0.2-0.1,0.4-0.2,0.6-0.2c0.2,0,0.3,0.1,0.4,0.2c0.5,0.3,0.8,0.7,1.1,1.1
																		c0.3,0.5,0.8,1.8-0.5,2.3c-0.4,0.1-1,0-1.3-0.3c0,0,0,0,0,0c-0.9-1.1-1.7-1.6-1.7-1.6l-0.5,0.5
																		C288.2,352.6,286.6,354.3,289.7,355.1z"/>
																</g>
																<path class="st75" d="M284.9,355.1c0.9-1.1,1.9-2.1,2.6-3.3c-0.6,0.4-1.3,0.7-1.9,1c-1.2,0.5-2.3,1-3.5,1.6
																	c-0.5,0.2-1.1,0.5-1.6,0.7H284.9z"/>
															</g>
															<g>
																<g>
																	<g>
																		<path class="st13" d="M292.3,343.4c-0.8,0-1.4-0.6-1.4-1.4c0-0.7,0.6-1.4,1.4-1.4c0.8,0,1.4,0.6,1.4,1.4
																			S293.1,343.4,292.3,343.4z M292.3,340.8c-0.7,0-1.2,0.5-1.2,1.2s0.6,1.2,1.2,1.2s1.2-0.5,1.2-1.2
																			C293.6,341.4,293,340.8,292.3,340.8z"/>
																	</g>
																	<g>
																		<path class="st13" d="M289.1,343.4c-0.8,0-1.4-0.6-1.4-1.4c0-0.7,0.6-1.4,1.4-1.4c0.8,0,1.4,0.6,1.4,1.4
																			S289.8,343.4,289.1,343.4z M289.1,340.8c-0.7,0-1.2,0.5-1.2,1.2s0.6,1.2,1.2,1.2s1.2-0.5,1.2-1.2
																			S289.7,340.8,289.1,340.8z"/>
																	</g>
																</g>
																<g>
																	<polygon class="st13" points="293.6,341.8 293.6,341.6 294.6,341.2 294.6,341.4 																	"/>
																</g>
																<g>
																	<polygon class="st13" points="287.9,341.8 286.8,341.4 286.9,341.2 287.9,341.6 																	"/>
																</g>
																<g>
																	<path class="st13" d="M290.1,341.9l-0.1-0.1c0,0,0.7-0.5,1.3,0l-0.1,0.1C290.7,341.5,290.2,341.9,290.1,341.9z"/>
																</g>
															</g>
														</g>
													</g>
													<g>
														<path class="st13" d="M291.9,344.2c0,0.3-0.5,0.8-1.1,0.8s-1.1-0.5-1.1-0.8s0.5,0,1.1,0S291.9,343.9,291.9,344.2z"/>
														<g>
															<path class="st44" d="M290.7,343.5c-0.1,0-0.1,0-0.2-0.1c0,0-0.1-0.1-0.1-0.1c0-0.2,0-0.4,0.1-0.5l0.1,0.1
																c-0.1,0.1-0.1,0.2-0.1,0.3c0,0,0,0,0,0.1c0,0,0.1,0,0.2,0l0,0.1C290.8,343.5,290.8,343.5,290.7,343.5z"/>
														</g>
													</g>
													<path class="st74" d="M290.5,355.1c0.1-1-0.2-2-1.1-2.6c-0.5-0.3-0.9-0.5-1.3-0.3c-2.5,1.3-4.3,2.4-5.5,2.9H290.5z"/>
												</g>
											</g>
										</g>
									</g>
									<g>
										<g>
											<g>
												<path id="SVGID_21_" class="st6" d="M261.8,318c0,5-4.2,9.1-9.4,9.1S243,323,243,318s4.2-9.1,9.4-9.1
													C257.6,308.8,261.8,312.9,261.8,318z"/>
											</g>
											<g>
												<defs>
													<ellipse id="SVGID_73_" cx="252.4" cy="318" rx="9.4" ry="9.1"/>
												</defs>
												<clipPath id="SVGID_74_">
													<use xlink:href="#SVGID_73_"  style="overflow:visible;"/>
												</clipPath>
												<g class="st76">
													<g>
														<g>
															<path class="st13" d="M263.6,332.2v-3.1c0-4.1-3.4-7.4-7.6-7.4h-7.1c-4.2,0-7.6,3.3-7.6,7.4v3.1H263.6z"/>
															<path class="st60" d="M260.3,332.2h3.4v-3.1c0-2.7-1.5-5.1-3.7-6.3C260.5,325.5,261,329.2,260.3,332.2z"/>
															<path class="st60" d="M243.9,332.2c-1.1-2.1-1.6-4.5-1.4-7c-0.7,1.1-1.2,2.5-1.2,3.9v3.1H243.9z"/>
															<path class="st43" d="M252.5,330.3L252.5,330.3c3.1,0,5.7-2.5,5.7-5.5v-2.7c-0.7-0.2-1.4-0.3-2.1-0.3h-7.1
																c-0.7,0-1.4,0.1-2.1,0.3v2.7C246.8,327.8,249.4,330.3,252.5,330.3z"/>
														</g>
														<g>
															<path class="st43" d="M252.2,331.6L252.2,331.6c2.9,0,5.2-2.3,5.2-5.1v-2.5c-0.6-0.2-1.3-0.3-1.9-0.3H249
																c-0.7,0-1.3,0.1-1.9,0.3v2.5C247,329.4,249.4,331.6,252.2,331.6z"/>
															<path class="st62" d="M250.1,321.4c0,0,2-1.2,4.5,0C255.9,324,248.8,323,250.1,321.4z"/>
															<path class="st63" d="M258.1,319.3c-0.4-1.7-1-3.3-1.9-4.7c-0.9-1.4-2.2-2.6-3.9-2.5c-2.2,0-3.7,1.9-4.5,3.8
																c-1.1,2.8-1.7,5.9-1.7,8.8c0,0.8-0.1,2.8,1.2,2.6c0.8-0.1,1.7-1.1,2.2-1.7c0.8-0.9,1.4-2,1.6-3.1
																c0.1-0.7,0.1-1.4-0.2-2c-0.3-0.5-0.8-1-1.1-1.5c-0.9-1.4-0.2-3.3,1.2-4.2c0.3-0.2,0.8,0.1,1.2,0.1
																c0.4,0,0.9-0.3,1.2-0.1c0.9,0.5,1.4,1.4,1.6,2.4c0.2,1.4-0.3,2-1.3,2.8c-0.3,0.2-0.6,0.5-0.7,0.8
																c-0.1,0.5,0.2,0.9,0.5,1.2c0.7,0.8,0.9,0.9,0.9,2c0,1,0.1,2,0.2,3.1c0.1,0.8,0.2,3,1.3,2.6c2.2-0.6,2.7-3.4,2.8-5.3
																C258.8,322.8,258.6,321,258.1,319.3z"/>
															<path class="st44" d="M254,319c0,0-0.7,1.6,0.8,2.9c-0.7,2.5-2.5,2.3-2.5,2.3s-1.8,0.2-2.5-2.3
																c1.5-1.4,0.8-2.9,0.8-2.9H254z"/>
															<path class="st45" d="M252.3,321.9c0.7,0,1.3-0.5,1.8-0.8c-0.6-1.1-0.1-2.1-0.1-2.1h-3.4c0,0,0.4,1-0.1,2.1
																C251,321.4,251.6,321.9,252.3,321.9z"/>
															<g>
																<path class="st77" d="M246.9,332.2c1.1-1.6,2.2-3.8,2.3-5.8c0.1-2.9-2.3-3.5-2.3-3.5s-3.8,3-5.7,9.3L246.9,332.2
																	L246.9,332.2z"/>
															</g>
															<g>
																<path class="st77" d="M263.2,332.2c-1.9-6.2-5.3-9.1-5.3-9.1s-2.7,0.5-2.6,3.4c0.1,2,1.2,4.2,2.3,5.8H263.2z"/>
															</g>
															<path class="st62" d="M245.8,332.2h13c0.2-1.1,0.3-2.2,0.4-2.9c0.3-1.6-0.5-4.6-1.1-5.7c-0.1-0.2-0.2-0.3-0.2-0.4
																c-0.9-0.7-3.7-1.9-3.7-1.9s-0.8,2.9-1.9,2.9c-1.1,0-1.9-2.9-1.9-2.9s-2.9,1.2-3.7,1.9c-0.1,0-0.1,0.2-0.2,0.4
																c-0.7,1.1-1.4,4.1-1.1,5.7C245.5,330.1,245.6,331.1,245.8,332.2z"/>
															<path class="st51" d="M245.1,332.2h14.1c0.2-1.1,0.5-2.2,0.6-2.9c0.3-1.6-1-4.8-1.7-5.9c-0.1-0.2-0.2-0.3-0.2-0.4
																c-0.9-0.7-3.7-1.9-3.7-1.9s-0.8,2.9-1.9,2.9c-1.1,0-1.9-2.9-1.9-2.9s-2.9,1.2-3.7,1.9c-0.1,0-0.1,0.2-0.2,0.4
																c-0.7,1.1-2.3,4.2-2,5.8C244.6,330,244.8,331.1,245.1,332.2z"/>
															<g class="st78">
																<path class="st79" d="M255.9,332.2h2.9c0.2-1.1,0.3-2.2,0.4-2.9c0.1-0.8,0-2-0.2-3.1l-0.1-0.4c0,0,0.8,3.6-5.1,4.2
																	C251.7,330.6,254.2,330.8,255.9,332.2z"/>
																<path class="st79" d="M245.8,332.2h2.9c1.6-1.5,3.5-1.8,1.3-2.4c-4.7-0.4-4.5-3.6-4.5-3.6c-0.2,1.1-0.4,2.3-0.2,3.1
																	C245.5,330.1,245.6,331.1,245.8,332.2z"/>
															</g>
															<g>
																<g>
																	<path class="st48" d="M243.6,329L243.6,329L243.6,329z"/>
																</g>
															</g>
															<g class="st47">
																<path class="st48" d="M262.3,331.5"/>
															</g>
															<path class="st54" d="M251.1,316.3C251.1,316.2,251,316.2,251.1,316.3c-0.1-0.1-0.1-0.1-0.1-0.1
																c-0.1,0-0.2,0-0.3,0.1c-0.1,0-0.1,0.1-0.2,0.1c-0.1,0-0.1,0.1,0,0.2c0.1,0,0.1,0,0.2,0c0,0,0,0,0,0
																c0,0,0.1,0,0.1-0.1c0.1,0,0.1,0,0.1,0l0,0C250.9,316.4,251,316.4,251.1,316.3C251,316.3,251.1,316.3,251.1,316.3z"/>
															<path class="st54" d="M254,316.4C254,316.4,254,316.4,254,316.4L254,316.4c-0.1-0.1-0.2-0.2-0.4-0.3c0,0,0,0-0.1,0
																c0,0,0,0-0.1,0c0,0-0.1,0-0.1,0.1s0,0.1,0,0.1c0,0,0.1,0.1,0.1,0.1s0.1,0,0.1,0c0,0,0.1,0,0.1,0s0.1,0,0.1,0.1l0,0
																c0,0,0,0,0.1,0.1c0,0,0.1,0,0.1,0c0,0,0.1,0,0.1-0.1C254,316.4,254,316.4,254,316.4z"/>
															<g>
																<path class="st44" d="M255.8,317.3c0.1,0.4-0.2,0.6-0.6,0.7s-0.6-0.2-0.7-0.5s0.2-0.8,0.5-0.8
																	S255.8,316.9,255.8,317.3z"/>
																<path class="st44" d="M249,317.3c-0.1,0.4,0.2,0.6,0.6,0.7s0.6-0.2,0.7-0.5s-0.2-0.8-0.5-0.8S249,316.9,249,317.3z"
																	/>
															</g>
														</g>
													</g>
													<g>
														<path class="st44" d="M253.5,314.8c-0.3-0.2-0.8,0.1-1.2,0.1s-0.9-0.3-1.2-0.1c-2.5,1.5-2.2,6.2,1.2,6.2
															C255.6,321,256,316.2,253.5,314.8z"/>
													</g>
												</g>
											</g>
										</g>
										<g>
											<g>
												<g>
													<g>
														<path class="st54" d="M253.4,317.5C253.4,317.4,253.4,317.4,253.4,317.5L253.4,317.5
															C253.4,317.4,253.4,317.4,253.4,317.5c0.1-0.1,0.1-0.1,0.1-0.1c0,0,0,0,0,0c0,0,0,0,0,0s0,0,0,0c0,0,0,0,0,0
															c0,0,0,0,0,0s0,0,0,0c0,0,0,0,0,0s0,0,0,0c0,0,0,0,0,0c0,0,0,0,0,0s0,0,0,0c0,0,0,0,0,0c0,0,0.1,0,0.1,0c0,0,0,0,0,0
															s0,0,0,0c0,0,0,0,0,0c0,0,0.1,0,0.2,0c0,0,0-0.1,0-0.1c-0.1-0.1-0.2-0.2-0.4-0.2s-0.3,0.1-0.4,0.2c0,0-0.1,0.1,0,0.1
															C253.2,317.5,253.3,317.5,253.4,317.5L253.4,317.5z"/>
													</g>
													<g>
														<path class="st54" d="M253.2,316.5c0.1-0.1,0.3-0.1,0.4-0.1s0.3,0.1,0.4,0.1c0.1,0.1,0.2-0.1,0.1-0.2
															c-0.2-0.1-0.4-0.2-0.6-0.2c-0.2,0-0.4,0.1-0.6,0.2C253,316.4,253.1,316.6,253.2,316.5L253.2,316.5z"/>
													</g>
												</g>
												<g>
													<g>
														<path class="st54" d="M250.8,317.5C250.8,317.4,250.9,317.4,250.8,317.5L250.8,317.5
															C250.9,317.4,250.9,317.4,250.8,317.5c0.1-0.1,0.1-0.1,0.1-0.1c0,0,0,0,0,0c0,0,0,0,0,0s0,0,0,0c0,0,0,0,0,0
															c0,0,0,0,0,0s0,0,0,0c0,0,0,0,0,0s0,0,0,0c0,0,0,0,0,0c0,0,0,0,0,0s0,0,0,0c0,0,0,0,0,0c0,0,0.1,0,0.1,0c0,0,0,0,0,0
															s0,0,0,0c0,0,0,0,0,0c0,0,0.1,0,0.2,0c0,0,0-0.1,0-0.1c-0.1-0.1-0.2-0.2-0.4-0.2s-0.3,0.1-0.4,0.2c0,0-0.1,0.1,0,0.1
															C250.7,317.5,250.8,317.5,250.8,317.5L250.8,317.5z"/>
													</g>
													<g>
														<path class="st54" d="M250.6,316.5c0.1-0.1,0.3-0.1,0.4-0.1s0.3,0.1,0.4,0.1c0.1,0.1,0.2-0.1,0.1-0.2
															c-0.2-0.1-0.4-0.2-0.6-0.2c-0.2,0-0.4,0.1-0.6,0.2C250.4,316.4,250.5,316.6,250.6,316.5L250.6,316.5z"/>
													</g>
												</g>
											</g>
											<g>
												<path class="st13" d="M253.5,319.4c0,0.3-0.5,0.8-1.1,0.8c-0.6,0-1.1-0.5-1.1-0.8s0.5,0,1.1,0
													C253,319.4,253.5,319,253.5,319.4z"/>
												<g>
													<path class="st44" d="M252.3,318.6c-0.1,0-0.1,0-0.2-0.1c0,0-0.1-0.1-0.1-0.1c-0.1-0.2,0-0.4,0.1-0.5l0.1,0.1
														c-0.1,0.1-0.1,0.2-0.1,0.3c0,0,0,0,0,0.1c0.1,0,0.1,0,0.2,0l0,0.1C252.4,318.6,252.4,318.6,252.3,318.6z"/>
												</g>
											</g>
										</g>
									</g>
								</g>
								<g>
									<g>
										<path class="st13" d="M297.7,314h-32c-0.5,0-0.9-0.4-0.9-0.8s0.4-0.8,0.9-0.8h32c0.5,0,0.9,0.4,0.9,0.8
											C298.5,313.6,298.2,314,297.7,314z"/>
									</g>
									<g>
										<path class="st13" d="M283.5,317.5h-18.3c-0.5,0-0.9-0.4-0.9-0.8s0.4-0.8,0.9-0.8h18.3c0.5,0,0.9,0.4,0.9,0.8
											C284.3,317.1,283.9,317.5,283.5,317.5z"/>
									</g>
									<g>
										<path class="st13" d="M275.7,321.4h-10.1c-0.5,0-0.9-0.4-0.9-0.8s0.4-0.8,0.9-0.8h10.1c0.5,0,0.9,0.4,0.9,0.8
											S276.2,321.4,275.7,321.4z"/>
									</g>
									<g>
										<path class="st13" d="M291.2,321.4H287c-0.5,0-0.9-0.4-0.9-0.8s0.4-0.8,0.9-0.8h4.1c0.5,0,0.9,0.4,0.9,0.8
											S291.7,321.4,291.2,321.4z"/>
									</g>
								</g>
								<g>
									<g>
										<path class="st13" d="M244.4,340.4h32c0.5,0,0.9-0.4,0.9-0.8s-0.4-0.8-0.9-0.8h-32c-0.5,0-0.9,0.4-0.9,0.8
											C243.5,340,243.9,340.4,244.4,340.4z"/>
									</g>
									<g>
										<path class="st13" d="M258.6,343.9h18.3c0.5,0,0.9-0.4,0.9-0.8s-0.4-0.8-0.9-0.8h-18.3c-0.5,0-0.9,0.4-0.9,0.8
											S258.1,343.9,258.6,343.9z"/>
									</g>
									<g>
										<path class="st13" d="M266.4,347.8h10.1c0.5,0,0.9-0.4,0.9-0.8s-0.4-0.8-0.9-0.8h-10.1c-0.5,0-0.9,0.4-0.9,0.8
											C265.5,347.4,265.9,347.8,266.4,347.8z"/>
									</g>
								</g>
							</g>
							<g>
								<g>
									<g>
										<g>
											<g>
												<ellipse id="SVGID_23_" class="st6" cx="290.4" cy="396.1" rx="9.4" ry="9.1"/>
											</g>
											<g>
												<defs>
													<ellipse id="SVGID_75_" cx="290.4" cy="396.1" rx="9.4" ry="9.1"/>
												</defs>
												<clipPath id="SVGID_76_">
													<use xlink:href="#SVGID_75_"  style="overflow:visible;"/>
												</clipPath>
												<g class="st80">
													<g>
														<g>
															<path class="st13" d="M303.5,408.8v-0.9c0-4.6-3.9-8.4-8.7-8.4h-8.2c-4.8,0-8.7,3.8-8.7,8.4v0.9H303.5z"/>
															<g class="st41">
																<path class="st42" d="M299.9,408.8h3.5v-0.9c0-3.1-1.7-5.8-4.3-7.3C299.7,403,300.1,406,299.9,408.8z"/>
															</g>
															<g class="st41">
																<path class="st42" d="M279.8,408.8c-0.5-1.7-0.7-3.5-0.5-5.4c-0.9,1.3-1.3,2.8-1.3,4.5v0.9H279.8z"/>
															</g>
															<path class="st43" d="M288.3,408.8h4.8c2.4-0.9,4.1-3.2,4.1-5.9v-3.1c-0.8-0.2-1.6-0.3-2.4-0.3h-8.2
																c-0.8,0-1.6,0.1-2.4,0.3v3.1C284.2,405.6,285.9,407.9,288.3,408.8z"/>
														</g>
														<g>
															<path class="st48" d="M288.2,400.4c0,0,2.2-1.3,4.9,0C294.6,403.4,286.9,402.2,288.2,400.4z"/>
															<g>
																<path class="st49" d="M295.3,396c0.1,0.7-0.4,1.2-1,1.3c-0.6,0.1-1.2-0.3-1.3-1c-0.1-0.7,0.4-1.5,1-1.6
																	C294.6,394.6,295.2,395.3,295.3,396z"/>
																<path class="st49" d="M286.1,396c-0.1,0.7,0.4,1.2,1,1.3c0.6,0.1,1.2-0.3,1.3-1c0.1-0.7-0.4-1.5-1-1.6
																	C286.8,394.6,286.2,395.3,286.1,396z"/>
															</g>
															<path class="st49" d="M292.6,397.9c0,0-0.8,1.7,0.9,3.2c-0.8,2.8-2.7,2.5-2.7,2.5s-2,0.3-2.7-2.5
																c1.7-1.5,0.9-3.2,0.9-3.2H292.6z"/>
															<path class="st50" d="M290.7,401c0.8,0,1.4-0.5,2-0.9c-0.6-1.2-0.1-2.3-0.1-2.3h-3.8c0,0,0.5,1.1-0.1,2.3
																C289.3,400.5,290,401,290.7,401z"/>
															<path class="st13" d="M299.7,408.8c-0.6-3.4-1.3-6-1.7-6.3c-1.1-0.8-4.8-2.1-4.8-2.1c-2.6,2.4-4.9,0-4.9,0
																s-3.7,1.3-4.8,2.1c-0.4,0.3-1.2,2.9-1.7,6.3H299.7z"/>
															<path class="st51" d="M288.1,408.8v-8.3c-0.7,0.2-3.7,1.4-4.6,2c-0.4,0.3-1.2,2.9-1.7,6.3H288.1z"/>
															<path class="st51" d="M299.7,408.8c-0.6-3.4-1.3-6-1.7-6.3c-0.8-0.5-3.3-1.5-4.4-2l0,8.3H299.7z"/>
															<path class="st49" d="M294.3,396.4c0,2.3-1.6,3.7-3.6,3.7s-3.6-1.4-3.6-3.7s1.6-4.6,3.6-4.6
																C292.7,391.8,294.3,394.1,294.3,396.4z"/>
															<g>
																<g>
																	<path class="st54" d="M292.5,395.2c0,0.2-0.2,0.3-0.4,0.3s-0.4-0.1-0.4-0.3s0.2-0.3,0.4-0.3S292.5,395,292.5,395.2
																		z"/>
																	<path class="st54" d="M289.5,395.2c0,0.2-0.2,0.3-0.4,0.3s-0.4-0.1-0.4-0.3s0.2-0.3,0.4-0.3
																		C289.4,394.9,289.5,395,289.5,395.2z"/>
																</g>
																<path class="st54" d="M289.7,394.2c-0.2-0.2-0.5-0.2-0.7-0.1c-0.2,0.1-0.5,0.2-0.6,0.4c0,0.1,0,0.1,0,0.2
																	c0.1,0,0.1,0,0.2,0c0.1-0.1,0.3-0.2,0.4-0.2c0.2,0,0.4,0,0.5,0.1c0.1,0,0.1,0.1,0.2,0
																	C289.8,394.4,289.8,394.3,289.7,394.2z"/>
																<path class="st54" d="M292.7,394.3c0,0-0.1-0.1-0.2-0.1c-0.1-0.1-0.2-0.1-0.4-0.1c-0.2,0-0.5,0.1-0.7,0.2
																	c-0.1,0.1,0.1,0.3,0.2,0.2c0.1-0.1,0.3-0.2,0.4-0.2c0.1,0,0.1,0,0.2,0c0,0,0.1,0,0.1,0.1c0,0,0,0,0,0c0,0,0,0,0,0
																	l0,0c0,0,0,0.1,0.1,0.1c0,0,0.1,0,0.1,0c0,0,0.1-0.1,0.1-0.1C292.8,394.4,292.7,394.4,292.7,394.3z"/>
															</g>
															<path class="st55" d="M286.6,395c0,0,0.4,0.4,0.4,1.8c0.2,0.3,0.5,0.3,0.5,0.2c0.1-0.1-0.2-1.9,0.2-2.2
																c0.4-0.3,1.1-0.5,0.9-1.4c-0.1-0.7,0.6-0.8,1.3-0.3c0.7,0.4,1.6,0.4,2.6,0c0.8-0.3,0.8,1.3,1.2,1.8
																c0.5,0.5,0.2,2,0.3,2.1s0.3,0,0.5-0.3c0.2-0.3,0.1-1.6,0.3-1.7c0.7,0,0.5-1.1,0.1-1.7c-0.3-0.4,0.6-1.8-0.2-2.4
																s-1.4-1.2-2.7-0.6c-0.8,0.3-1.7-0.9-2.8-0.5c-1.1,0.5-0.8,1.8-1.8,1.9c-1,0.1-1.5,0.4-1.1,1.4
																C286.7,394.2,285.5,394.5,286.6,395z"/>
															<g>
																<path class="st74" d="M294.8,408.8h11c-2.8-3.6-6.6-5.6-8.3-6.5c-2-1.1-3.8,4.1-3.3,5.7
																	C294.4,408.2,294.5,408.5,294.8,408.8z"/>
															</g>
															<g>
																<path class="st74" d="M286.6,408.8c0.3-0.3,0.5-0.6,0.6-0.8c0.6-1.6-1.3-6.8-3.3-5.7c-1.3,0.8-5.8,3.8-8,6.5H286.6z
																	"/>
																<g>
																	<path class="st49" d="M289.7,408.8h0.9c1.8-0.6,2.6-1.2,2.8-1.9c0.4-0.8-0.9-2.8-2-3.1c-0.9-0.3-2.9,2.3-2.9,2.3
																		S286.3,408,289.7,408.8z"/>
																	<path class="st50" d="M289.7,408.8h0.9c0.9-0.3,1.9-0.6,2.5-1.3c0.2-0.2,0.4-0.5,0.4-0.8c0,0,0,0,0-0.1
																		c0-0.3-0.1-0.6-0.2-0.8c-0.2-0.4-0.4-0.8-0.7-1.2c-0.2-0.3-0.5-0.5-0.8-0.7c-0.2-0.1-0.3-0.2-0.5-0.2
																		c-0.3,0-0.6,0.2-0.9,0.4c0.2-0.1,0.4-0.2,0.6-0.2c0.2,0,0.3,0.1,0.4,0.2c0.5,0.3,0.8,0.7,1.1,1.1
																		c0.3,0.5,0.8,1.8-0.5,2.3c-0.4,0.1-1,0-1.3-0.3c0,0,0,0,0,0c-0.9-1.1-1.7-1.6-1.7-1.6l-0.5,0.5
																		C288.2,406.4,286.6,408.1,289.7,408.8z"/>
																</g>
																<path class="st75" d="M284.9,408.8c0.9-1.1,1.9-2.1,2.6-3.3c-0.6,0.4-1.3,0.7-1.9,1c-1.2,0.5-2.3,1-3.5,1.6
																	c-0.5,0.2-1.1,0.5-1.6,0.7H284.9z"/>
															</g>
															<g>
																<g>
																	<g>
																		<path class="st13" d="M292.3,397.1c-0.8,0-1.4-0.6-1.4-1.4c0-0.7,0.6-1.4,1.4-1.4c0.8,0,1.4,0.6,1.4,1.4
																			C293.7,396.5,293.1,397.1,292.3,397.1z M292.3,394.6c-0.7,0-1.2,0.5-1.2,1.2s0.6,1.2,1.2,1.2s1.2-0.5,1.2-1.2
																			C293.6,395.1,293,394.6,292.3,394.6z"/>
																	</g>
																	<g>
																		<path class="st13" d="M289.1,397.1c-0.8,0-1.4-0.6-1.4-1.4c0-0.7,0.6-1.4,1.4-1.4c0.8,0,1.4,0.6,1.4,1.4
																			C290.5,396.5,289.8,397.1,289.1,397.1z M289.1,394.6c-0.7,0-1.2,0.5-1.2,1.2s0.6,1.2,1.2,1.2s1.2-0.5,1.2-1.2
																			S289.7,394.6,289.1,394.6z"/>
																	</g>
																</g>
																<g>
																	<polygon class="st13" points="293.6,395.5 293.6,395.4 294.6,395 294.6,395.1 																	"/>
																</g>
																<g>
																	<polygon class="st13" points="287.9,395.5 286.8,395.1 286.9,395 287.9,395.4 																	"/>
																</g>
																<g>
																	<path class="st13" d="M290.1,395.7l-0.1-0.1c0,0,0.7-0.5,1.3,0l-0.1,0.1C290.7,395.3,290.2,395.7,290.1,395.7z"/>
																</g>
															</g>
														</g>
													</g>
													<g>
														<path class="st13" d="M291.9,398c0,0.3-0.5,0.8-1.1,0.8s-1.1-0.5-1.1-0.8s0.5,0,1.1,0S291.9,397.7,291.9,398z"/>
														<g>
															<path class="st44" d="M290.7,397.2c-0.1,0-0.1,0-0.2-0.1c0,0-0.1-0.1-0.1-0.1c0-0.2,0-0.4,0.1-0.5l0.1,0.1
																c-0.1,0.1-0.1,0.2-0.1,0.3c0,0,0,0,0,0.1c0,0,0.1,0,0.2,0l0,0.1C290.8,397.2,290.8,397.2,290.7,397.2z"/>
														</g>
													</g>
													<path class="st74" d="M290.5,408.8c0.1-1-0.2-2-1.1-2.6c-0.5-0.3-0.9-0.5-1.3-0.3c-2.5,1.3-4.3,2.4-5.5,2.9H290.5z"/>
												</g>
											</g>
										</g>
									</g>
									<g>
										<g>
											<g>
												<ellipse id="SVGID_25_" class="st6" cx="252.4" cy="371.7" rx="9.4" ry="9.1"/>
											</g>
											<g>
												<defs>
													<ellipse id="SVGID_77_" cx="252.4" cy="371.7" rx="9.4" ry="9.1"/>
												</defs>
												<clipPath id="SVGID_78_">
													<use xlink:href="#SVGID_77_"  style="overflow:visible;"/>
												</clipPath>
												<g class="st81">
													<g>
														<g>
															<path class="st13" d="M263.6,386v-3.1c0-4.1-3.4-7.4-7.6-7.4h-7.1c-4.2,0-7.6,3.3-7.6,7.4v3.1H263.6z"/>
															<path class="st60" d="M260.3,386h3.4v-3.1c0-2.7-1.5-5.1-3.7-6.3C260.5,379.3,261,383,260.3,386z"/>
															<path class="st60" d="M243.9,386c-1.1-2.1-1.6-4.5-1.4-7c-0.7,1.1-1.2,2.5-1.2,3.9v3.1H243.9z"/>
															<path class="st43" d="M252.5,384L252.5,384c3.1,0,5.7-2.5,5.7-5.5v-2.7c-0.7-0.2-1.4-0.3-2.1-0.3h-7.1
																c-0.7,0-1.4,0.1-2.1,0.3v2.7C246.8,381.6,249.4,384,252.5,384z"/>
														</g>
														<g>
															<path class="st43" d="M252.2,385.4L252.2,385.4c2.9,0,5.2-2.3,5.2-5.1v-2.5c-0.6-0.2-1.3-0.3-1.9-0.3H249
																c-0.7,0-1.3,0.1-1.9,0.3v2.5C247,383.1,249.4,385.4,252.2,385.4z"/>
															<path class="st62" d="M250.1,375.1c0,0,2-1.2,4.5,0C255.9,377.8,248.8,376.7,250.1,375.1z"/>
															<path class="st63" d="M258.1,373.1c-0.4-1.7-1-3.3-1.9-4.7c-0.9-1.4-2.2-2.6-3.9-2.5c-2.2,0-3.7,1.9-4.5,3.8
																c-1.1,2.8-1.7,5.9-1.7,8.8c0,0.8-0.1,2.8,1.2,2.6c0.8-0.1,1.7-1.1,2.2-1.7c0.8-0.9,1.4-2,1.6-3.1
																c0.1-0.7,0.1-1.4-0.2-2c-0.3-0.5-0.8-1-1.1-1.5c-0.9-1.4-0.2-3.3,1.2-4.2c0.3-0.2,0.8,0.1,1.2,0.1
																c0.4,0,0.9-0.3,1.2-0.1c0.9,0.5,1.4,1.4,1.6,2.4c0.2,1.4-0.3,2-1.3,2.8c-0.3,0.2-0.6,0.5-0.7,0.8
																c-0.1,0.5,0.2,0.9,0.5,1.2c0.7,0.8,0.9,0.9,0.9,2c0,1,0.1,2,0.2,3.1c0.1,0.8,0.2,3,1.3,2.6c2.2-0.6,2.7-3.4,2.8-5.3
																C258.8,376.5,258.6,374.8,258.1,373.1z"/>
															<path class="st44" d="M254,372.8c0,0-0.7,1.6,0.8,2.9c-0.7,2.5-2.5,2.3-2.5,2.3s-1.8,0.2-2.5-2.3
																c1.5-1.4,0.8-2.9,0.8-2.9H254z"/>
															<path class="st45" d="M252.3,375.7c0.7,0,1.3-0.5,1.8-0.8c-0.6-1.1-0.1-2.1-0.1-2.1h-3.4c0,0,0.4,1-0.1,2.1
																C251,375.2,251.6,375.7,252.3,375.7z"/>
															<g>
																<path class="st77" d="M246.9,386c1.1-1.6,2.2-3.8,2.3-5.8c0.1-2.9-2.3-3.5-2.3-3.5s-3.8,3-5.7,9.3L246.9,386
																	L246.9,386z"/>
															</g>
															<g>
																<path class="st77" d="M263.2,386c-1.9-6.2-5.3-9.1-5.3-9.1s-2.7,0.5-2.6,3.4c0.1,2,1.2,4.2,2.3,5.8H263.2z"/>
															</g>
															<path class="st62" d="M245.8,386h13c0.2-1.1,0.3-2.2,0.4-2.9c0.3-1.7-0.5-4.6-1.1-5.7c-0.1-0.2-0.2-0.3-0.2-0.4
																c-0.9-0.7-3.7-1.9-3.7-1.9s-0.8,2.9-1.9,2.9c-1.1,0-1.9-2.9-1.9-2.9s-2.9,1.2-3.7,1.9c-0.1,0-0.1,0.2-0.2,0.4
																c-0.7,1.1-1.4,4.1-1.1,5.7C245.5,383.8,245.6,384.9,245.8,386z"/>
															<path class="st51" d="M245.1,386h14.1c0.2-1.1,0.5-2.2,0.6-2.9c0.3-1.7-1-4.8-1.7-5.9c-0.1-0.2-0.2-0.3-0.2-0.4
																c-0.9-0.7-3.7-1.9-3.7-1.9s-0.8,2.9-1.9,2.9c-1.1,0-1.9-2.9-1.9-2.9s-2.9,1.2-3.7,1.9c-0.1,0-0.1,0.2-0.2,0.4
																c-0.7,1.1-2.3,4.2-2,5.8C244.6,383.8,244.8,384.8,245.1,386z"/>
															<g class="st78">
																<path class="st79" d="M255.9,386h2.9c0.2-1.1,0.3-2.2,0.4-2.9c0.1-0.8,0-2-0.2-3.1l-0.1-0.4c0,0,0.8,3.6-5.1,4.2
																	C251.7,384.4,254.2,384.5,255.9,386z"/>
																<path class="st79" d="M245.8,386h2.9c1.6-1.5,3.5-1.8,1.3-2.4c-4.7-0.4-4.5-3.6-4.5-3.6c-0.2,1.1-0.4,2.3-0.2,3.1
																	C245.5,383.8,245.6,384.9,245.8,386z"/>
															</g>
															<g>
																<g>
																	<path class="st48" d="M243.6,382.8L243.6,382.8L243.6,382.8z"/>
																</g>
															</g>
															<g class="st47">
																<path class="st48" d="M262.3,385.3"/>
															</g>
															<path class="st54" d="M251.1,370C251.1,370,251,370,251.1,370c-0.1-0.1-0.1-0.1-0.1-0.1c-0.1,0-0.2,0-0.3,0.1
																c-0.1,0-0.1,0.1-0.2,0.1c-0.1,0-0.1,0.1,0,0.2c0.1,0,0.1,0,0.2,0c0,0,0,0,0,0c0,0,0.1,0,0.1-0.1c0.1,0,0.1,0,0.1,0
																l0,0C250.9,370.1,251,370.1,251.1,370C251,370.1,251.1,370.1,251.1,370z"/>
															<path class="st54" d="M254,370.1C254,370.1,254,370.1,254,370.1L254,370.1c-0.1-0.1-0.2-0.2-0.4-0.3c0,0,0,0-0.1,0
																c0,0,0,0-0.1,0c0,0-0.1,0-0.1,0.1s0,0.1,0,0.1c0,0,0.1,0.1,0.1,0.1s0.1,0,0.1,0c0,0,0.1,0,0.1,0s0.1,0,0.1,0.1l0,0
																c0,0,0,0,0.1,0.1c0,0,0.1,0,0.1,0c0,0,0.1,0,0.1-0.1C254,370.2,254,370.1,254,370.1z"/>
															<g>
																<path class="st44" d="M255.8,371.1c0.1,0.4-0.2,0.6-0.6,0.7s-0.6-0.2-0.7-0.5s0.2-0.8,0.5-0.8
																	C255.4,370.3,255.8,370.7,255.8,371.1z"/>
																<path class="st44" d="M249,371.1c-0.1,0.4,0.2,0.6,0.6,0.7s0.6-0.2,0.7-0.5s-0.2-0.8-0.5-0.8
																	C249.3,370.3,249,370.7,249,371.1z"/>
															</g>
														</g>
													</g>
													<g>
														<path class="st44" d="M253.5,368.6c-0.3-0.2-0.8,0.1-1.2,0.1s-0.9-0.3-1.2-0.1c-2.5,1.5-2.2,6.2,1.2,6.2
															C255.6,374.8,256,370,253.5,368.6z"/>
													</g>
												</g>
											</g>
										</g>
										<g>
											<g>
												<g>
													<g>
														<path class="st54" d="M253.4,371.2C253.4,371.2,253.4,371.2,253.4,371.2L253.4,371.2
															C253.4,371.2,253.4,371.2,253.4,371.2c0.1-0.1,0.1-0.1,0.1-0.1c0,0,0,0,0,0c0,0,0,0,0,0s0,0,0,0c0,0,0,0,0,0
															c0,0,0,0,0,0s0,0,0,0c0,0,0,0,0,0s0,0,0,0c0,0,0,0,0,0c0,0,0,0,0,0s0,0,0,0c0,0,0,0,0,0c0,0,0.1,0,0.1,0c0,0,0,0,0,0
															s0,0,0,0c0,0,0,0,0,0c0,0,0.1,0,0.2,0c0,0,0-0.1,0-0.1c-0.1-0.1-0.2-0.2-0.4-0.2s-0.3,0.1-0.4,0.2c0,0-0.1,0.1,0,0.1
															C253.2,371.2,253.3,371.2,253.4,371.2L253.4,371.2z"/>
													</g>
													<g>
														<path class="st54" d="M253.2,370.3c0.1-0.1,0.3-0.1,0.4-0.1s0.3,0.1,0.4,0.1c0.1,0.1,0.2-0.1,0.1-0.2
															c-0.2-0.1-0.4-0.2-0.6-0.2c-0.2,0-0.4,0.1-0.6,0.2C253,370.2,253.1,370.4,253.2,370.3L253.2,370.3z"/>
													</g>
												</g>
												<g>
													<g>
														<path class="st54" d="M250.8,371.2C250.8,371.2,250.9,371.2,250.8,371.2L250.8,371.2
															C250.9,371.2,250.9,371.2,250.8,371.2c0.1-0.1,0.1-0.1,0.1-0.1c0,0,0,0,0,0c0,0,0,0,0,0s0,0,0,0c0,0,0,0,0,0
															c0,0,0,0,0,0s0,0,0,0c0,0,0,0,0,0s0,0,0,0c0,0,0,0,0,0c0,0,0,0,0,0s0,0,0,0c0,0,0,0,0,0c0,0,0.1,0,0.1,0c0,0,0,0,0,0
															s0,0,0,0c0,0,0,0,0,0c0,0,0.1,0,0.2,0c0,0,0-0.1,0-0.1c-0.1-0.1-0.2-0.2-0.4-0.2s-0.3,0.1-0.4,0.2c0,0-0.1,0.1,0,0.1
															C250.7,371.2,250.8,371.2,250.8,371.2L250.8,371.2z"/>
													</g>
													<g>
														<path class="st54" d="M250.6,370.3c0.1-0.1,0.3-0.1,0.4-0.1s0.3,0.1,0.4,0.1c0.1,0.1,0.2-0.1,0.1-0.2
															c-0.2-0.1-0.4-0.2-0.6-0.2c-0.2,0-0.4,0.1-0.6,0.2C250.4,370.2,250.5,370.4,250.6,370.3L250.6,370.3z"/>
													</g>
												</g>
											</g>
											<g>
												<path class="st13" d="M253.5,373.1c0,0.3-0.5,0.8-1.1,0.8c-0.6,0-1.1-0.5-1.1-0.8s0.5,0,1.1,0
													C253,373.1,253.5,372.8,253.5,373.1z"/>
												<g>
													<path class="st44" d="M252.3,372.4c-0.1,0-0.1,0-0.2-0.1c0,0-0.1-0.1-0.1-0.1c-0.1-0.2,0-0.4,0.1-0.5l0.1,0.1
														c-0.1,0.1-0.1,0.2-0.1,0.3c0,0,0,0,0,0.1c0.1,0,0.1,0,0.2,0l0,0.1C252.4,372.4,252.4,372.4,252.3,372.4z"/>
												</g>
											</g>
										</g>
									</g>
								</g>
								<g>
									<g>
										<path class="st13" d="M297.7,367.8h-32c-0.5,0-0.9-0.4-0.9-0.8s0.4-0.8,0.9-0.8h32c0.5,0,0.9,0.4,0.9,0.8
											S298.2,367.8,297.7,367.8z"/>
									</g>
									<g>
										<path class="st13" d="M283.5,371.3h-18.3c-0.5,0-0.9-0.4-0.9-0.8s0.4-0.8,0.9-0.8h18.3c0.5,0,0.9,0.4,0.9,0.8
											S283.9,371.3,283.5,371.3z"/>
									</g>
								</g>
								<g>
									<g>
										<path class="st13" d="M244.4,394.1h32c0.5,0,0.9-0.4,0.9-0.8s-0.4-0.8-0.9-0.8h-32c-0.5,0-0.9,0.4-0.9,0.8
											S243.9,394.1,244.4,394.1z"/>
									</g>
									<g>
										<path class="st13" d="M258.6,397.6h18.3c0.5,0,0.9-0.4,0.9-0.8s-0.4-0.8-0.9-0.8h-18.3c-0.5,0-0.9,0.4-0.9,0.8
											C257.8,397.2,258.1,397.6,258.6,397.6z"/>
									</g>
								</g>
							</g>
						</g>
						<g>
							<g>
								<ellipse class="st82" cx="324.1" cy="278.3" rx="1.9" ry="1.8"/>
								<path class="st83" d="M331.5,278.3c0,1-0.8,1.8-1.9,1.8c-1,0-1.9-0.8-1.9-1.8s0.8-1.8,1.9-1.8
									C330.6,276.5,331.5,277.3,331.5,278.3z"/>
								<path class="st84" d="M337,278.3c0,1-0.8,1.8-1.9,1.8c-1,0-1.9-0.8-1.9-1.8s0.8-1.8,1.9-1.8
									C336.2,276.5,337,277.3,337,278.3z"/>
							</g>
							<g>
								<path class="st82" d="M325.9,379.8c0,1-0.8,1.8-1.9,1.8c-1,0-1.9-0.8-1.9-1.8c0-1,0.8-1.8,1.9-1.8
									C325.1,378,325.9,378.8,325.9,379.8z"/>
								<path class="st83" d="M331.5,379.8c0,1-0.8,1.8-1.9,1.8c-1,0-1.9-0.8-1.9-1.8c0-1,0.8-1.8,1.9-1.8S331.5,378.8,331.5,379.8z
									"/>
								<path class="st84" d="M337,379.8c0,1-0.8,1.8-1.9,1.8c-1,0-1.9-0.8-1.9-1.8c0-1,0.8-1.8,1.9-1.8S337,378.8,337,379.8z"/>
							</g>
						</g>
						
							<linearGradient id="SVGID_79_" gradientUnits="userSpaceOnUse" x1="293.6613" y1="350.04" x2="311.0059" y2="350.04" gradientTransform="matrix(1 0 0 -1 0 722)">
							<stop  offset="0" style="stop-color:#FFFFFF"/>
							<stop  offset="0.1343" style="stop-color:#FBFBFB"/>
							<stop  offset="0.2609" style="stop-color:#F0F0F0"/>
							<stop  offset="0.3847" style="stop-color:#DDDDDD"/>
							<stop  offset="0.5066" style="stop-color:#C2C2C2"/>
							<stop  offset="0.6272" style="stop-color:#9F9F9F"/>
							<stop  offset="0.7469" style="stop-color:#757575"/>
							<stop  offset="0.8657" style="stop-color:#434343"/>
							<stop  offset="0.9812" style="stop-color:#0A0A0A"/>
							<stop  offset="1" style="stop-color:#000000"/>
						</linearGradient>
						<rect x="232.6" y="270.9" class="st85" width="76.3" height="202.1"/>
					</g>
				</g>
				<g>
					<g>
						<path class="st86" d="M300.9,409.3h-47.1c-3.8,0-6.8,3-6.8,6.8v12.1c-1.5,2-10.2,17.4-10.2,17.4l19.6-8.2h44.6
							c3.8,0,6.8-3,6.8-6.8v-14.6C307.7,412.3,304.7,409.3,300.9,409.3z"/>
					</g>
					<g class="st87">
						
							<linearGradient id="SVGID_80_" gradientUnits="userSpaceOnUse" x1="235.37" y1="295.2008" x2="316.7998" y2="295.2008" gradientTransform="matrix(1 0 0 -1 0 722)">
							<stop  offset="2.350000e-02" style="stop-color:#4EC2D6"/>
							<stop  offset="0.2588" style="stop-color:#7FD3E1"/>
							<stop  offset="0.6131" style="stop-color:#C4EBF1"/>
							<stop  offset="0.8696" style="stop-color:#EFF9FB"/>
							<stop  offset="1" style="stop-color:#FFFFFF"/>
						</linearGradient>
						<path class="st88" d="M309.7,411.7l-52.4-3.9c-4.2-0.3-7.8,2.7-8.1,6.8l-1,13.2c-1.9,2.1-12.8,18-12.8,18l22.5-7.3l49.6,3.7
							c4.2,0.3,7.8-2.7,8.1-6.8l1.2-15.8C317.1,415.6,313.9,412,309.7,411.7z"/>
					</g>
					<g>
						<g>
							<path class="st13" d="M298.3,419.1h-41.8c-0.7,0-1.3-0.6-1.3-1.3s0.6-1.3,1.3-1.3h41.8c0.7,0,1.3,0.6,1.3,1.3
								C299.6,418.5,299,419.1,298.3,419.1z"/>
						</g>
						<g>
							<path class="st13" d="M298.9,431.5h-30c-0.7,0-1.3-0.6-1.3-1.3s0.6-1.3,1.3-1.3h30c0.7,0,1.3,0.6,1.3,1.3
								S299.6,431.5,298.9,431.5z"/>
						</g>
						<g>
							<path class="st13" d="M277.1,425.6h-20c-0.7,0-1.3-0.6-1.3-1.3s0.6-1.3,1.3-1.3h20c0.7,0,1.3,0.6,1.3,1.3
								C278.5,425,277.9,425.6,277.1,425.6z"/>
						</g>
					</g>
				</g>
				<g>
					
						<linearGradient id="SVGID_81_" gradientUnits="userSpaceOnUse" x1="114.7305" y1="268.737" x2="171.4249" y2="268.737" gradientTransform="matrix(0.9952 -9.740000e-02 -9.740000e-02 -0.9952 100.0877 591.6132)">
						<stop  offset="0" style="stop-color:#FFFFFF"/>
						<stop  offset="0.1304" style="stop-color:#EFF9FB"/>
						<stop  offset="0.3869" style="stop-color:#C4EBF1"/>
						<stop  offset="0.7412" style="stop-color:#7FD3E1"/>
						<stop  offset="0.9765" style="stop-color:#4EC2D6"/>
					</linearGradient>
					<path class="st89" d="M236.4,308.9l-0.9-9.6c-0.3-3-3-5.2-5.9-4.9l-37.4,3.7c-3,0.3-5.2,3-4.9,6l1.1,11.6c0.3,3,3,5.2,5.9,4.9
						l35.4-3.5l16.2,5C245.9,321.9,237.8,310.4,236.4,308.9z"/>
					<g>
						<g>
							<g>
								<path class="st13" d="M195.2,291.3h37.6c3,0,5.4,2.4,5.4,5.4v9.7c1.2,1.6,8.2,13.9,8.2,13.9l-15.6-6.5h-35.6
									c-3,0-5.4-2.4-5.4-5.4v-11.6C189.7,293.7,192.2,291.3,195.2,291.3z"/>
							</g>
						</g>
						<g>
							<path class="st6" d="M207.9,300.6c1,0,1.8,0.8,1.8,1.8s-0.8,1.8-1.8,1.8s-1.8-0.8-1.8-1.8S206.9,300.6,207.9,300.6z"/>
							<path class="st6" d="M213.8,300.6c1,0,1.8,0.8,1.8,1.8s-0.8,1.8-1.8,1.8c-1,0-1.8-0.8-1.8-1.8S212.8,300.6,213.8,300.6z"/>
							<path class="st6" d="M219.8,300.6c1,0,1.8,0.8,1.8,1.8s-0.8,1.8-1.8,1.8s-1.8-0.8-1.8-1.8S218.7,300.6,219.8,300.6z"/>
						</g>
					</g>
				</g>
				<polygon class="st29" points="398.1,669.8 390,669.9 355.1,567.9 363.3,567.9 				"/>
				<polygon class="st29" points="98.4,669.8 106.5,669.9 141.4,567.9 133.2,567.9 				"/>
				<g>
					<g>
						<path class="st90" d="M140.9,510.4c0,0-43.2,49-43.2,77.8c0,44,117,35.5,117,35.5l-11.9-24.2c0,0-34.8-2.5-48.3-7.5
							c-13.5-5,22.2-56.9,22.2-56.9l-8.2-12.8L140.9,510.4z"/>
						<path class="st90" d="M253.4,510.4c0,0,43.2,49,43.2,77.8c0,44-116.9,35.5-116.9,35.5l11.9-24.2c0,0,34.8-2.5,48.3-7.5
							S217.7,535,217.7,535l8.2-12.8L253.4,510.4z"/>
						<path class="st91" d="M296.6,588.2c0-28.8-43.2-77.8-43.2-77.8l-1,0.4c16.8,20.9,34.5,48.6,31.6,69.9
							c-5.2,39.5-38,37.3-57.5,42.8c0,0,0,0,0,0C259.1,621.2,296.6,613.1,296.6,588.2z"/>
						<g>
							<path class="st29" d="M121.9,708.1h53.4c0.1-0.7,0.1-1.4,0.2-2c3.4-33.8,0.7-40-34.8-40.9c-21.1-0.6-20.9,29.7-19.3,39.8
								C121.6,706,121.8,707,121.9,708.1z"/>
							<path class="st92" d="M170.5,708.1c-4.2-5.1-7.8-9.1-9.1-9.6c-3.6-1.2-4.1-5.9-6.5-4.2L134,706.7c0,0,0.5,0.5,1.3,1.5H170.5z
								"/>
						</g>
						<g>
							<path class="st93" d="M211.8,708.1h53.4c0.1-1.1,0.3-2.2,0.4-3.2c1.6-10.1,1.8-40.4-19.3-39.8c-35.5,1-38.2,7.1-34.8,40.9
								C211.6,706.8,211.7,707.5,211.8,708.1z"/>
							<path class="st92" d="M251.7,708.1c0.8-0.9,1.3-1.5,1.3-1.5l-20.9-12.3c-2.4-1.8-3,3-6.5,4.2c-1.3,0.5-4.9,4.5-9.1,9.6H251.7
								z"/>
						</g>
						<path class="st29" d="M258.6,708.1c16-23.7-3.2-58.1-3.2-58.1H138.1c0,0-19.1,34.4-3.2,58.1H258.6z"/>
						<g class="st94">
							<path class="st29" d="M245.2,701c-0.5,2.8-1.6,5.2-3.1,7.1h16.5c16-23.7-3.2-58.1-3.2-58.1h-23.3L218,675.8
								C218,675.8,247.8,685.2,245.2,701z"/>
						</g>
						<path class="st95" d="M279.7,708.1c0.7-2.7,1.1-5.5,1.1-8.4c0-1.3-1-2.3-2.3-2.3H115.1c-1.3,0-2.3,1-2.3,2.3
							c0,2.9,0.4,5.7,1.1,8.4H279.7z"/>
						<path class="st96" d="M279.7,708.1c0.7-2.7,1.1-5.5,1.1-8.4c0-1.3-1-2.3-2.3-2.3h-12.5c-0.6,3.8-1.9,7.4-3.6,10.6H279.7z"/>
						<g>
							<g>
								<g>
									<g>
										<path class="st97" d="M183.5,455.5c-0.7,17.9-4.1,38.8-7.1,46.5c7,3.3,14,9.2,20.3,8.4c6.3,0.8,14.2-5.1,21.2-8.4
											c-2.9-7.7-6.3-28.6-7.1-46.5H183.5z"/>
									</g>
								</g>
								<path class="st98" d="M210.9,455.5h-1.5c-2,6.5-5.1,12.5-9.9,15.9c-6.1,16.5,6.5,21.9,7.4,22c0.3,0,3.5-1.7,7.8-4.3
									C212.9,479.4,211.4,466.8,210.9,455.5z"/>
								<g>
									<g>
										<g>
											<path class="st97" d="M165.1,444.8c0-5.4,2.3-9.9,5.3-11.1c3-14.6,13.6-25.4,26.2-25.4c12.7,0,23.3,10.9,26.3,25.5
												c2.9,1.4,4.9,5.8,4.9,11c0,6.1-2.9,11.1-6.6,11.4c-4.3,11.6-13.7,19.6-24.6,19.6c-10.9,0-20.3-8-24.6-19.6
												C168.2,456.3,165.1,451.1,165.1,444.8z"/>
											<path class="st98" d="M221.3,456.2c3.7-0.3,6.6-5.3,6.6-11.4c0-5.2-2.1-9.5-4.9-11c-1.1-5.6-3.4-10.7-6.5-14.8l-3.2,7.3
												c0,0,0.7,34.7-13.8,45c-0.6,1.6-1,3-1.2,4.4C208.5,475,217.2,467.2,221.3,456.2z"/>
											<path class="st99" d="M197.2,396.3c-32,0.3-28.5,32.1-28.5,32.1s-3.7,3.1,0.1,6.9c3.8,3.9,5.9,12.1,7,26.2
												c7.9,8.4,20.7,8,20.7,8s12.8,0.4,20.7-8c1.1-14.1,3.1-22.3,7-26.2c3.8-3.8,0.1-6.9,0.1-6.9s9.6-18.3-7.8-19.3
												C211,399.4,203,396.2,197.2,396.3z"/>
											<g class="st47">
												<path class="st99" d="M168.7,428.4c0.9-8.7,4.5-17.6,11.5-23.3c7.2-5.6,16.9-6.4,25.5-4.9c-8.6-1.1-18.1,0.1-24.8,5.8
													C173.9,411.1,170,419.7,168.7,428.4z"/>
											</g>
											<g class="st47">
												<path class="st99" d="M170.6,437.1c0.3-9.4,3-19.3,9.7-26.4c6.9-7.1,17.4-8.8,26.7-7.9c-9.4-0.6-19.6,1.6-25.9,8.7
													C174.4,418,171.2,427.7,170.6,437.1z"/>
											</g>
											<path class="st100" d="M216.6,409c-3.6-6.3-8.3-9.8-12.8-11.5c4,5.2,6,11.1,3.5,17.3c10.7,9.8,10.4,41.8-7.7,54.5
												c4.3-0.4,12.2-2,17.7-7.8c1.1-14.1,3.1-22.3,7-26.2c3.8-3.8,0.1-6.9,0.1-6.9S234,410,216.6,409z"/>
										</g>
									</g>
								</g>
								<ellipse class="st101" cx="196.8" cy="497.3" rx="29.7" ry="24.9"/>
								<ellipse class="st102" cx="196.8" cy="504.5" rx="29.7" ry="24.9"/>
								<path class="st90" d="M258.6,626.9c-0.8-55.2,3.9-94.1,1.1-105.5c-6.5-17-20.6-25.5-52.1-37.9c0,0,0,0.1,0,0.1
									c-3.3-1.1-7-1.7-10.8-1.7c-6.1,0-11.7,1.5-16.4,4.1c-27,11.1-39.6,19.5-45.7,35.3c-2.7,11.1-1.7,53.1-2,105.5
									c-0.1,17.8-8.5,33.4-4.8,39.9c8.9,15.5,62,18.2,69.5,18.2c8.4,0,55.3-1.9,68.9-18.2C268.1,656.7,258.8,643.6,258.6,626.9z"
									/>
								<g class="st47">
									<path class="st103" d="M245.6,502.6c4.2,4.9,8.7,10.4,13,16.2C255.7,512.5,251.6,507.3,245.6,502.6z"/>
									<path class="st104" d="M258.6,626.9c0-3.8-0.1-7.5-0.1-11.1c-10.8,4.3-22.8,5.2-31.9,7.7c-12.6,3.5,2.8,46.1,18.4,55
										c9.7-2.5,20.2-9.2,21.3-11.8c0.3-0.8,0.4-1.8,0.3-3.2C266.2,654,258.8,641.8,258.6,626.9z"/>
								</g>
								<g class="st53">
									<path class="st105" d="M231.5,678.8L231.5,678.8L231.5,678.8z"/>
								</g>
								<path class="st106" d="M214.7,480"/>
							</g>
						</g>
						<path class="st107" d="M230.8,671.4c-15.8,4.8-52.1,4.8-67.9,0c-13.8-4.2-28.5-20.4-32.9-31.1c-8.6-20.8-10.4-88.6-10.4-88.6
							c0-15.6,14.1-29.1,34-32.4l0,0c28.5-4.8,58-4.8,86.5,0l0,0c19.8,3.3,34,16.8,34,32.4c0,0-1.9,67.8-10.4,88.6
							C259.2,651,244.6,667.2,230.8,671.4z"/>
						<path class="st108" d="M227.9,677.9c-14.4,4.8-47.7,4.8-62.1,0c-12.6-4.2-26-20.4-30-31.1c-7.8-20.8-9.5-88.6-9.5-88.6
							c0-15.6,12.9-29.1,31.1-32.4l0,0c26-4.8,53-4.8,79,0l0,0c18.1,3.3,31.1,16.8,31.1,32.4c0,0-1.7,67.8-9.5,88.6
							C253.9,657.5,240.4,673.7,227.9,677.9z"/>
						<path class="st109" d="M236.3,525.8L236.3,525.8c-6.5-1.2-13-2.1-19.5-2.7c8.7,3.3,14.6,7.9,12.5,14.3
							c14.8,13,27.6,29.3,37.2,40.8c0.6-11.7,0.8-20.1,0.8-20.1C267.4,542.6,254.5,529.2,236.3,525.8z"/>
						<path class="st95" d="M227.9,690.7c-14.4,4.8-47.7,4.8-62.1,0c-12.6-4.2-26-20.4-30-31.1c-7.8-20.8-9.5-88.6-9.5-88.6
							c0-15.6,12.9-29.1,31.1-32.4l0,0c26-4.8,53-4.8,79,0l0,0c18.1,3.3,31.1,16.8,31.1,32.4c0,0-1.7,67.8-9.5,88.6
							C253.9,670.3,240.4,686.5,227.9,690.7z"/>
						<path class="st96" d="M236.3,538.6L236.3,538.6c-2.3-0.4-4.6-0.8-7-1.2c8.2,16.2,13.9,38.9,12.8,70.6
							c-2.1,56.2-36.7,79.6-73.1,83.6c15.7,3.8,45.4,3.5,58.8-0.9c12.6-4.2,26-20.4,30-31.1c7.8-20.8,9.5-88.6,9.5-88.6
							C267.4,555.4,254.5,541.9,236.3,538.6z"/>
						<path class="st99" d="M202.7,708.1V601.3c0-3.3-2.6-5.9-5.9-5.9c-3.3,0-5.9,2.7-5.9,5.9v106.9H202.7z"/>
						<path class="st92" d="M202.7,708.1V598c0-1.5-1.2-2.7-2.7-2.7c-1.5,0-2.7,1.2-2.7,2.7v110.1H202.7z"/>
					</g>
					<path class="st103" d="M255.3,665.1"/>
				</g>
			</g>
		</g>
		<g>
			<defs>
				<rect id="SVGID_82_" x="1.3" width="682.7" height="720"/>
			</defs>
			<clipPath id="SVGID_83_">
				<use xlink:href="#SVGID_82_"  style="overflow:visible;"/>
			</clipPath>
			<g class="st110">
				<rect x="5.3" y="666.3" class="st111" width="654.7" height="47.2"/>
				<g>
					<g>
						<rect x="85.2" y="665" class="st38" width="256.7" height="2.6"/>
					</g>
					<g>
						<rect x="358.2" y="665" class="st38" width="23.7" height="2.6"/>
					</g>
				</g>
				<g>
					<g>
						<rect x="501.3" y="665" class="st38" width="126.3" height="2.6"/>
					</g>
				</g>
			</g>
		</g>
	</g>
</g>
</svg>
