<svg xmlns="http://www.w3.org/2000/svg" xmlns:xlink="http://www.w3.org/1999/xlink" viewBox="0 0 195.28 199.32"><defs><style>.cls-1{mask:url(#mask);}.cls-100,.cls-102,.cls-103,.cls-105,.cls-106,.cls-2,.cls-3,.cls-32,.cls-35,.cls-37,.cls-41,.cls-43,.cls-49,.cls-5,.cls-50,.cls-53,.cls-6,.cls-61,.cls-63,.cls-64,.cls-65,.cls-68,.cls-77,.cls-8,.cls-83,.cls-85,.cls-87,.cls-89,.cls-90,.cls-92,.cls-96,.cls-98{mix-blend-mode:multiply;}.cls-2{fill:url(#linear-gradient);}.cls-3{fill:url(#linear-gradient-2);}.cls-4{mask:url(#mask-3);}.cls-5{fill:url(#linear-gradient-3);}.cls-6{fill:url(#linear-gradient-4);}.cls-7{mask:url(#mask-5);}.cls-8{fill:url(#linear-gradient-5);}.cls-9{fill:none;}.cls-10,.cls-13,.cls-14{fill:#4ec2d6;}.cls-11{isolation:isolate;}.cls-12{fill:#e3f6f8;}.cls-13{opacity:0.18;}.cls-14,.cls-15{opacity:0.21;}.cls-16{opacity:0.06;}.cls-17{opacity:0.27;}.cls-18{mask:url(#mask-6);}.cls-111,.cls-19,.cls-20,.cls-22,.cls-23,.cls-54{mix-blend-mode:overlay;}.cls-19{fill:url(#linear-gradient-6);}.cls-111,.cls-20,.cls-23{opacity:0.68;}.cls-20{fill:url(#linear-gradient-7);}.cls-21{mask:url(#mask-8);}.cls-22{fill:url(#linear-gradient-8);}.cls-23{fill:url(#linear-gradient-9);}.cls-24,.cls-39{fill:#fff;}.cls-25{fill:#597aff;}.cls-26{fill:#0a0063;}.cls-27{fill:#d7d3d2;}.cls-100,.cls-101,.cls-27,.cls-41,.cls-43,.cls-53,.cls-89,.cls-96,.cls-98{opacity:0.5;}.cls-28{fill:#f4f4f4;}.cls-29{fill:#3a3c6c;}.cls-30,.cls-31{fill:#b8e6f1;}.cls-31{opacity:0.37;mix-blend-mode:screen;}.cls-32,.cls-87{opacity:0.38;}.cls-32{fill:url(#linear-gradient-10);}.cls-33{opacity:0.41;}.cls-34{fill:#2c9eb1;}.cls-35{opacity:0.47;}.cls-36{clip-path:url(#clip-path);}.cls-37,.cls-63{opacity:0.4;}.cls-38{fill:#b0e6f2;}.cls-39{opacity:0.2;}.cls-40,.cls-41{fill:#f8a5a5;}.cls-42,.cls-53,.cls-65{fill:#0c706e;}.cls-44{fill:#fed45e;}.cls-45{fill:#c4594f;}.cls-46{fill:#b54d48;}.cls-47{fill:#14318a;}.cls-48,.cls-61{fill:#041b51;}.cls-104,.cls-106,.cls-50,.cls-64,.cls-65,.cls-68{opacity:0.3;}.cls-51{fill:#472c1e;}.cls-52{fill:#0a1a50;}.cls-54{opacity:0.16;}.cls-55{fill:#eef7ff;}.cls-56{clip-path:url(#clip-path-2);}.cls-57{fill:#e3e9ff;}.cls-58,.cls-64{fill:#463635;}.cls-59{fill:#3cc5c0;}.cls-60{fill:#e84c65;}.cls-62,.cls-63{fill:#7bb791;}.cls-66{fill:#aee6f3;}.cls-67{fill:#e72540;}.cls-68{fill:#ae312d;}.cls-69{fill:#dd263d;}.cls-70{fill:#b7e7f0;}.cls-71{clip-path:url(#clip-path-3);}.cls-72{fill:#004eb0;}.cls-73{fill:#004c9e;}.cls-74{clip-path:url(#clip-path-4);}.cls-75{fill:#ffb902;}.cls-76{opacity:0.44;}.cls-77{fill:#efa500;}.cls-78{clip-path:url(#clip-path-5);}.cls-79{clip-path:url(#clip-path-6);}.cls-80{fill:#f43838;}.cls-81{fill:#ffa045;}.cls-82{fill:#8dc63d;}.cls-83{opacity:0.12;fill:url(#linear-gradient-11);}.cls-84{fill:#2d99a9;}.cls-85{opacity:0.61;}.cls-86{fill:url(#linear-gradient-12);}.cls-87{fill:url(#linear-gradient-13);}.cls-88{fill:#6aeaf4;}.cls-103,.cls-106,.cls-89{fill:#47c2db;}.cls-90,.cls-91{fill:#1a1a1a;}.cls-90,.cls-92{opacity:0.6;}.cls-93{fill:#ea4e67;}.cls-108,.cls-94{fill:#d83d5b;}.cls-95,.cls-96{fill:#fe9e88;}.cls-97,.cls-98{fill:#232323;}.cls-99{fill:#fffffe;}.cls-100{fill:#e6eced;}.cls-102,.cls-109{fill:#ffae42;}.cls-105{fill:#274782;}.cls-107{fill:#f4627d;}.cls-108{opacity:0.49;}.cls-110{mask:url(#mask-10);}.cls-111{fill:url(#linear-gradient-14);}.cls-112{fill:#e8f8f9;}.cls-113{fill:#266eb1;}.cls-114{filter:url(#luminosity-noclip-10);}.cls-115{filter:url(#luminosity-noclip-8);}.cls-116{filter:url(#luminosity-noclip-6);}.cls-117{filter:url(#luminosity-noclip-5);}.cls-118{filter:url(#luminosity-noclip-3);}.cls-119{filter:url(#luminosity-noclip);}</style><filter id="luminosity-noclip" x="156.75" y="-8319.32" width="23.84" height="32766" filterUnits="userSpaceOnUse" color-interpolation-filters="sRGB"><feFlood flood-color="#fff" result="bg"/><feBlend in="SourceGraphic" in2="bg"/></filter><mask id="mask" x="156.75" y="-8319.32" width="23.84" height="32766" maskUnits="userSpaceOnUse"><g class="cls-119"/></mask><linearGradient id="linear-gradient" x1="168.68" y1="80.7" x2="168.68" y2="98.04" gradientUnits="userSpaceOnUse"><stop offset="0.01" stop-color="#fff"/><stop offset="0.11" stop-color="#dfdfdf"/><stop offset="0.44" stop-color="#818181"/><stop offset="0.71" stop-color="#3b3b3b"/><stop offset="0.9" stop-color="#101010"/><stop offset="1"/></linearGradient><linearGradient id="linear-gradient-2" x1="168.68" y1="80.7" x2="168.68" y2="98.04" gradientUnits="userSpaceOnUse"><stop offset="0" stop-color="#fff"/><stop offset="0.11" stop-color="#dfdfdf"/><stop offset="0.44" stop-color="#818181"/><stop offset="0.71" stop-color="#3b3b3b"/><stop offset="0.9" stop-color="#101010"/><stop offset="1"/></linearGradient><filter id="luminosity-noclip-3" x="13.78" y="-8319.32" width="33.24" height="32766" filterUnits="userSpaceOnUse" color-interpolation-filters="sRGB"><feFlood flood-color="#fff" result="bg"/><feBlend in="SourceGraphic" in2="bg"/></filter><mask id="mask-3" x="13.78" y="-8319.32" width="33.24" height="32766" maskUnits="userSpaceOnUse"><g class="cls-118"/></mask><linearGradient id="linear-gradient-3" x1="30.4" y1="83.4" x2="30.4" y2="107.57" xlink:href="#linear-gradient"/><linearGradient id="linear-gradient-4" x1="30.4" y1="83.4" x2="30.4" y2="107.57" xlink:href="#linear-gradient-2"/><filter id="luminosity-noclip-5" x="28.27" y="-8319.32" width="30.88" height="32766" filterUnits="userSpaceOnUse" color-interpolation-filters="sRGB"><feFlood flood-color="#fff" result="bg"/><feBlend in="SourceGraphic" in2="bg"/></filter><mask id="mask-5" x="28.27" y="-8319.32" width="30.88" height="32766" maskUnits="userSpaceOnUse"><g class="cls-117"/></mask><linearGradient id="linear-gradient-5" x1="24.39" y1="119.37" x2="66.33" y2="182.78" xlink:href="#linear-gradient-2"/><filter id="luminosity-noclip-6" x="156.75" y="77.15" width="23.84" height="15.22" filterUnits="userSpaceOnUse" color-interpolation-filters="sRGB"><feFlood flood-color="#fff" result="bg"/><feBlend in="SourceGraphic" in2="bg"/></filter><mask id="mask-6" x="160.01" y="77.15" width="23.84" height="15.22" maskUnits="userSpaceOnUse"><g class="cls-116"><g transform="translate(3.26)"><g class="cls-1"><path class="cls-2" d="M164.67,77.16h7.76l8.17,15.22H156.75S164.67,76.9,164.67,77.16Z"/></g></g></g></mask><linearGradient id="linear-gradient-6" x1="168.68" y1="80.7" x2="168.68" y2="98.04" gradientUnits="userSpaceOnUse"><stop offset="0.01" stop-color="#ebff00"/><stop offset="0.28" stop-color="#cdd23c"/><stop offset="0.63" stop-color="#aa9f81"/><stop offset="0.87" stop-color="#947eac"/><stop offset="1" stop-color="#8c72bc"/></linearGradient><linearGradient id="linear-gradient-7" x1="168.68" y1="80.7" x2="168.68" y2="98.04" gradientUnits="userSpaceOnUse"><stop offset="0" stop-color="#fff"/><stop offset="0.08" stop-color="#f4f2f9"/><stop offset="0.52" stop-color="#bcadd8"/><stop offset="0.84" stop-color="#9982c4"/><stop offset="1" stop-color="#8c72bc"/></linearGradient><filter id="luminosity-noclip-8" x="13.78" y="78.45" width="33.24" height="21.22" filterUnits="userSpaceOnUse" color-interpolation-filters="sRGB"><feFlood flood-color="#fff" result="bg"/><feBlend in="SourceGraphic" in2="bg"/></filter><mask id="mask-8" x="17.04" y="78.45" width="33.24" height="21.22" maskUnits="userSpaceOnUse"><g class="cls-115"><g transform="translate(3.26)"><g class="cls-4"><path class="cls-5" d="M24.82,78.46H35.63L47,99.67H13.78S24.82,78.1,24.82,78.46Z"/></g></g></g></mask><linearGradient id="linear-gradient-8" x1="30.4" y1="83.4" x2="30.4" y2="107.57" xlink:href="#linear-gradient-6"/><linearGradient id="linear-gradient-9" x1="30.4" y1="83.4" x2="30.4" y2="107.57" xlink:href="#linear-gradient-7"/><linearGradient id="linear-gradient-10" x1="102.05" y1="107.25" x2="102.05" y2="143" gradientUnits="userSpaceOnUse"><stop offset="0.02" stop-color="#4ec2d6"/><stop offset="0.26" stop-color="#7fd3e1"/><stop offset="0.61" stop-color="#c4ebf1"/><stop offset="0.87" stop-color="#eff9fb"/><stop offset="1" stop-color="#fff"/></linearGradient><clipPath id="clip-path" transform="translate(3.26)"><path class="cls-9" d="M129.81,69.51H93.43a3.19,3.19,0,0,0-3.23,3.14V99.16h39.61Z"/></clipPath><clipPath id="clip-path-2" transform="translate(3.26)"><path class="cls-9" d="M129.81,128.81V102.3c0-1.74-5-3.14-6.81-3.14H90.2v29.65Z"/></clipPath><clipPath id="clip-path-3" transform="translate(3.26)"><path class="cls-10" d="M87.56,90.47A2.76,2.76,0,1,1,84.8,87.8,2.72,2.72,0,0,1,87.56,90.47Z"/></clipPath><clipPath id="clip-path-4" transform="translate(3.26)"><path class="cls-10" d="M76.41,83.32a2.76,2.76,0,1,1-2.76-2.68A2.71,2.71,0,0,1,76.41,83.32Z"/></clipPath><clipPath id="clip-path-5" transform="translate(3.26)"><ellipse class="cls-10" cx="84.8" cy="106.24" rx="2.76" ry="2.68"/></clipPath><clipPath id="clip-path-6" transform="translate(3.26)"><ellipse class="cls-10" cx="73.65" cy="99.08" rx="2.76" ry="2.68"/></clipPath><linearGradient id="linear-gradient-11" x1="89" y1="99.16" x2="94.09" y2="99.16" gradientUnits="userSpaceOnUse"><stop offset="0" stop-color="#fff"/><stop offset="0.13" stop-color="#fbfbfb"/><stop offset="0.26" stop-color="#f0f0f0"/><stop offset="0.38" stop-color="#ddd"/><stop offset="0.51" stop-color="#c2c2c2"/><stop offset="0.63" stop-color="#9f9f9f"/><stop offset="0.75" stop-color="#757575"/><stop offset="0.87" stop-color="#434343"/><stop offset="0.98" stop-color="#0a0a0a"/><stop offset="1"/></linearGradient><linearGradient id="linear-gradient-12" x1="68.64" y1="115.24" x2="92.53" y2="115.24" xlink:href="#linear-gradient-10"/><linearGradient id="linear-gradient-13" x1="1.08" y1="173.84" x2="17.71" y2="173.84" gradientTransform="translate(36.77 -91.04) rotate(-5.59)" gradientUnits="userSpaceOnUse"><stop offset="0" stop-color="#fff"/><stop offset="0.13" stop-color="#eff9fb"/><stop offset="0.39" stop-color="#c4ebf1"/><stop offset="0.74" stop-color="#7fd3e1"/><stop offset="0.98" stop-color="#4ec2d6"/></linearGradient><filter id="luminosity-noclip-10" x="28.27" y="106.29" width="30.88" height="91.48" filterUnits="userSpaceOnUse" color-interpolation-filters="sRGB"><feFlood flood-color="#fff" result="bg"/><feBlend in="SourceGraphic" in2="bg"/></filter><mask id="mask-10" x="31.53" y="106.29" width="30.88" height="91.48" maskUnits="userSpaceOnUse"><g class="cls-114"><g transform="translate(3.26)"><g class="cls-7"><path class="cls-8" d="M37.68,194.64h1.67c-.07-2.73.4-6.53,2.56-8.38a3.5,3.5,0,0,1-.48-.63c-.75-1.32.21-3.94.87-7.16q-.15-.32-.27-.6a33,33,0,0,1-1.61-7.18c-4.55-1.58-7.86-4.1-7.86-8.1,0-8.44,12.67-22.83,12.67-22.83h0c1.68-2.12,4.18-3.78,7.93-5.54a7.57,7.57,0,0,1,4-4.56c.07-.51.13-1,.18-1.55a9.67,9.67,0,0,1-3-4.22c-1.13,0-2.05-1.51-2.05-3.36a4.05,4.05,0,0,1,1-2.9,1.28,1.28,0,0,1,0-1.93s-.82-7.49,5.77-9.11a5.17,5.17,0,0,0-1.7-.3c-9.39.08-8.37,9.41-8.37,9.41a1.28,1.28,0,0,0,0,1.93,4.09,4.09,0,0,0-1,2.9c0,1.85.91,3.35,2.05,3.36a9.51,9.51,0,0,0,3,4.22c-.06.52-.11,1-.18,1.55a7.57,7.57,0,0,0-4,4.56c-3.75,1.76-6.26,3.42-7.93,5.54h0s-12.67,14.39-12.67,22.83c0,4,3.3,6.52,7.86,8.1a33,33,0,0,0,1.61,7.18q.12.28.27.6c-.66,3.22-1.62,5.84-.87,7.16a3.44,3.44,0,0,0,.47.63c-2.15,1.85-2.62,5.65-2.56,8.38H33.38a.67.67,0,0,0-.67.67,9.85,9.85,0,0,0,.31,2.45h4.3a9.4,9.4,0,0,1-.31-2.45A.67.67,0,0,1,37.68,194.64Z"/></g></g></g></mask><linearGradient id="linear-gradient-14" x1="24.39" y1="119.37" x2="66.33" y2="182.78" xlink:href="#linear-gradient-7"/></defs><g class="cls-11"><g id="BG"><rect class="cls-12" x="3.26" width="192.02" height="199.32"/></g><g id="Object"><path class="cls-13" d="M171.4,77.88c-1.16,0-2.32,0-3.48,0a.19.19,0,0,0,0-.07v-3h3.45a.38.38,0,0,0,0-.75H155.18a.38.38,0,0,0,0,.75h5.12v3a.34.34,0,0,0,0,.18h-.29c-.87,0-1.74,0-2.6.1-.49,0-.49.78,0,.75,2.05-.11,4.11-.16,6.17-.18,0,0,0,0,0,0v3.2q-3.53,0-7.05.11c-.87,0-1.73.05-2.6.1-.48,0-.49.78,0,.75,3.77-.21,7.56-.2,11.34-.21h2.61a.38.38,0,0,0,0-.75c-1.18,0-2.37,0-3.55,0v-3.2s0,0,0,0l4.44,0h2.61A.38.38,0,0,0,171.4,77.88Zm-10.35-.08v-3h6.13v3a.14.14,0,0,0,0,.07q-3.09,0-6.18.09A.38.38,0,0,0,161.05,77.8Z" transform="translate(3.26)"/><path class="cls-14" d="M39.73,99.68c-1.16,0-2.32,0-3.48,0a.14.14,0,0,0,0-.06v-3h3.46a.38.38,0,0,0,0-.75H23.51a.38.38,0,0,0,0,.75h5.12v3a.43.43,0,0,0,0,.17h-.29c-.87,0-1.74,0-2.6.1-.48,0-.49.78,0,.75,2-.12,4.11-.17,6.17-.19,0,0,0,0,0,0v3.2c-2.35,0-4.7,0-7,.12-.86,0-1.73,0-2.6.1-.48,0-.48.78,0,.75,3.77-.21,7.57-.21,11.34-.21h2.61a.38.38,0,0,0,0-.75c-1.18,0-2.36,0-3.55,0v-3.2a.08.08,0,0,0,0,0h7A.38.38,0,0,0,39.73,99.68ZM29.38,99.6v-3h6.13v3a.14.14,0,0,0,0,.06q-3.09,0-6.18.09A.33.33,0,0,0,29.38,99.6Z" transform="translate(3.26)"/><path class="cls-14" d="M15,127.77c-1.36,0-2.71,0-4.06,0,0,0,0,0,0-.07v-3.54H15a.44.44,0,0,0,0-.88H0v.88H2v3.54a.42.42,0,0,0,.05.2H1.72c-.58,0-1.15,0-1.72.06v.88q2.94-.14,5.89-.17s0,0,0,0v3.75c-2,0-3.92.05-5.88.09v.85c2.62,0,5.24-.06,7.86-.06,1,0,2,0,3.05,0a.44.44,0,0,0,0-.88c-1.38,0-2.77,0-4.15,0V128.7s0,0,0,0h5.19c1,0,2,0,3.05,0A.44.44,0,0,0,15,127.77Zm-12.14.09a.48.48,0,0,0,0-.18v-3.54h7.17v3.54a.14.14,0,0,0,0,.07Q6.47,127.77,2.85,127.86Z" transform="translate(3.26)"/><path class="cls-14" d="M192,134h-2.47v-3.75s0,0,0,0H192v-.88q-3.2,0-6.39.1a.41.41,0,0,0,0-.19v-3.53H192v-.88H178.81a.44.44,0,0,0,0,.88h6v3.53a.46.46,0,0,0,.05.21h-.34c-1,0-2,.06-3,.12-.57,0-.57.91,0,.88,2.4-.14,4.8-.19,7.21-.22V134c-2.75,0-5.5.06-8.25.13-1,0-2,.06-3,.12-.57,0-.57.91,0,.88,4.41-.25,8.85-.24,13.26-.25H192Z" transform="translate(3.26)"/><g class="cls-15"><rect class="cls-10" x="158.1" y="104.76" width="7.19" height="3.03"/><rect class="cls-10" x="149.17" y="98.55" width="11.19" height="4.79"/></g><g class="cls-16"><rect class="cls-10" x="8.93" y="111.8" width="7.19" height="3.03"/><rect class="cls-10" y="105.59" width="11.19" height="4.79"/></g><g class="cls-16"><rect class="cls-10" x="156.78" y="138" width="7.19" height="3.03"/><rect class="cls-10" x="147.85" y="131.8" width="11.19" height="4.79"/></g><g class="cls-17"><rect class="cls-10" x="18.07" y="58.95" width="8.13" height="3.43"/><rect class="cls-10" x="7.97" y="51.92" width="12.65" height="5.42"/></g><g class="cls-18"><path class="cls-19" d="M164.67,77.16h7.76l8.17,15.22H156.75S164.67,76.9,164.67,77.16Z" transform="translate(3.26)"/></g><path class="cls-10" d="M166.9,70.81h3.55l2.64,5.49a.6.6,0,0,1-.54.86H164.8a.6.6,0,0,1-.54-.86Z" transform="translate(3.26)"/><rect class="cls-10" x="171.68" y="55.32" width="0.51" height="13.72"/><rect class="cls-10" x="171.68" y="42.63" width="0.51" height="13.72"/><path class="cls-10" d="M170.45,71.07H166.9v-2.7A1.36,1.36,0,0,1,168.26,67h.83a1.36,1.36,0,0,1,1.36,1.36Z" transform="translate(3.26)"/><g class="cls-18"><path class="cls-20" d="M164.67,77.16h7.76l8.17,15.22H156.75S164.67,76.9,164.67,77.16Z" transform="translate(3.26)"/></g><g class="cls-21"><path class="cls-22" d="M24.82,78.46H35.63L47,99.67H13.78S24.82,78.1,24.82,78.46Z" transform="translate(3.26)"/></g><path class="cls-10" d="M27.93,69.62h5l3.67,7.65a.83.83,0,0,1-.75,1.19H25a.83.83,0,0,1-.75-1.19Z" transform="translate(3.26)"/><rect class="cls-10" x="33.31" y="48.02" width="0.71" height="19.12"/><rect class="cls-10" x="33.31" y="39.32" width="0.71" height="19.12"/><path class="cls-10" d="M32.88,70h-5V66.21a1.9,1.9,0,0,1,1.89-1.9H31a1.9,1.9,0,0,1,1.9,1.9Z" transform="translate(3.26)"/><g class="cls-21"><path class="cls-23" d="M24.82,78.46H35.63L47,99.67H13.78S24.82,78.1,24.82,78.46Z" transform="translate(3.26)"/></g><path class="cls-10" d="M153.68,186.78a12.66,12.66,0,0,0,3.91-5.76c.5-1.52.75-3.2,1.82-4.39s3-1.73,3.84-3.14c1.08-1.69.35-4,.89-5.88.7-2.52,3.33-3.93,4.9-6a7.9,7.9,0,0,0-.75-10.11c-2.36-2.22-7-2.66-9.39-.23-1.06,1.06-1.37,2.39-2.84,3.07s-3.11.6-4.56,1.21a7.22,7.22,0,0,0-3.57,3.71c-.72,1.54-.68,4-1.85,5.21s-3.16,1-4.55,1.67a4.94,4.94,0,0,0-2.58,2.94c-.78,2.48.93,4.95.09,7.36-.62,1.81-2.57,2.77-3.77,4.26-1.47,1.81-1.45,4-1,6.11Z" transform="translate(3.26)"/><path class="cls-24" d="M140.92,186.78a129.64,129.64,0,0,1,8.56-14.28A81.51,81.51,0,0,1,163.91,157c.3-.25-.13-.66-.42-.42a81.91,81.91,0,0,0-14.32,15.32,127.7,127.7,0,0,0-8.93,14.86Z" transform="translate(3.26)"/><path class="cls-25" d="M187.35,168.9c-1.46-2.89-5.67-4.86-8.76-3.39-1.35.64-2.09,1.79-3.71,1.94s-3.12-.49-4.7-.41a7.26,7.26,0,0,0-4.61,2.29c-1.2,1.21-2,3.58-3.5,4.28s-3.32-.1-4.85,0a4.93,4.93,0,0,0-3.41,1.9c-1.58,2.07-.8,5-2.4,7-1.21,1.49-3.36,1.73-5,2.73a5.52,5.52,0,0,0-1.64,1.54h31.37c.72-1.25,1-2.87,1.85-4.09,1.51-2.14,4.46-2.58,6.65-4A7.89,7.89,0,0,0,187.35,168.9Z" transform="translate(3.26)"/><path class="cls-24" d="M181.11,172.11a81.67,81.67,0,0,0-18.65,9.59c-2.31,1.59-4.52,3.3-6.67,5.08h.93c1.89-1.54,3.83-3,5.83-4.43a81.56,81.56,0,0,1,18.81-9.7C181.72,172.52,181.46,172,181.11,172.11Z" transform="translate(3.26)"/><path class="cls-25" d="M22.32,190.46c-.66-1.8-2.19-3.33-2.21-5.25,0-2.55,2.4-4.33,2.46-6.94a4.87,4.87,0,0,0-1.49-3.61c-1.11-1.06-3-1.61-3.77-3s.12-3.83-.07-5.53a7.17,7.17,0,0,0-2.18-4.66c-1.18-1-2.78-1.52-3.92-2.61s-1-2.48-1.7-3.83c-1.5-3.07-6-4.15-9-2.8-.16.07-.31.16-.47.24V177.6a6.47,6.47,0,0,1,.77,1.25c.62,1.47.32,3.15.3,4.74a12.76,12.76,0,0,0,1.84,6.72l18.37,6.26C22.4,194.7,23.12,192.65,22.32,190.46Z" transform="translate(3.26)"/><path class="cls-24" d="M15,194.42a129.09,129.09,0,0,0-3.5-16.27,81.31,81.31,0,0,0-8.66-19.31c-.2-.33.33-.59.53-.27A82.43,82.43,0,0,1,12,177.69a129.2,129.2,0,0,1,3.66,16.95Z" transform="translate(3.26)"/><path class="cls-26" d="M0,189.32l11.34,3.86a5.43,5.43,0,0,0-1.05-2c-1.23-1.48-3.19-2.4-3.85-4.2-.87-2.4.8-4.89,0-7.36a4.93,4.93,0,0,0-2.62-2.9c-1.13-.5-2.64-.52-3.8-1.08Z" transform="translate(3.26)"/><path class="cls-26" d="M121.22,151.2H27.3a3.33,3.33,0,0,0-3.08,3.53h0a3.33,3.33,0,0,0,3.08,3.52h93.92a3.33,3.33,0,0,0,3.08-3.52h0A3.33,3.33,0,0,0,121.22,151.2Z" transform="translate(3.26)"/><polygon class="cls-27" points="87.11 151.2 85.22 139.71 69.11 139.71 67.22 151.2 87.11 151.2"/><path class="cls-24" d="M83.85,151.2,82,139.71H77.08c-.79,3.29-1.86,7.69-2.79,11.49Z" transform="translate(3.26)"/><polygon class="cls-27" points="67.92 146.93 67.92 146.93 85.93 144.01 85.22 139.71 69.15 139.71 67.92 146.93"/><path class="cls-28" d="M105.84,141.9H42a2.6,2.6,0,0,1-2.6-2.72l1.89-41a2.6,2.6,0,0,1,2.59-2.48H104a2.6,2.6,0,0,1,2.59,2.48l1.89,41A2.6,2.6,0,0,1,105.84,141.9Z" transform="translate(3.26)"/><path class="cls-27" d="M69.29,104.88q9.58,9.56,19.14,19.14L105.2,140.8a2.49,2.49,0,0,0,1.76-2.49l-1.81-39.26a2.48,2.48,0,0,0-2.48-2.37H61.08Z" transform="translate(3.26)"/><path class="cls-27" d="M92,140.81,74.13,123,56.21,105.07l-8.39-8.39H45.15a2.49,2.49,0,0,0-2.49,2.37l-1.81,39.26a2.5,2.5,0,0,0,2.49,2.6H92.05Z" transform="translate(3.26)"/><path class="cls-29" d="M75.26,139.11a1.36,1.36,0,1,1-1.35-1.35A1.35,1.35,0,0,1,75.26,139.11Z" transform="translate(3.26)"/><path class="cls-30" d="M104.4,134.86h-61a1.2,1.2,0,0,1-1.2-1.26L44,99a1.21,1.21,0,0,1,1.2-1.14h57.35a1.21,1.21,0,0,1,1.2,1.14l1.82,34.61A1.2,1.2,0,0,1,104.4,134.86Z" transform="translate(3.26)"/><path class="cls-31" d="M101.78,133.27H46a1.09,1.09,0,0,1-1.09-1.16l1.66-31.63a1.09,1.09,0,0,1,1.1-1h52.41a1.09,1.09,0,0,1,1.1,1l1.66,31.63A1.09,1.09,0,0,1,101.78,133.27Z" transform="translate(3.26)"/><rect class="cls-32" x="67.4" y="67.36" width="69.31" height="64.96"/><rect class="cls-10" x="71.09" y="69.51" width="61.98" height="59.29"/><rect class="cls-24" x="90.11" y="69.51" width="42.96" height="4.27"/><g class="cls-33"><path class="cls-34" d="M122.36,82.44h-7.47V77.53h7.47Zm-7.22-.24h7V77.77h-7Z" transform="translate(3.26)"/></g><g class="cls-33"><path class="cls-34" d="M124.29,84.73h-4.45V82.51h4.45Zm-4.2-.24h4V82.75h-4Z" transform="translate(3.26)"/></g><g class="cls-33"><g class="cls-35"><path class="cls-34" d="M101.41,89.41H93.94V84.49h7.47Zm-7.22-.25h7V84.73h-7Z" transform="translate(3.26)"/></g><g class="cls-35"><path class="cls-34" d="M96.46,84.42H92V82.2h4.46Zm-4.21-.24h4V82.44h-4Z" transform="translate(3.26)"/></g></g><g class="cls-36"><path class="cls-24" d="M120.7,107.23H100V90.55a6.94,6.94,0,0,1,7-6.84h6.64a6.94,6.94,0,0,1,7,6.84Z" transform="translate(3.26)"/><g class="cls-37"><path class="cls-38" d="M117.22,84.65c1,4.66,1.69,12.35-4.34,13.69-7.61,1.68-12.31-4.7-11.81-11.44A6.66,6.66,0,0,0,100,90.55v16.68H120.7V90.55A6.81,6.81,0,0,0,117.22,84.65Z" transform="translate(3.26)"/></g><path class="cls-39" d="M110.34,91.64h0a5.22,5.22,0,0,0,5.29-5.14V84a7.16,7.16,0,0,0-2-.28H107a7.16,7.16,0,0,0-2,.28V86.5A5.22,5.22,0,0,0,110.34,91.64Z" transform="translate(3.26)"/><rect class="cls-38" x="99.13" y="103.96" width="28.93" height="4.9"/><rect class="cls-39" x="103.24" y="103.96" width="20.71" height="2.54"/><path class="cls-40" d="M100.05,119.48a3.19,3.19,0,0,1-.66,3.23c-1.36,1.45-.93,1.85.85,1.68s5.28-1,5.4-2.44-1.43-4.79-1.43-4.79Z" transform="translate(3.26)"/><path class="cls-41" d="M105.64,122a11.29,11.29,0,0,0-1-3.87l-1.24,2.53s-.32.4.14,1.3a4.21,4.21,0,0,0,1,1.31C105.16,122.87,105.6,122.45,105.64,122Z" transform="translate(3.26)"/><path class="cls-42" d="M100,121.83s3.34.17,5.34-1.74c.89,1.63.89,2.24-.48,3.22s-6,2.07-6.46,1.12S99.48,122.71,100,121.83Z" transform="translate(3.26)"/><g class="cls-43"><path class="cls-42" d="M104.85,123.31c1.37-1,1.37-1.59.48-3.22a5.71,5.71,0,0,1-1.88,1.16h0s.84,2-2.63,2.9a6.73,6.73,0,0,1-2.46.23l0,.05C98.89,125.38,103.47,124.28,104.85,123.31Z" transform="translate(3.26)"/></g><path class="cls-40" d="M120.58,119.48a3.19,3.19,0,0,0,.66,3.23c1.37,1.45.93,1.85-.84,1.68s-5.29-1-5.41-2.44,1.43-4.79,1.43-4.79Z" transform="translate(3.26)"/><path class="cls-41" d="M115,122a11.29,11.29,0,0,1,1-3.87l1.24,2.53s.32.4-.13,1.3a4.39,4.39,0,0,1-1,1.31C115.48,122.87,115,122.45,115,122Z" transform="translate(3.26)"/><path class="cls-42" d="M120.65,121.83s-3.35.17-5.34-1.74c-.89,1.63-.89,2.24.48,3.22s5.95,2.07,6.46,1.12S121.16,122.71,120.65,121.83Z" transform="translate(3.26)"/><g class="cls-43"><path class="cls-42" d="M115.79,123.31c-1.37-1-1.37-1.59-.48-3.22a5.67,5.67,0,0,0,1.87,1.16h0s-.84,2,2.63,2.9a6.73,6.73,0,0,0,2.46.23s0,0,0,.05C121.74,125.38,117.16,124.28,115.79,123.31Z" transform="translate(3.26)"/></g><path class="cls-44" d="M108.35,84.47a4.45,4.45,0,0,1,4,0C113.52,86.83,107.24,85.91,108.35,84.47Z" transform="translate(3.26)"/><path class="cls-45" d="M114.05,80.86a.9.9,0,0,1-.83,1,.92.92,0,0,1-1.06-.83,1.12,1.12,0,0,1,.81-1.26C113.49,79.75,114,80.29,114.05,80.86Z" transform="translate(3.26)"/><path class="cls-45" d="M106.63,80.86a.9.9,0,0,0,.83,1,.92.92,0,0,0,1.06-.83,1.12,1.12,0,0,0-.81-1.26C107.19,79.75,106.7,80.29,106.63,80.86Z" transform="translate(3.26)"/><path class="cls-45" d="M111.86,82.38a2.29,2.29,0,0,0,.71,2.61c-.64,2.26-2.23,2.05-2.23,2.05s-1.58.21-2.23-2.05a2.29,2.29,0,0,0,.71-2.61Z" transform="translate(3.26)"/><path class="cls-46" d="M110.34,85a3.14,3.14,0,0,0,1.63-.72,2.26,2.26,0,0,1-.11-1.86h-3a2.26,2.26,0,0,1-.11,1.86A3.14,3.14,0,0,0,110.34,85Z" transform="translate(3.26)"/><path class="cls-24" d="M112.33,84.47a27.42,27.42,0,0,1,3.88,1.7c.9.62,3.54,13.88.81,17.91-2.47,3.67-4.75,1.48-6.68,1.48s-4.21,2.19-6.68-1.48c-2.73-4-.09-17.29.81-17.91a27.93,27.93,0,0,1,3.88-1.7A2.76,2.76,0,0,0,112.33,84.47Z" transform="translate(3.26)"/><path class="cls-47" d="M108.23,84.52a26.08,26.08,0,0,0-3.76,1.65c-.9.62-3.54,13.88-.81,17.91,1.62,2.41,3.16,2.29,4.57,1.93Z" transform="translate(3.26)"/><path class="cls-47" d="M116.21,86.17a25.82,25.82,0,0,0-3.59-1.6l.07,21.53a4,4,0,0,0,4.33-2C119.75,100.05,117.11,86.79,116.21,86.17Z" transform="translate(3.26)"/><path class="cls-48" d="M118,94.19c-1.36,7.82-7.32,7.92-11.67,6.64-4.07-1.2-3.66-6.73-3.5-8.06-.56,4.15-.67,9.11.82,11.31a5,5,0,0,0,2,1.87l2.23.15a12.89,12.89,0,0,1,2.46-.54,10.88,10.88,0,0,1,2.29.5c1-.1,1.88-.24,2.86-.37a5.55,5.55,0,0,0,1.53-1.61C118.35,102.13,118.41,98,118,94.19Z" transform="translate(3.26)"/><g class="cls-49"><polygon class="cls-44" points="106.14 92.48 106.14 92.48 106.14 92.48 106.14 92.48"/></g><path class="cls-42" d="M111.11,101.72a71.55,71.55,0,0,1-7.86-.89c-1.84,0-6.51.47-8.3,4.49s4,15.25,5.21,16c4.43-.3,4.93-1.64,5.12-2.43.25-3.09-1.81-10.33-1.44-10.6s6.29-.69,7.27-1.54C112,104.79,111.11,101.72,111.11,101.72Z" transform="translate(3.26)"/><g class="cls-50"><path class="cls-42" d="M111.11,101.72a71.55,71.55,0,0,1-7.86-.89c-1.56,0-5.12.33-7.27,2.85a7.52,7.52,0,0,1,5.14-1.6c4.68,0,7.71.54,10.16.38C111.19,102,111.11,101.72,111.11,101.72Z" transform="translate(3.26)"/></g><g class="cls-43"><path class="cls-42" d="M111.11,106.79a4.88,4.88,0,0,0,.35-1.54l0-.78v0c0,.1-1.43,2.47-7.85,3.25-1.23-.09,1.17,10.13-.37,13.13,1.6-.54,1.88-1.34,2-1.89.25-3.09-1.81-10.33-1.44-10.6S110.13,107.64,111.11,106.79Z" transform="translate(3.26)"/></g><path class="cls-42" d="M109.57,101.72a71.55,71.55,0,0,0,7.86-.89c1.85,0,6.51.47,8.3,4.49s-4,15.25-5.21,16c-4.43-.3-4.93-1.64-5.12-2.43-.25-3.09,1.81-10.33,1.44-10.6s-6.29-.69-7.27-1.54C108.72,104.79,109.57,101.72,109.57,101.72Z" transform="translate(3.26)"/><g class="cls-50"><path class="cls-42" d="M109.58,101.72a71.55,71.55,0,0,0,7.86-.89c1.55,0,5.11.33,7.27,2.85a7.52,7.52,0,0,0-5.14-1.6c-4.68,0-7.68.73-10.16.38C109.5,102,109.58,101.72,109.58,101.72Z" transform="translate(3.26)"/></g><path class="cls-45" d="M113.23,81.18a2.89,2.89,0,1,1-5.78,0c0-1.85,1.29-3.72,2.89-3.72S113.23,79.33,113.23,81.18Z" transform="translate(3.26)"/><path class="cls-51" d="M111.84,80.21a.29.29,0,0,1-.57,0,.29.29,0,0,1,.57,0Z" transform="translate(3.26)"/><path class="cls-51" d="M109.41,80.21a.29.29,0,0,1-.57,0,.29.29,0,0,1,.57,0Z" transform="translate(3.26)"/><path class="cls-51" d="M109.53,79.45a.68.68,0,0,0-.6-.11.79.79,0,0,0-.51.3.1.1,0,0,0,0,.15.13.13,0,0,0,.16,0,.64.64,0,0,1,.35-.19.43.43,0,0,1,.4,0,.12.12,0,0,0,.16,0A.11.11,0,0,0,109.53,79.45Z" transform="translate(3.26)"/><path class="cls-51" d="M112,79.51a.57.57,0,0,0-.13-.08.74.74,0,0,0-.29-.08.76.76,0,0,0-.54.2c-.11.1.06.26.17.16a.48.48,0,0,1,.34-.14.39.39,0,0,1,.18,0l.08,0a.05.05,0,0,1,0,0h0a.13.13,0,0,0,.08.08.16.16,0,0,0,.1,0,.09.09,0,0,0,.06-.1A.22.22,0,0,0,112,79.51Z" transform="translate(3.26)"/><path class="cls-52" d="M107,80.08s.29.31.29,1.43c.16.25.37.2.42.14s-.16-1.52.18-1.79.87-.38.73-1.15c-.12-.6.5-.6,1.05-.27a2.29,2.29,0,0,0,2.1,0c.67-.28.62,1.08,1,1.49s.14,1.63.22,1.74.27,0,.4-.26.1-1.3.24-1.4c.54,0,.44-.92.11-1.41-.22-.31.45-1.43-.16-1.94a1.82,1.82,0,0,0-2.22-.5c-.68.27-1.36-.76-2.3-.38s-.66,1.48-1.48,1.55-1.23.32-.88,1.12S106.11,79.62,107,80.08Z" transform="translate(3.26)"/><g class="cls-43"><path class="cls-42" d="M117,107.69a17.19,17.19,0,0,1-5.72-1.55,9.8,9.8,0,0,1-1-.58,9.8,9.8,0,0,1-1,.58,3.3,3.3,0,0,0,.21.65,2.12,2.12,0,0,0,.77.37c1.91.61,6.18,1,6.5,1.17s-1.69,7.51-1.44,10.6c.13.55.41,1.35,2,1.89C115.88,117.82,118.27,107.6,117,107.69Z" transform="translate(3.26)"/></g><g class="cls-43"><path class="cls-44" d="M120.31,88.91c.29.27,5.47,5.25,2.8,8.36-2.08,2.42-7.73,3.17-10.73,3.12a1.29,1.29,0,0,0,.37.58c6.55.12,13.61-1.37,11.82-6.19A14.36,14.36,0,0,0,120.31,88.91Z" transform="translate(3.26)"/></g><path class="cls-47" d="M115.87,86c1.76,1,6.74,3.55,8.7,8.81,1.79,4.82-5.27,6.31-11.82,6.19-.75-.59-1-3.21,0-3.52,4.32-1.15,6.46-1.34,5.77-2.32-.49-.7-4.83-3.25-5.3-4.53S114.29,85.08,115.87,86Z" transform="translate(3.26)"/><g class="cls-43"><path class="cls-44" d="M116.73,91.94l0-.06S116.72,91.92,116.73,91.94Z" transform="translate(3.26)"/></g><g class="cls-43"><path class="cls-44" d="M118.53,95.13a.52.52,0,0,1,.12.4l.61.45L119,94.67s-1.94-2.2-2.27-2.73a8.89,8.89,0,0,1,1.09,2.57A3.83,3.83,0,0,1,118.53,95.13Z" transform="translate(3.26)"/></g><path class="cls-45" d="M112.84,98s-2.55-.9-3-.29c-.61.76-.53,2.65.07,3s1.42.44,3.09,0C115.48,98.46,112.84,98,112.84,98Z" transform="translate(3.26)"/><path class="cls-41" d="M111.83,99.75c-.07.84-1.55,1.2-2.19.75a.61.61,0,0,0,.22.23c.54.42,1.42.44,3.09,0,2.33-2.1.26-2.65-.07-2.72l-.59-.08A5.66,5.66,0,0,0,111.83,99.75Z" transform="translate(3.26)"/><path class="cls-47" d="M123.53,92.64a12.27,12.27,0,0,0-5.06,2.42l.06.07c.69,1-1.45,1.17-5.77,2.32-1,.31-.76,2.93,0,3.52,6.55.12,13.61-1.37,11.82-6.19A12.86,12.86,0,0,0,123.53,92.64Z" transform="translate(3.26)"/><path class="cls-48" d="M124.58,94.77c0-.13-.09-.25-.15-.38a9.72,9.72,0,0,0-.44-.92,4.91,4.91,0,0,0-.46-.83l-.34.06c.76,1.52,1.08,3.22-.08,4.57-2.08,2.42-7.73,3.17-10.73,3.12a1.67,1.67,0,0,0,.25.46l0,0,0,0,.06.06a1.81,1.81,0,0,0,.52,0h.55l1.09,0c.71,0,1.43-.08,2.14-.16a20.11,20.11,0,0,0,3.86-.75,7.7,7.7,0,0,0,2.81-1.46,3.18,3.18,0,0,0,1.13-2.25A4.61,4.61,0,0,0,124.58,94.77Z" transform="translate(3.26)"/><path class="cls-47" d="M105.15,92.84a7.65,7.65,0,0,0,2.31-2.24c.47-1.28-1.06-5.52-2.64-4.63s-8.07,5.46-7.53,7.68Z" transform="translate(3.26)"/><g class="cls-43"><path class="cls-44" d="M104,91.94l0-.06S104,91.92,104,91.94Z" transform="translate(3.26)"/></g><path class="cls-45" d="M108.56,89s1.63-2.1,2.39-1.86c.93.31,1.93,1.94,1.64,2.56s-.94,1.13-2.59,1.64C106.61,90.81,108.56,89,108.56,89Z" transform="translate(3.26)"/><path class="cls-46" d="M112.62,89.57a.13.13,0,0,0,0-.06,1.41,1.41,0,0,0-.13-.67,3.69,3.69,0,0,0-.6-1,2.88,2.88,0,0,0-.64-.57.94.94,0,0,0-.43-.16,1.23,1.23,0,0,0-.69.28.82.82,0,0,1,.5-.13.92.92,0,0,1,.36.13,3.23,3.23,0,0,1,.92.92c.25.37.67,1.49-.44,1.89a1,1,0,0,1-1.07-.25l0,0A5.75,5.75,0,0,0,109,88.67l-.44.38c-.24.24-1.66,1.8,1.47,2.31a5.08,5.08,0,0,0,2.29-1.15A1.17,1.17,0,0,0,112.62,89.57Z" transform="translate(3.26)"/><path class="cls-48" d="M107.7,88.58c-.52.28-1,.56-1.58.81-.94.45-1.9.85-2.85,1.29s-1.79.82-2.72,1.17c-.43.17-.86.34-1.27.55l-.25.13,6.07-.62a1.33,1.33,0,0,1,.14-.19A32,32,0,0,0,107.7,88.58Z" transform="translate(3.26)"/><g class="cls-43"><path class="cls-44" d="M119,94.67" transform="translate(3.26)"/></g><path class="cls-53" d="M97.68,106.5a2.32,2.32,0,0,0-.77-1.08,1.19,1.19,0,0,0-1.34-.07c-.11.09,0,.28.12.2a1,1,0,0,1,1.27.2,3.11,3.11,0,0,1,.68,1.31,2,2,0,0,1,0,1.47,1,1,0,0,1-.53.52.8.8,0,0,1-.76-.2c-.11-.09-.28.07-.16.16a1,1,0,0,0,1.25.1A1.55,1.55,0,0,0,98,108,3.23,3.23,0,0,0,97.68,106.5Z" transform="translate(3.26)"/><path class="cls-53" d="M123.3,106.56a2.4,2.4,0,0,1,.77-1.09,1.18,1.18,0,0,1,1.33-.06c.12.09,0,.28-.11.19a1,1,0,0,0-1.27.21,3.11,3.11,0,0,0-.68,1.31,2,2,0,0,0,0,1.47,1,1,0,0,0,.53.51.8.8,0,0,0,.75-.19c.12-.09.28.07.17.16a1,1,0,0,1-1.26.1A1.6,1.6,0,0,1,123,108,3.07,3.07,0,0,1,123.3,106.56Z" transform="translate(3.26)"/><g class="cls-43"><rect class="cls-42" x="113.54" y="102.48" width="0.12" height="3.08"/></g><path class="cls-24" d="M111.67,81.8a1.1,1.1,0,1,1,1.12-1.1A1.11,1.11,0,0,1,111.67,81.8Zm0-2.07a1,1,0,1,0,1,1A1,1,0,0,0,111.67,79.73Z" transform="translate(3.26)"/><path class="cls-24" d="M109,81.8a1.1,1.1,0,1,1,1.13-1.1A1.11,1.11,0,0,1,109,81.8Zm0-2.07a1,1,0,1,0,1,1A1,1,0,0,0,109,79.73Z" transform="translate(3.26)"/><polygon class="cls-24" points="115.97 80.47 115.92 80.36 116.76 80.04 116.8 80.16 115.97 80.47"/><polygon class="cls-24" points="111.31 80.47 110.47 80.16 110.52 80.04 111.35 80.36 111.31 80.47"/><path class="cls-24" d="M109.9,80.62l-.08-.1a.89.89,0,0,1,1,0l-.08.1A.75.75,0,0,0,109.9,80.62Z" transform="translate(3.26)"/><path class="cls-24" d="M111.3,82.47a.93.93,0,0,1-1.78,0c0-.25.4,0,.89,0S111.3,82.22,111.3,82.47Z" transform="translate(3.26)"/><g class="cls-49"><path class="cls-40" d="M110.33,81.87a.27.27,0,0,1-.16-.06.17.17,0,0,1-.06-.1.34.34,0,0,1,.11-.38l.07.08a.25.25,0,0,0-.07.26.16.16,0,0,0,0,.06s.13,0,.2,0l0,.1A.49.49,0,0,1,110.33,81.87Z" transform="translate(3.26)"/></g><path class="cls-47" d="M97.66,94.63a2.23,2.23,0,0,1,1.44-3,15.29,15.29,0,0,1,3.28-.65.28.28,0,0,0,0,.09c.19,1.18,1.88-.13,5.83-2.19a1.15,1.15,0,0,1,1.06.25,2.2,2.2,0,0,1,.16,3.46C105,96.5,99.7,99.15,97.77,94.88,97.73,94.79,97.69,94.71,97.66,94.63Z" transform="translate(3.26)"/><path class="cls-48" d="M110.2,91.93c0-.28,0-.56,0-.85-2.25,2-6.58,5-9.65,4.63a4,4,0,0,1-3.16-2.87,6.36,6.36,0,0,0-.19.62s0,.07,0,.09c.1.32.21.64.34,1,0,.12.1.25.16.37a4.4,4.4,0,0,0,.91,1.31,3.39,3.39,0,0,0,2.42.88,7.75,7.75,0,0,0,3.06-.83,19.63,19.63,0,0,0,3.34-2c.57-.42,1.12-.87,1.66-1.33l.81-.71Z" transform="translate(3.26)"/></g><rect class="cls-10" x="93.46" y="101" width="39.61" height="27.8"/><g class="cls-54"><path class="cls-55" d="M124.68,111.25h-6.3a.09.09,0,0,1-.09-.09.08.08,0,0,1,.09-.08h6.21v-1.45a.09.09,0,0,1,.18,0v1.53A.09.09,0,0,1,124.68,111.25Z" transform="translate(3.26)"/><path class="cls-55" d="M100.63,118.74h-6.3a.09.09,0,0,1-.09-.09.09.09,0,0,1,.09-.08h6.21v-1.45a.09.09,0,0,1,.18,0v1.53A.09.09,0,0,1,100.63,118.74Z" transform="translate(3.26)"/><path class="cls-55" d="M120.16,109.2h-3.65a.09.09,0,0,1,0-.18h3.65a.09.09,0,0,1,0,.18Z" transform="translate(3.26)"/><path class="cls-55" d="M91.88,114.87a.08.08,0,0,1-.08-.08v-1.53a.07.07,0,0,1,.08-.08h5.3a.08.08,0,0,1,.09.08.09.09,0,0,1-.09.08H92v1.45A.08.08,0,0,1,91.88,114.87Z" transform="translate(3.26)"/><path class="cls-55" d="M98.93,113.34H97.88a.09.09,0,0,1-.08-.08.08.08,0,0,1,.08-.08h1.05a.08.08,0,0,1,.08.08A.09.09,0,0,1,98.93,113.34Z" transform="translate(3.26)"/><path class="cls-55" d="M114.41,108.06a.09.09,0,0,1-.09-.08v-1.53a.09.09,0,0,1,.09-.08h5.3a.08.08,0,1,1,0,.16h-5.22V108A.09.09,0,0,1,114.41,108.06Z" transform="translate(3.26)"/><path class="cls-55" d="M121.45,106.53h-1a.08.08,0,1,1,0-.16h1a.08.08,0,1,1,0,.16Z" transform="translate(3.26)"/><path class="cls-55" d="M96.36,115.84H92.71a.09.09,0,0,1-.09-.09.09.09,0,0,1,.09-.08h3.65a.09.09,0,0,1,.09.08A.09.09,0,0,1,96.36,115.84Z" transform="translate(3.26)"/></g><g class="cls-56"><path class="cls-24" d="M120.16,136.39h-19.1V121a6.4,6.4,0,0,1,6.49-6.3h6.12a6.39,6.39,0,0,1,6.49,6.3Z" transform="translate(3.26)"/><path class="cls-57" d="M117,115.57c.93,4.29,1.56,11.39-4,12.62-7,1.56-11.35-4.34-10.89-10.54a6.14,6.14,0,0,0-1,3.36v15.38h19.1V121A6.29,6.29,0,0,0,117,115.57Z" transform="translate(3.26)"/><path class="cls-39" d="M110.61,122h0a4.81,4.81,0,0,0,4.88-4.73V115a6.45,6.45,0,0,0-1.82-.25h-6.12a6.33,6.33,0,0,0-1.81.25v2.32A4.8,4.8,0,0,0,110.61,122Z" transform="translate(3.26)"/><rect class="cls-57" x="100.27" y="133.46" width="26.68" height="4.52"/><rect class="cls-39" x="104.32" y="133.38" width="19.1" height="2.34"/><path class="cls-58" d="M99.78,144s7.24,3.61,13.56,1.42S104,138.89,99.78,144Z" transform="translate(3.26)"/><path class="cls-39" d="M110.39,123.15h0a4.42,4.42,0,0,0,4.49-4.36v-2.14a6.12,6.12,0,0,0-1.67-.23h-5.65a6.12,6.12,0,0,0-1.67.23v2.14A4.43,4.43,0,0,0,110.39,123.15Z" transform="translate(3.26)"/><path class="cls-59" d="M108.51,114.34a4.27,4.27,0,0,1,3.82,0C113.47,116.61,107.44,115.72,108.51,114.34Z" transform="translate(3.26)"/><path class="cls-60" d="M115.44,112.6a13.91,13.91,0,0,0-1.66-4,4.1,4.1,0,0,0-3.36-2.19c-1.89,0-3.21,1.62-3.86,3.22a20.5,20.5,0,0,0-1.42,7.57c0,.73-.12,2.39,1,2.22.72-.11,1.45-.93,1.91-1.43a5.63,5.63,0,0,0,1.37-2.69,2.83,2.83,0,0,0-.13-1.73c-.23-.47-.65-.82-.92-1.27a2.69,2.69,0,0,1,1-3.57c.26-.16.65.12,1,.12s.78-.27,1-.12a2.9,2.9,0,0,1,1.33,2c.2,1.2-.22,1.68-1.11,2.4a1.56,1.56,0,0,0-.57.71,1.27,1.27,0,0,0,.39,1.08c.6.7.76.75.78,1.67a22.91,22.91,0,0,0,.19,2.62c.08.68.16,2.54,1.08,2.27,1.88-.56,2.33-2.88,2.38-4.53A17,17,0,0,0,115.44,112.6Z" transform="translate(3.26)"/><path class="cls-40" d="M111.88,112.33a2.2,2.2,0,0,0,.67,2.51c-.61,2.16-2.13,2-2.13,2s-1.53.2-2.14-2a2.2,2.2,0,0,0,.67-2.51Z" transform="translate(3.26)"/><path class="cls-41" d="M110.42,114.81a3.07,3.07,0,0,0,1.56-.69,2.16,2.16,0,0,1-.1-1.79H109a2.16,2.16,0,0,1-.1,1.79A3.07,3.07,0,0,0,110.42,114.81Z" transform="translate(3.26)"/><path class="cls-47" d="M104,125.59c.8-.39,3.64-3.87,3.75-6.84a2.86,2.86,0,0,0-2-3,17.09,17.09,0,0,0-5,8.31C100.56,125,103.1,126,104,125.59Z" transform="translate(3.26)"/><path class="cls-47" d="M116.7,125.59c-.8-.39-3.64-3.87-3.75-6.84a2.77,2.77,0,0,1,2.24-2.89,17.11,17.11,0,0,1,4.7,8.18C120.16,125,117.63,126,116.7,125.59Z" transform="translate(3.26)"/><path class="cls-59" d="M115.43,116.3a1.58,1.58,0,0,0-.21-.33,21.88,21.88,0,0,0-3.18-1.63s-.67,2.46-1.62,2.47-1.63-2.47-1.63-2.47a21.4,21.4,0,0,0-3.17,1.63,1.21,1.21,0,0,0-.22.33,9.59,9.59,0,0,0-.94,4.9c.3,1.85.85,5.9,1,8.38a11.69,11.69,0,0,1-.53,3.59c2,3.51,3.89,1.42,5.47,1.42s3.44,2.09,5.46-1.42a11.69,11.69,0,0,1-.53-3.59c.17-2.48.72-6.53,1-8.38A9.59,9.59,0,0,0,115.43,116.3Z" transform="translate(3.26)"/><path class="cls-47" d="M115.43,116.15a1.47,1.47,0,0,0-.21-.34,21.88,21.88,0,0,0-3.18-1.63s-.67,2.46-1.62,2.47-1.63-2.47-1.63-2.47a21.4,21.4,0,0,0-3.17,1.63,1.15,1.15,0,0,0-.22.34c-.56.91-1.94,3.57-1.71,5,.3,1.84,1.62,5.8,1.79,8.29A11.62,11.62,0,0,1,105,133c2,3.51,3.89,1.42,5.47,1.42s3.44,2.09,5.46-1.42a11.62,11.62,0,0,1-.53-3.58c.17-2.49,1.24-6.39,1.54-8.24C117.12,119.78,116,117.06,115.43,116.15Z" transform="translate(3.26)"/><path class="cls-61" d="M113.6,123.78c1.25,1.19,3.07,4.61-1.85,5.49a22.72,22.72,0,0,0,3.6-.51l.06,0c.22-2.49.69-5.93,1-7.59a8,8,0,0,0-.17-2.65l-.07-.3s.65,3.08-4.33,3.57C109.83,122.29,112.18,122.42,113.6,123.78Z" transform="translate(3.26)"/><path class="cls-61" d="M105.41,128.76a18.45,18.45,0,0,0,3.75.53c-3.58-1-3.18-4.31-1.93-5.51,1.42-1.36,3.2-1.65,1.23-2.12-4.06-.33-3.82-3.11-3.82-3.11h0a7.76,7.76,0,0,0-.18,2.65C104.73,122.86,105.2,126.28,105.41,128.76Z" transform="translate(3.26)"/><g class="cls-49"><polygon class="cls-44" points="106.22 120.89 106.22 120.89 106.22 120.89 106.22 120.89"/></g><g class="cls-43"><path class="cls-44" d="M119,123.07" transform="translate(3.26)"/></g><path class="cls-40" d="M107.51,133.69c-3.05,2.57-2,11.35-2.37,15.25a2.46,2.46,0,0,1-1.62,1.87c-1.55.6-1.37,1.05,0,1.54s4.3,1.1,4.92.07a5.46,5.46,0,0,0,.51-1.86,25,25,0,0,1,.86-3.74c1-3.22,2.61-7.68,2.94-7.73S110.78,130.93,107.51,133.69Z" transform="translate(3.26)"/><path class="cls-41" d="M109.8,146.87c.25-.81.54-1.7.85-2.59.51-2.12.91-3.92.94-4.3,0,0-2.42,8.69-4.33,10.64-.2.2-.39.19-.38,1,0,.27,0,1.15.27,1.32s1-.2,1.21-.42a3.55,3.55,0,0,0,.58-1.86A27.61,27.61,0,0,1,109.8,146.87Z" transform="translate(3.26)"/><path class="cls-62" d="M104.29,150.36a6.69,6.69,0,0,0,4.61.56c.07,1.52-.16,2-1.54,2.23s-5.2-.53-5.22-1.42S103.58,150.84,104.29,150.36Z" transform="translate(3.26)"/><path class="cls-63" d="M107.36,153.15c1.38-.25,1.61-.71,1.54-2.23a4.76,4.76,0,0,1-1.82.21h0s-.12,1.8-3,1.25a5.66,5.66,0,0,1-1.91-.69v0C102.16,152.62,106,153.4,107.36,153.15Z" transform="translate(3.26)"/><path class="cls-40" d="M111.09,132.72c3.8,1.32,6.14,9.85,7.93,13.36a2.53,2.53,0,0,0,2.21,1.17c1.67,0,1.68.49.57,1.44s-3.59,2.54-4.55,1.8a5.73,5.73,0,0,1-1.18-1.55,25.38,25.38,0,0,0-2.2-3.18c-2.14-2.64-5.32-6.21-5.64-6.15S107,131.32,111.09,132.72Z" transform="translate(3.26)"/><path class="cls-41" d="M113.91,145.81c-.54-.67-1.15-1.39-1.76-2.11-1.28-1.8-2.33-3.33-2.5-3.67,0,0,5.52,7.23,8,8.37.25.11.42,0,.73.81.1.25.42,1.08.24,1.33s-1,.17-1.28,0a3.65,3.65,0,0,1-1.24-1.53A27.77,27.77,0,0,0,113.91,145.81Z" transform="translate(3.26)"/><path class="cls-62" d="M120.35,147.1a6.61,6.61,0,0,1-4.09,2.16c.52,1.44.9,1.78,2.28,1.53s4.64-2.34,4.33-3.17S121.19,147.3,120.35,147.1Z" transform="translate(3.26)"/><path class="cls-63" d="M118.54,150.79c-1.38.25-1.76-.09-2.28-1.53a4.91,4.91,0,0,0,1.78-.45h0s.79,1.63,3.29.09a5.34,5.34,0,0,0,1.52-1.32.05.05,0,0,0,0,0C123.18,148.45,119.92,150.53,118.54,150.79Z" transform="translate(3.26)"/><path class="cls-58" d="M105.39,128.76a21.8,21.8,0,0,0,10,0c2.94,1.46,1.73,7.11-1.79,7.72S100.94,137.46,105.39,128.76Z" transform="translate(3.26)"/><path class="cls-64" d="M116.78,133.31a8.81,8.81,0,0,0-1.9-3.11,11.79,11.79,0,0,0-3.41-.91,21,21,0,0,1-6-.51l-.19.18c-4.2,8.49,4.78,8.14,8.27,7.52A4.3,4.3,0,0,0,116.78,133.31Z" transform="translate(3.26)"/><path class="cls-58" d="M105.39,128.76s-4,.84-2.52,7.49c-.94,2.62-3.12,6.87-3.12,8,6.42,3.6,10.93,0,14.08,0s4.9-.47,5.92-2.34c-2.81-6.14-3.93-10.61-5.25-11.49S105.39,128.76,105.39,128.76Z" transform="translate(3.26)"/><path class="cls-64" d="M110.38,145c-4.74,1.32-7.44.28-8.85-.59s.61-6.33.61-6.33h0c-1,2.45-2.39,5.28-2.39,6.18C104.12,146.7,107.6,145.81,110.38,145Z" transform="translate(3.26)"/><polygon class="cls-65" points="114.3 144.79 114.3 144.79 114.3 144.79 114.3 144.79"/><path class="cls-64" d="M118.08,142.75c-1.3,1.27-3.67.65-5.56,1.65h0a5.61,5.61,0,0,1,1.31-.15c3.16,0,4.9-.47,5.92-2.34-1.31-2.87-2.26-5.38-3-7.32C116.72,134.59,119.38,141.49,118.08,142.75Z" transform="translate(3.26)"/><path class="cls-64" d="M108.38,136.25c-1.17-.81-5.51,0-5.51,0-.11.29-.23.61-.36.93a7.28,7.28,0,0,1,3.81-.1c3.43.82,3.19,3.85,6.2,7.32h0C111.4,142.86,109.52,137,108.38,136.25Z" transform="translate(3.26)"/><path class="cls-51" d="M109.35,110a.11.11,0,0,0,0-.08.18.18,0,0,0-.09,0,.68.68,0,0,0-.23.07.44.44,0,0,0-.18.12.11.11,0,0,0,0,.15.1.1,0,0,0,.16,0l0,0a.31.31,0,0,1,.1-.05.27.27,0,0,1,.12,0h0l.08,0A.13.13,0,0,0,109.35,110Z" transform="translate(3.26)"/><path class="cls-51" d="M111.87,110.07v0h0a.51.51,0,0,0-.34-.21h-.09s-.05,0-.05.07a.1.1,0,0,0,0,.09.09.09,0,0,0,.07,0l.08,0,.07,0a.17.17,0,0,1,.06.06h0s0,0,.06,0a.09.09,0,0,0,.09,0,.11.11,0,0,0,.06-.07A.12.12,0,0,0,111.87,110.07Z" transform="translate(3.26)"/><path class="cls-47" d="M119.88,124s2.72,4.6-8.81,5.16c-.44-.65-.33-1.78,0-1.91C113.24,125.52,118.3,121.92,119.88,124Z" transform="translate(3.26)"/><path class="cls-48" d="M110.82,128.24c7.73.32,9.11-1.72,9.34-2.66-.25,1.39-1.94,3.27-9.06,3.62A1.89,1.89,0,0,1,110.82,128.24Z" transform="translate(3.26)"/><path class="cls-66" d="M109.93,124a8.45,8.45,0,0,0-3.8.59s.74,3.76,1,4.8a11.62,11.62,0,0,0,3,.26,10.35,10.35,0,0,0,3-.49c.14-1.06.59-4.87.59-4.87A9.12,9.12,0,0,0,109.93,124Z" transform="translate(3.26)"/><path class="cls-67" d="M104.85,124.73s1,3.76,1.29,4.8a16.83,16.83,0,0,0,4.15.23c-.19-.82-.29-5.54-.38-5.65C109,124.13,104.85,124.73,104.85,124.73Z" transform="translate(3.26)"/><path class="cls-68" d="M104.85,124.73s1,3.76,1.29,4.8l.69.09c-1.31-1.08-1.55-3.62-1.58-4.94Z" transform="translate(3.26)"/><path class="cls-67" d="M115,124.43s-.61,3.81-.8,4.87a17,17,0,0,1-4.11.48c.1-.83-.28-5.54-.2-5.66C110.82,124.09,115,124.43,115,124.43Z" transform="translate(3.26)"/><path class="cls-69" d="M111.35,126.52a2.53,2.53,0,0,1,1.37-2.26c-1.14-.08-2.36-.16-2.79-.14-.08.12.3,4.83.2,5.66a11.9,11.9,0,0,0,2.75-.23A2.93,2.93,0,0,1,111.35,126.52Z" transform="translate(3.26)"/><path class="cls-40" d="M109.58,127.53s1-.38,1.46-.5.1.64-.12.81,1.62-.34,2,.15-1,2.14-3.61,1.1C108.36,127.85,109.58,127.53,109.58,127.53Z" transform="translate(3.26)"/><path class="cls-47" d="M100.84,124s-2.72,4.6,8.81,5.16c.44-.65.33-1.78,0-1.91C107.48,125.52,102.43,121.92,100.84,124Z" transform="translate(3.26)"/><path class="cls-48" d="M109.94,128.24c-7.73.32-9.11-1.72-9.34-2.66.25,1.39,1.94,3.27,9.05,3.62A1.9,1.9,0,0,0,109.94,128.24Z" transform="translate(3.26)"/><path class="cls-40" d="M113.43,110.87a.5.5,0,0,1-.47.59.52.52,0,0,1-.6-.47.62.62,0,0,1,.46-.71C113.11,110.24,113.39,110.55,113.43,110.87Z" transform="translate(3.26)"/><path class="cls-40" d="M107.57,110.87a.51.51,0,0,0,.47.59.52.52,0,0,0,.6-.47.62.62,0,0,0-.46-.71C107.89,110.24,107.61,110.55,107.57,110.87Z" transform="translate(3.26)"/><path class="cls-40" d="M111.45,108.73c-.25-.15-.64.12-1,.12s-.78-.28-1-.12c-2.17,1.29-1.88,5.33,1,5.33S113.64,110,111.45,108.73Z" transform="translate(3.26)"/><path class="cls-51" d="M111.34,111l0,0h0l.06,0s0,0,0,0h.18s0,0,0,0l.06,0h0l0,0a.1.1,0,0,0,.14,0,.11.11,0,0,0,0-.13.48.48,0,0,0-.33-.15.44.44,0,0,0-.34.14.09.09,0,0,0,0,.13.11.11,0,0,0,.14,0Z" transform="translate(3.26)"/><path class="cls-51" d="M111.23,110.2a.77.77,0,0,1,.39-.11.7.7,0,0,1,.39.13c.1.06.2-.1.1-.16a.94.94,0,0,0-.49-.15.91.91,0,0,0-.48.13c-.11.07,0,.23.09.16Z" transform="translate(3.26)"/><path class="cls-51" d="M109.17,111l0,0h0l.06,0h.19l.06,0s0,0,0,0h0s0,0,0,0a.1.1,0,0,0,.14,0,.09.09,0,0,0,0-.13.45.45,0,0,0-.33-.15.44.44,0,0,0-.34.14.1.1,0,0,0,0,.13.11.11,0,0,0,.14,0Z" transform="translate(3.26)"/><path class="cls-51" d="M109,110.2a.8.8,0,0,1,.38-.11.75.75,0,0,1,.38.13.09.09,0,0,0,.09-.16.87.87,0,0,0-.47-.15.89.89,0,0,0-.48.13.09.09,0,1,0,.1.16Z" transform="translate(3.26)"/><path class="cls-24" d="M111.44,112.63a1,1,0,0,1-1.88,0c0-.26.42,0,.94,0S111.44,112.37,111.44,112.63Z" transform="translate(3.26)"/><g class="cls-49"><path class="cls-40" d="M110.42,112a.27.27,0,0,1-.17-.06.41.41,0,0,1-.07-.11.4.4,0,0,1,.12-.4l.08.08a.27.27,0,0,0-.08.28.16.16,0,0,0,0,.06.27.27,0,0,0,.22,0l0,.11A.65.65,0,0,1,110.42,112Z" transform="translate(3.26)"/></g></g><rect class="cls-24" x="93.46" y="99.16" width="39.61" height="4.27"/><rect class="cls-24" x="71.09" y="69.51" width="22.37" height="59.29"/><rect class="cls-70" x="72.55" y="75.24" width="19.13" height="39.29" rx="2.71"/><path class="cls-10" d="M87.56,90.47A2.76,2.76,0,1,1,84.8,87.8,2.72,2.72,0,0,1,87.56,90.47Z" transform="translate(3.26)"/><g class="cls-71"><path class="cls-24" d="M88.62,94.2v-.26a2.51,2.51,0,0,0-2.55-2.47H83.68a2.51,2.51,0,0,0-2.55,2.47v.26Z" transform="translate(3.26)"/><g class="cls-37"><path class="cls-38" d="M87.59,94.2h1v-.26a2.46,2.46,0,0,0-1.26-2.13A9.11,9.11,0,0,1,87.59,94.2Z" transform="translate(3.26)"/></g><g class="cls-37"><path class="cls-38" d="M81.68,94.2a4.37,4.37,0,0,1-.15-1.58,2.44,2.44,0,0,0-.4,1.32v.26Z" transform="translate(3.26)"/></g><path class="cls-39" d="M84.17,94.2h1.41a1.85,1.85,0,0,0,1.21-1.72v-.91a2.84,2.84,0,0,0-.72-.1H83.68a2.84,2.84,0,0,0-.72.1v.91A1.85,1.85,0,0,0,84.17,94.2Z" transform="translate(3.26)"/><path class="cls-44" d="M84.16,91.75a1.58,1.58,0,0,1,1.43,0C86,92.6,83.76,92.27,84.16,91.75Z" transform="translate(3.26)"/><path class="cls-45" d="M86.22,90.44a.35.35,0,0,1-.69.08.41.41,0,0,1,.3-.46C86,90,86.19,90.23,86.22,90.44Z" transform="translate(3.26)"/><path class="cls-45" d="M83.53,90.44a.35.35,0,0,0,.69.08.41.41,0,0,0-.3-.46C83.74,90,83.56,90.23,83.53,90.44Z" transform="translate(3.26)"/><path class="cls-45" d="M85.43,91a.81.81,0,0,0,.25.94c-.23.82-.81.74-.81.74s-.57.08-.8-.74a.81.81,0,0,0,.25-.94Z" transform="translate(3.26)"/><path class="cls-46" d="M84.87,91.92a1.13,1.13,0,0,0,.59-.26.81.81,0,0,1,0-.67H84.32a.79.79,0,0,1,0,.67A1.21,1.21,0,0,0,84.87,91.92Z" transform="translate(3.26)"/><path class="cls-24" d="M87.5,94.2a5.37,5.37,0,0,0-.5-1.84,10.71,10.71,0,0,0-1.41-.61,1,1,0,0,1-1.43,0,10.71,10.71,0,0,0-1.41.61,5.37,5.37,0,0,0-.5,1.84Z" transform="translate(3.26)"/><path class="cls-47" d="M84.11,94.2V91.76a8.89,8.89,0,0,0-1.36.6,5.37,5.37,0,0,0-.5,1.84Z" transform="translate(3.26)"/><path class="cls-47" d="M87.5,94.2a5.37,5.37,0,0,0-.5-1.84,9.35,9.35,0,0,0-1.3-.58V94.2Z" transform="translate(3.26)"/><path class="cls-45" d="M85.92,90.56a1,1,0,1,1-2.09,0c0-.67.47-1.35,1-1.35S85.92,89.89,85.92,90.56Z" transform="translate(3.26)"/><path class="cls-51" d="M85.42,90.2a.1.1,0,0,1-.11.1.1.1,0,0,1-.1-.1.1.1,0,0,1,.1-.09A.1.1,0,0,1,85.42,90.2Z" transform="translate(3.26)"/><path class="cls-51" d="M84.54,90.2a.1.1,0,0,1-.1.1.1.1,0,1,1,0-.19A.1.1,0,0,1,84.54,90.2Z" transform="translate(3.26)"/><path class="cls-51" d="M84.58,89.93a.23.23,0,0,0-.21,0,.33.33,0,0,0-.19.11,0,0,0,0,0,0,0,0,0,0,0,0,.06,0,.24.24,0,0,1,.13-.07.17.17,0,0,1,.14,0,.06.06,0,0,0,.06,0S84.6,89.94,84.58,89.93Z" transform="translate(3.26)"/><path class="cls-51" d="M85.46,90l0,0-.1,0a.28.28,0,0,0-.2.08s0,.09.06,0a.14.14,0,0,1,.12,0h.11l0,0h0a.05.05,0,0,0,0,0S85.47,90,85.46,90Z" transform="translate(3.26)"/><path class="cls-52" d="M83.67,90.16s.11.11.11.51c0,.1.13.08.15.06s-.06-.55.06-.65.32-.14.27-.42.18-.21.38-.09a.84.84,0,0,0,.76,0c.24-.1.22.39.35.54s0,.58.08.62.1,0,.14-.09,0-.47.09-.51.16-.33,0-.5.16-.52-.06-.71a.67.67,0,0,0-.8-.18c-.24.1-.49-.27-.83-.13s-.24.53-.54.55-.44.12-.31.41S83.35,90,83.67,90.16Z" transform="translate(3.26)"/><path class="cls-72" d="M86.09,94.2H89.3a7.53,7.53,0,0,0-2.43-1.91c-.57-.32-1.12,1.21-1,1.67A1,1,0,0,0,86.09,94.2Z" transform="translate(3.26)"/><path class="cls-72" d="M83.67,94.2a.71.71,0,0,0,.16-.24c.18-.46-.38-2-1-1.67a10.53,10.53,0,0,0-2.35,1.91Z" transform="translate(3.26)"/><path class="cls-45" d="M84.58,94.2h.27c.53-.17.76-.34.84-.56s-.26-.81-.6-.92-.86.67-.86.67S83.6,94,84.58,94.2Z" transform="translate(3.26)"/><path class="cls-46" d="M84.58,94.2h.28a1.57,1.57,0,0,0,.72-.38.47.47,0,0,0,.12-.23v0a.43.43,0,0,0,0-.25,1.2,1.2,0,0,0-.21-.34,1.15,1.15,0,0,0-.23-.21.44.44,0,0,0-.16-.06.49.49,0,0,0-.25.1.3.3,0,0,1,.18,0,.21.21,0,0,1,.13,0,1.07,1.07,0,0,1,.34.33c.09.13.24.54-.16.68a.4.4,0,0,1-.39-.09h0a2.26,2.26,0,0,0-.51-.47l-.16.14C84.14,93.48,83.68,94,84.58,94.2Z" transform="translate(3.26)"/><path class="cls-73" d="M83.17,94.2a7.84,7.84,0,0,0,.75-1l-.57.29-1,.47-.47.21Z" transform="translate(3.26)"/><path class="cls-24" d="M85.35,90.78a.4.4,0,1,1,.41-.4A.4.4,0,0,1,85.35,90.78Zm0-.75a.36.36,0,1,0,0,.71.36.36,0,1,0,0-.71Z" transform="translate(3.26)"/><path class="cls-24" d="M84.4,90.78a.4.4,0,1,1,0-.79.4.4,0,1,1,0,.79Zm0-.75a.36.36,0,1,0,0,.71.36.36,0,1,0,0-.71Z" transform="translate(3.26)"/><polygon class="cls-24" points="88.99 90.3 88.97 90.26 89.28 90.14 89.29 90.19 88.99 90.3"/><polygon class="cls-24" points="87.3 90.3 87 90.19 87.02 90.14 87.32 90.26 87.3 90.3"/><path class="cls-24" d="M84.72,90.35l0,0a.32.32,0,0,1,.37,0l0,0A.28.28,0,0,0,84.72,90.35Z" transform="translate(3.26)"/><path class="cls-24" d="M85.22,91a.33.33,0,0,1-.64,0c0-.09.14,0,.32,0S85.22,90.93,85.22,91Z" transform="translate(3.26)"/><g class="cls-49"><path class="cls-40" d="M84.87,90.8a.07.07,0,0,1-.06,0l0,0a.14.14,0,0,1,0-.14l0,0a.08.08,0,0,0,0,.09v0s0,0,.07,0l0,0Z" transform="translate(3.26)"/></g><path class="cls-72" d="M84.82,94.2a.79.79,0,0,0-.33-.76.39.39,0,0,0-.38-.09c-.75.39-1.27.7-1.61.85Z" transform="translate(3.26)"/></g><path class="cls-10" d="M76.41,83.32a2.76,2.76,0,1,1-2.76-2.68A2.71,2.71,0,0,1,76.41,83.32Z" transform="translate(3.26)"/><g class="cls-74"><path class="cls-24" d="M76.94,87.51v-.92a2.18,2.18,0,0,0-2.22-2.15H72.63a2.18,2.18,0,0,0-2.22,2.15v.92Z" transform="translate(3.26)"/><path class="cls-57" d="M76,87.51h1v-.92a2.16,2.16,0,0,0-1.09-1.86A6.8,6.8,0,0,1,76,87.51Z" transform="translate(3.26)"/><path class="cls-57" d="M71.15,87.51a4,4,0,0,1-.4-2.07,2.18,2.18,0,0,0-.34,1.15v.92Z" transform="translate(3.26)"/><path class="cls-39" d="M73.68,86.94h0a1.64,1.64,0,0,0,1.66-1.62v-.8a2.45,2.45,0,0,0-.62-.08H72.63a2.51,2.51,0,0,0-.62.08v.8A1.65,1.65,0,0,0,73.68,86.94Z" transform="translate(3.26)"/><path class="cls-39" d="M73.6,87.33h0a1.52,1.52,0,0,0,1.54-1.49V85.1a2.25,2.25,0,0,0-.58-.08H72.63a2.18,2.18,0,0,0-.57.08v.74A1.52,1.52,0,0,0,73.6,87.33Z" transform="translate(3.26)"/><path class="cls-59" d="M73,84.31a1.45,1.45,0,0,1,1.3,0C74.65,85.09,72.59,84.79,73,84.31Z" transform="translate(3.26)"/><path class="cls-60" d="M75.33,83.72a4.62,4.62,0,0,0-.57-1.37,1.41,1.41,0,0,0-1.15-.75,1.56,1.56,0,0,0-1.32,1.1,7,7,0,0,0-.48,2.59c0,.25,0,.82.34.76.24,0,.49-.32.65-.49a1.93,1.93,0,0,0,.47-.92.92.92,0,0,0,0-.59,4.25,4.25,0,0,0-.31-.43.93.93,0,0,1,.35-1.23c.08,0,.22,0,.35,0s.27-.09.35,0a1,1,0,0,1,.46.7c.07.41-.08.57-.38.82a.58.58,0,0,0-.2.24.44.44,0,0,0,.14.37c.2.24.26.26.26.57s0,.6.07.9,0,.87.37.78c.64-.2.8-1,.81-1.55A5.94,5.94,0,0,0,75.33,83.72Z" transform="translate(3.26)"/><path class="cls-40" d="M74.11,83.63a.74.74,0,0,0,.23.85c-.21.74-.73.68-.73.68s-.52.06-.73-.68a.74.74,0,0,0,.23-.85Z" transform="translate(3.26)"/><path class="cls-41" d="M73.61,84.48a1.1,1.1,0,0,0,.54-.24.74.74,0,0,1,0-.61h-1a.74.74,0,0,1,0,.61A1.1,1.1,0,0,0,73.61,84.48Z" transform="translate(3.26)"/><path class="cls-75" d="M72,87.51a3.43,3.43,0,0,0,.68-1.69,1,1,0,0,0-.67-1,5.86,5.86,0,0,0-1.67,2.72Z" transform="translate(3.26)"/><path class="cls-75" d="M76.81,87.51a5.83,5.83,0,0,0-1.57-2.68,1,1,0,0,0-.77,1,3.63,3.63,0,0,0,.68,1.69Z" transform="translate(3.26)"/><path class="cls-59" d="M71.7,87.51h3.82c0-.34.09-.64.13-.85A3.19,3.19,0,0,0,75.32,85a.31.31,0,0,0-.07-.12,7.61,7.61,0,0,0-1.08-.56s-.23.84-.56.85-.56-.85-.56-.85a7.61,7.61,0,0,0-1.08.56.31.31,0,0,0-.07.12,3.19,3.19,0,0,0-.33,1.67C71.61,86.87,71.65,87.17,71.7,87.51Z" transform="translate(3.26)"/><path class="cls-47" d="M71.51,87.51h4.14c.07-.34.14-.64.17-.85a3.44,3.44,0,0,0-.5-1.73.2.2,0,0,0-.07-.11,6.66,6.66,0,0,0-1.08-.56s-.23.84-.56.84-.56-.84-.56-.84a6.66,6.66,0,0,0-1.08.56.2.2,0,0,0-.07.11,3.43,3.43,0,0,0-.59,1.71A8.31,8.31,0,0,0,71.51,87.51Z" transform="translate(3.26)"/><g class="cls-76"><path class="cls-77" d="M74.66,87.51h.86c0-.34.09-.64.13-.85a2.94,2.94,0,0,0-.06-.91l0-.1s.23,1.06-1.48,1.22C73.42,87,74.17,87.08,74.66,87.51Z" transform="translate(3.26)"/><path class="cls-77" d="M71.7,87.51h.86c.48-.44,1-.53.38-.69-1.39-.11-1.31-1.07-1.31-1.07a2.94,2.94,0,0,0-.06.91C71.61,86.87,71.65,87.17,71.7,87.51Z" transform="translate(3.26)"/></g><g class="cls-49"><polygon class="cls-44" points="74.32 86.56 74.32 86.56 74.32 86.56 74.32 86.56"/></g><g class="cls-43"><path class="cls-44" d="M76.55,87.3" transform="translate(3.26)"/></g><path class="cls-51" d="M73.24,82.82s0,0,0,0h0l-.08,0-.07,0a0,0,0,0,0,0,.05,0,0,0,0,0,.06,0h0l0,0h0s0,0,0,0S73.25,82.83,73.24,82.82Z" transform="translate(3.26)"/><path class="cls-51" d="M74.11,82.85h0a.14.14,0,0,0-.11-.07h0l0,0v0l0,0s0,0,0,0h0l0,0h0s0,0,0,0h0a0,0,0,0,0,0,0Z" transform="translate(3.26)"/><path class="cls-40" d="M74.64,83.13a.18.18,0,0,1-.36,0,.22.22,0,0,1,.15-.25C74.53,82.91,74.63,83,74.64,83.13Z" transform="translate(3.26)"/><path class="cls-40" d="M72.64,83.13a.17.17,0,0,0,.16.2.17.17,0,0,0,.2-.16.22.22,0,0,0-.15-.25C72.75,82.91,72.65,83,72.64,83.13Z" transform="translate(3.26)"/><path class="cls-40" d="M74,82.39c-.08,0-.22,0-.35,0s-.27-.09-.35,0c-.75.44-.65,1.83.35,1.83S74.71,82.82,74,82.39Z" transform="translate(3.26)"/></g><path class="cls-51" d="M73.92,83.17h0s0,0,0,0h.15a0,0,0,0,0,0-.05.17.17,0,0,0-.12,0,.16.16,0,0,0-.11,0,0,0,0,0,0,0,0,0,0,0,0,0,0,0Z" transform="translate(3.26)"/><path class="cls-51" d="M73.89,82.9a.25.25,0,0,1,.27,0s.06,0,0-.05a.34.34,0,0,0-.17,0,.29.29,0,0,0-.16,0s0,.08,0,.06Z" transform="translate(3.26)"/><path class="cls-51" d="M73.18,83.17h0s0,0,0,0h.14s0,0,0-.05a.13.13,0,0,0-.11,0,.16.16,0,0,0-.11,0s0,0,0,0a0,0,0,0,0,0,0Z" transform="translate(3.26)"/><path class="cls-51" d="M73.12,82.9a.28.28,0,0,1,.13,0,.33.33,0,0,1,.13,0s.07,0,0-.05a.3.3,0,0,0-.16,0,.47.47,0,0,0-.17,0,0,0,0,0,0,0,.06Z" transform="translate(3.26)"/><path class="cls-24" d="M74,83.73a.34.34,0,0,1-.64,0c0-.09.14,0,.32,0S74,83.64,74,83.73Z" transform="translate(3.26)"/><g class="cls-49"><path class="cls-40" d="M73.61,83.51a.07.07,0,0,1-.06,0l0,0a.11.11,0,0,1,0-.13l0,0a.08.08,0,0,0,0,.09,0,0,0,0,0,0,0s0,0,.07,0v0Z" transform="translate(3.26)"/></g><path class="cls-24" d="M86.92,82.17H77.53a.25.25,0,1,1,0-.49h9.39a.25.25,0,1,1,0,.49Z" transform="translate(3.26)"/><path class="cls-24" d="M82.75,83.19H77.38a.25.25,0,1,1,0-.49h5.37a.25.25,0,1,1,0,.49Z" transform="translate(3.26)"/><path class="cls-24" d="M80.49,84.32h-3a.25.25,0,0,1-.25-.24.24.24,0,0,1,.25-.24h3a.24.24,0,0,1,.25.24A.25.25,0,0,1,80.49,84.32Z" transform="translate(3.26)"/><path class="cls-24" d="M85,84.32H83.8a.25.25,0,0,1-.25-.24.25.25,0,0,1,.25-.24H85a.24.24,0,0,1,.25.24A.25.25,0,0,1,85,84.32Z" transform="translate(3.26)"/><path class="cls-24" d="M71.29,89.9h9.4a.25.25,0,1,0,0-.49h-9.4a.25.25,0,1,0,0,.49Z" transform="translate(3.26)"/><path class="cls-24" d="M75.47,90.92h5.37a.25.25,0,1,0,0-.49H75.47a.25.25,0,1,0,0,.49Z" transform="translate(3.26)"/><path class="cls-24" d="M77.73,92.06h3a.25.25,0,1,0,0-.49h-3a.25.25,0,1,0,0,.49Z" transform="translate(3.26)"/><ellipse class="cls-10" cx="88.06" cy="106.24" rx="2.76" ry="2.68"/><g class="cls-78"><path class="cls-24" d="M88.62,110v-.26a2.51,2.51,0,0,0-2.55-2.47H83.68a2.51,2.51,0,0,0-2.55,2.47V110Z" transform="translate(3.26)"/><g class="cls-37"><path class="cls-38" d="M87.59,110h1v-.26a2.46,2.46,0,0,0-1.26-2.13A9.07,9.07,0,0,1,87.59,110Z" transform="translate(3.26)"/></g><g class="cls-37"><path class="cls-38" d="M81.68,110a4.39,4.39,0,0,1-.15-1.58,2.39,2.39,0,0,0-.4,1.32V110Z" transform="translate(3.26)"/></g><path class="cls-39" d="M84.17,110h1.41a1.85,1.85,0,0,0,1.21-1.72v-.91a2.46,2.46,0,0,0-.72-.1H83.68a2.46,2.46,0,0,0-.72.1v.91A1.85,1.85,0,0,0,84.17,110Z" transform="translate(3.26)"/><path class="cls-44" d="M84.16,107.51a1.62,1.62,0,0,1,1.43,0C86,108.37,83.76,108,84.16,107.51Z" transform="translate(3.26)"/><path class="cls-45" d="M86.22,106.21a.33.33,0,0,1-.3.37.34.34,0,0,1-.39-.29.41.41,0,0,1,.3-.46C86,105.81,86.19,106,86.22,106.21Z" transform="translate(3.26)"/><path class="cls-45" d="M83.53,106.21a.33.33,0,0,0,.3.37.34.34,0,0,0,.39-.29.41.41,0,0,0-.3-.46C83.74,105.81,83.56,106,83.53,106.21Z" transform="translate(3.26)"/><path class="cls-45" d="M85.43,106.76a.81.81,0,0,0,.25.94c-.23.82-.81.74-.81.74s-.57.08-.8-.74a.81.81,0,0,0,.25-.94Z" transform="translate(3.26)"/><path class="cls-46" d="M84.87,107.69a1.13,1.13,0,0,0,.59-.26.81.81,0,0,1,0-.67H84.32a.79.79,0,0,1,0,.67A1.21,1.21,0,0,0,84.87,107.69Z" transform="translate(3.26)"/><path class="cls-24" d="M87.5,110a5.37,5.37,0,0,0-.5-1.84,9.82,9.82,0,0,0-1.41-.62,1,1,0,0,1-1.43,0,9.82,9.82,0,0,0-1.41.62,5.37,5.37,0,0,0-.5,1.84Z" transform="translate(3.26)"/><path class="cls-47" d="M84.11,110v-2.44a8.89,8.89,0,0,0-1.36.6,5.37,5.37,0,0,0-.5,1.84Z" transform="translate(3.26)"/><path class="cls-47" d="M87.5,110a5.37,5.37,0,0,0-.5-1.84,9.35,9.35,0,0,0-1.3-.58V110Z" transform="translate(3.26)"/><path class="cls-45" d="M85.92,106.32a1,1,0,1,1-2.09,0c0-.67.47-1.34,1-1.34S85.92,105.65,85.92,106.32Z" transform="translate(3.26)"/><path class="cls-51" d="M85.42,106a.1.1,0,0,1-.11.1.1.1,0,0,1-.1-.1.11.11,0,0,1,.1-.1A.11.11,0,0,1,85.42,106Z" transform="translate(3.26)"/><path class="cls-51" d="M84.54,106a.1.1,0,0,1-.1.1.1.1,0,0,1-.11-.1.11.11,0,0,1,.11-.1A.11.11,0,0,1,84.54,106Z" transform="translate(3.26)"/><path class="cls-51" d="M84.58,105.7a.23.23,0,0,0-.21,0,.29.29,0,0,0-.19.11s0,0,0,0a.06.06,0,0,0,.06,0,.24.24,0,0,1,.13-.07.12.12,0,0,1,.14,0h.06S84.6,105.71,84.58,105.7Z" transform="translate(3.26)"/><path class="cls-51" d="M85.46,105.72l0,0a.19.19,0,0,0-.1,0,.32.32,0,0,0-.2.07,0,0,0,0,0,.06.06.18.18,0,0,1,.12-.05l.07,0h0s0,0,0,0h0a.05.05,0,0,0,0,0A.09.09,0,0,0,85.46,105.72Z" transform="translate(3.26)"/><path class="cls-52" d="M83.67,105.93s.11.11.11.51c0,.09.13.08.15,0s-.06-.54.06-.64.32-.14.27-.42.18-.22.38-.1a.81.81,0,0,0,.76,0c.24-.1.22.39.35.54s0,.59.08.63.1,0,.14-.09,0-.47.09-.51.16-.33,0-.51.16-.52-.06-.7a.67.67,0,0,0-.8-.18c-.24.1-.49-.28-.83-.14s-.24.54-.54.56-.44.12-.31.41S83.35,105.76,83.67,105.93Z" transform="translate(3.26)"/><path class="cls-72" d="M86.09,110H89.3a7.6,7.6,0,0,0-2.43-1.92c-.57-.32-1.12,1.22-1,1.68A1,1,0,0,0,86.09,110Z" transform="translate(3.26)"/><path class="cls-72" d="M83.67,110a.71.71,0,0,0,.16-.24c.18-.46-.38-2-1-1.68A10.93,10.93,0,0,0,80.53,110Z" transform="translate(3.26)"/><path class="cls-45" d="M84.58,110h.27c.53-.18.76-.34.84-.56s-.26-.81-.6-.92-.86.67-.86.67S83.6,109.74,84.58,110Z" transform="translate(3.26)"/><path class="cls-46" d="M84.58,110h.28a1.67,1.67,0,0,0,.72-.38.47.47,0,0,0,.12-.23v0a.42.42,0,0,0,0-.24,1.2,1.2,0,0,0-.21-.34.91.91,0,0,0-.23-.21.31.31,0,0,0-.16-.06.49.49,0,0,0-.25.1.41.41,0,0,1,.18,0l.13,0a1.19,1.19,0,0,1,.34.33c.09.14.24.54-.16.69a.4.4,0,0,1-.39-.09v0a2.06,2.06,0,0,0-.51-.46l-.16.14C84.14,109.25,83.68,109.76,84.58,110Z" transform="translate(3.26)"/><path class="cls-73" d="M83.17,110a8.67,8.67,0,0,0,.75-1l-.57.29-1,.46-.47.22Z" transform="translate(3.26)"/><path class="cls-24" d="M85.35,106.55a.4.4,0,0,1-.4-.4.41.41,0,0,1,.81,0A.4.4,0,0,1,85.35,106.55Zm0-.75a.36.36,0,0,0-.36.35.35.35,0,0,0,.36.35.36.36,0,0,0,.37-.35A.37.37,0,0,0,85.35,105.8Z" transform="translate(3.26)"/><path class="cls-24" d="M84.4,106.55a.4.4,0,0,1-.41-.4.41.41,0,0,1,.81,0A.4.4,0,0,1,84.4,106.55Zm0-.75a.37.37,0,0,0-.37.35.36.36,0,0,0,.37.35.35.35,0,0,0,.36-.35A.36.36,0,0,0,84.4,105.8Z" transform="translate(3.26)"/><polygon class="cls-24" points="88.99 106.07 88.97 106.03 89.28 105.91 89.29 105.95 88.99 106.07"/><polygon class="cls-24" points="87.3 106.07 87 105.95 87.02 105.91 87.32 106.03 87.3 106.07"/><path class="cls-24" d="M84.72,106.12l0,0a.32.32,0,0,1,.37,0l0,0A.26.26,0,0,0,84.72,106.12Z" transform="translate(3.26)"/><path class="cls-24" d="M85.22,106.79a.34.34,0,0,1-.64,0c0-.09.14,0,.32,0S85.22,106.7,85.22,106.79Z" transform="translate(3.26)"/><g class="cls-49"><path class="cls-40" d="M84.87,106.57a.07.07,0,0,1-.06,0s0,0,0,0a.13.13,0,0,1,0-.13l0,0a.08.08,0,0,0,0,.09,0,0,0,0,0,0,0s0,0,.07,0l0,0Z" transform="translate(3.26)"/></g><path class="cls-72" d="M84.82,110a.8.8,0,0,0-.33-.77.41.41,0,0,0-.38-.09c-.75.4-1.27.71-1.61.86Z" transform="translate(3.26)"/></g><ellipse class="cls-10" cx="76.91" cy="99.08" rx="2.76" ry="2.68"/><g class="cls-79"><path class="cls-24" d="M76.94,103.28v-.92a2.18,2.18,0,0,0-2.22-2.15H72.63a2.18,2.18,0,0,0-2.22,2.15v.92Z" transform="translate(3.26)"/><path class="cls-57" d="M76,103.28h1v-.92a2.16,2.16,0,0,0-1.09-1.86A6.8,6.8,0,0,1,76,103.28Z" transform="translate(3.26)"/><path class="cls-57" d="M71.15,103.28a4,4,0,0,1-.4-2.07,2.15,2.15,0,0,0-.34,1.15v.92Z" transform="translate(3.26)"/><path class="cls-39" d="M73.68,102.71h0a1.64,1.64,0,0,0,1.66-1.62v-.8a2.45,2.45,0,0,0-.62-.08H72.63a2.51,2.51,0,0,0-.62.08v.8A1.65,1.65,0,0,0,73.68,102.71Z" transform="translate(3.26)"/><path class="cls-39" d="M73.6,103.1h0a1.52,1.52,0,0,0,1.54-1.5v-.73a2.25,2.25,0,0,0-.58-.08H72.63a2.18,2.18,0,0,0-.57.08v.73A1.52,1.52,0,0,0,73.6,103.1Z" transform="translate(3.26)"/><path class="cls-59" d="M73,100.08a1.45,1.45,0,0,1,1.3,0C74.65,100.86,72.59,100.55,73,100.08Z" transform="translate(3.26)"/><path class="cls-60" d="M75.33,99.49a4.62,4.62,0,0,0-.57-1.37,1.39,1.39,0,0,0-1.15-.75,1.56,1.56,0,0,0-1.32,1.1,7,7,0,0,0-.48,2.59c0,.25,0,.82.34.76.24,0,.49-.32.65-.49a1.93,1.93,0,0,0,.47-.92.92.92,0,0,0,0-.59c-.07-.16-.22-.28-.31-.44a.92.92,0,0,1,.35-1.22c.08,0,.22,0,.35,0s.27-.09.35,0a1,1,0,0,1,.46.7c.07.41-.08.57-.38.82a.58.58,0,0,0-.2.24.46.46,0,0,0,.14.37c.2.24.26.25.26.57s0,.6.07.9,0,.87.37.77c.64-.19.8-1,.81-1.55A5.86,5.86,0,0,0,75.33,99.49Z" transform="translate(3.26)"/><path class="cls-40" d="M74.11,99.39a.76.76,0,0,0,.23.86c-.21.74-.73.67-.73.67s-.52.07-.73-.67a.76.76,0,0,0,.23-.86Z" transform="translate(3.26)"/><path class="cls-41" d="M73.61,100.24a1.09,1.09,0,0,0,.54-.23.76.76,0,0,1,0-.62h-1a.76.76,0,0,1,0,.62A1.09,1.09,0,0,0,73.61,100.24Z" transform="translate(3.26)"/><path class="cls-75" d="M72,103.28a3.43,3.43,0,0,0,.68-1.69,1,1,0,0,0-.67-1,5.79,5.79,0,0,0-1.67,2.72Z" transform="translate(3.26)"/><path class="cls-75" d="M76.81,103.28a5.76,5.76,0,0,0-1.57-2.68,1,1,0,0,0-.77,1,3.63,3.63,0,0,0,.68,1.69Z" transform="translate(3.26)"/><path class="cls-59" d="M71.7,103.28h3.82c0-.34.09-.64.13-.85a3.23,3.23,0,0,0-.33-1.68.2.2,0,0,0-.07-.11,7.61,7.61,0,0,0-1.08-.56s-.23.84-.56.85-.56-.85-.56-.85a7.61,7.61,0,0,0-1.08.56.2.2,0,0,0-.07.11,3.23,3.23,0,0,0-.33,1.68C71.61,102.64,71.65,102.94,71.7,103.28Z" transform="translate(3.26)"/><path class="cls-47" d="M71.51,103.28h4.14c.07-.34.14-.64.17-.85a3.44,3.44,0,0,0-.5-1.73.31.31,0,0,0-.07-.12,7.29,7.29,0,0,0-1.08-.55s-.23.84-.56.84-.56-.84-.56-.84a7.29,7.29,0,0,0-1.08.55.31.31,0,0,0-.07.12,3.43,3.43,0,0,0-.59,1.71C71.34,102.63,71.42,102.93,71.51,103.28Z" transform="translate(3.26)"/><g class="cls-76"><path class="cls-77" d="M74.66,103.28h.86c0-.34.09-.64.13-.85a2.92,2.92,0,0,0-.06-.91l0-.1s.23,1-1.48,1.22C73.42,102.79,74.17,102.84,74.66,103.28Z" transform="translate(3.26)"/><path class="cls-77" d="M71.7,103.28h.86c.48-.44,1-.54.38-.69-1.39-.12-1.31-1.07-1.31-1.07a2.92,2.92,0,0,0-.06.91C71.61,102.64,71.65,102.94,71.7,103.28Z" transform="translate(3.26)"/></g><g class="cls-49"><polygon class="cls-44" points="74.32 102.32 74.32 102.32 74.32 102.32 74.32 102.32"/></g><g class="cls-43"><path class="cls-44" d="M76.55,103.07" transform="translate(3.26)"/></g><path class="cls-51" d="M73.24,98.59a0,0,0,0,0,0,0h0l-.08,0a.18.18,0,0,0-.07.05,0,0,0,0,0,0,0,.06.06,0,0,0,.06,0h0l0,0h.06S73.25,98.6,73.24,98.59Z" transform="translate(3.26)"/><path class="cls-51" d="M74.11,98.62h0a.21.21,0,0,0-.11-.07h0l0,0v0l0,0h0l0,0s0,0,0,0h0l0,0s0,0,0,0l0,0Z" transform="translate(3.26)"/><path class="cls-40" d="M74.64,98.9a.18.18,0,0,1-.16.2.17.17,0,0,1-.2-.16.21.21,0,0,1,.15-.25A.22.22,0,0,1,74.64,98.9Z" transform="translate(3.26)"/><path class="cls-40" d="M72.64,98.9a.18.18,0,0,0,.36,0,.21.21,0,0,0-.15-.25A.22.22,0,0,0,72.64,98.9Z" transform="translate(3.26)"/><path class="cls-40" d="M74,98.16c-.08,0-.22,0-.35,0s-.27-.09-.35,0c-.75.44-.65,1.82.35,1.82S74.71,98.59,74,98.16Z" transform="translate(3.26)"/></g><path class="cls-51" d="M73.92,98.94h0l0,0h.1s0,0,0,0a0,0,0,0,0,0,0,.23.23,0,0,0-.12-.06.16.16,0,0,0-.11,0,0,0,0,0,0,0,0,0,0,0,0,0,0,0Z" transform="translate(3.26)"/><path class="cls-51" d="M73.89,98.67a.22.22,0,0,1,.13,0,.33.33,0,0,1,.14,0s.06,0,0,0a.49.49,0,0,0-.17-.06.3.3,0,0,0-.16,0,0,0,0,1,0,0,.06Z" transform="translate(3.26)"/><path class="cls-51" d="M73.18,98.94h0l0,0h.1s0,0,0,0a0,0,0,0,0,0,0,.17.17,0,0,0-.11-.06.16.16,0,0,0-.11,0s0,0,0,0a0,0,0,0,0,0,0Z" transform="translate(3.26)"/><path class="cls-51" d="M73.12,98.67a.2.2,0,0,1,.13,0,.33.33,0,0,1,.13,0s.07,0,0,0a.44.44,0,0,0-.16-.06.34.34,0,0,0-.17,0s0,.08,0,.06Z" transform="translate(3.26)"/><path class="cls-24" d="M74,99.5a.34.34,0,0,1-.64,0c0-.09.14,0,.32,0S74,99.41,74,99.5Z" transform="translate(3.26)"/><g class="cls-49"><path class="cls-40" d="M73.61,99.28l-.06,0,0,0a.13.13,0,0,1,0-.14l0,0a.1.1,0,0,0,0,.1,0,0,0,0,0,0,0h.07v0Z" transform="translate(3.26)"/></g><path class="cls-24" d="M86.92,97.93H77.53a.25.25,0,1,1,0-.49h9.39a.25.25,0,1,1,0,.49Z" transform="translate(3.26)"/><path class="cls-24" d="M82.75,99H77.38a.25.25,0,0,1-.26-.24.25.25,0,0,1,.26-.24h5.37a.24.24,0,0,1,.25.24A.25.25,0,0,1,82.75,99Z" transform="translate(3.26)"/><path class="cls-24" d="M71.29,105.67h9.4a.25.25,0,1,0,0-.49h-9.4a.25.25,0,1,0,0,.49Z" transform="translate(3.26)"/><path class="cls-24" d="M75.47,106.69h5.37a.25.25,0,1,0,0-.49H75.47a.25.25,0,1,0,0,.49Z" transform="translate(3.26)"/><ellipse class="cls-80" cx="97.92" cy="71.69" rx="0.54" ry="0.53"/><path class="cls-81" d="M96.83,71.69a.54.54,0,0,1-1.08,0,.54.54,0,0,1,1.08,0Z" transform="translate(3.26)"/><path class="cls-82" d="M98.46,71.69a.54.54,0,0,1-.55.52.53.53,0,0,1-.54-.52.54.54,0,0,1,.54-.53A.54.54,0,0,1,98.46,71.69Z" transform="translate(3.26)"/><path class="cls-80" d="M95.21,101.47a.54.54,0,0,1-.55.52.53.53,0,1,1,0-1A.54.54,0,0,1,95.21,101.47Z" transform="translate(3.26)"/><path class="cls-81" d="M96.83,101.47a.54.54,0,1,1-.54-.53A.53.53,0,0,1,96.83,101.47Z" transform="translate(3.26)"/><path class="cls-82" d="M98.46,101.47a.54.54,0,0,1-.55.52.53.53,0,1,1,0-1A.54.54,0,0,1,98.46,101.47Z" transform="translate(3.26)"/><rect class="cls-83" x="71.09" y="69.51" width="22.37" height="59.29"/><path class="cls-84" d="M87.87,110.1H74.05a2,2,0,0,0-2,2v3.56c-.45.6-3,5.12-3,5.12l5.75-2.41H87.87a2,2,0,0,0,2-2V112.1A2,2,0,0,0,87.87,110.1Z" transform="translate(3.26)"/><g class="cls-85"><path class="cls-86" d="M90.46,110.81l-15.38-1.14a2.2,2.2,0,0,0-2.39,2l-.28,3.86c-.56.62-3.77,5.29-3.77,5.29l6.6-2.13,14.55,1.09a2.21,2.21,0,0,0,2.39-2l.35-4.63A2.22,2.22,0,0,0,90.46,110.81Z" transform="translate(3.26)"/></g><path class="cls-24" d="M87.11,113H74.85a.39.39,0,1,1,0-.78H87.11a.39.39,0,1,1,0,.78Z" transform="translate(3.26)"/><path class="cls-24" d="M87.28,116.62H78.47a.4.4,0,0,1,0-.79h8.81a.4.4,0,0,1,0,.79Z" transform="translate(3.26)"/><path class="cls-24" d="M80.89,114.89H75a.39.39,0,0,1-.39-.39.38.38,0,0,1,.39-.39h5.87a.38.38,0,0,1,.39.39A.39.39,0,0,1,80.89,114.89Z" transform="translate(3.26)"/><path class="cls-87" d="M69,80.66l-.28-2.84a1.6,1.6,0,0,0-1.75-1.43L56,77.46a1.61,1.61,0,0,0-1.44,1.75l.33,3.39A1.61,1.61,0,0,0,56.6,84L67,83l4.75,1.46S69.36,81.1,69,80.66Z" transform="translate(3.26)"/><path class="cls-24" d="M56.86,75.49h11a1.6,1.6,0,0,1,1.6,1.6v2.84c.36.48,2.4,4.08,2.4,4.08L67.3,82.09H56.86a1.6,1.6,0,0,1-1.6-1.6v-3.4A1.6,1.6,0,0,1,56.86,75.49Z" transform="translate(3.26)"/><path class="cls-10" d="M60.59,78.24a.54.54,0,1,1-.54.53A.53.53,0,0,1,60.59,78.24Z" transform="translate(3.26)"/><path class="cls-10" d="M62.33,78.24a.54.54,0,0,1,0,1.07.54.54,0,1,1,0-1.07Z" transform="translate(3.26)"/><path class="cls-10" d="M64.07,78.24a.54.54,0,1,1-.53.53A.53.53,0,0,1,64.07,78.24Z" transform="translate(3.26)"/><polygon class="cls-26" points="119.64 186.53 117.25 186.54 107.02 156.63 109.42 156.62 119.64 186.53"/><polygon class="cls-26" points="31.72 186.53 34.12 186.54 44.34 156.63 41.94 156.62 31.72 186.53"/><path class="cls-88" d="M40.94,139.76s-12.67,14.39-12.67,22.83c0,12.9,34.3,10.41,34.3,10.41l-3.5-7.11s-10.22-.74-14.18-2.21S51.42,147,51.42,147L49,143.24Z" transform="translate(3.26)"/><path class="cls-88" d="M73.93,139.76S86.6,154.15,86.6,162.59c0,12.9-34.3,10.41-34.3,10.41l3.5-7.11S66,165.15,70,163.68,63.45,147,63.45,147l2.41-3.74Z" transform="translate(3.26)"/><path class="cls-89" d="M86.6,162.59c0-8.44-12.67-22.83-12.67-22.83l-.29.13c4.93,6.14,10.11,14.26,9.28,20.51C81.38,172,71.76,171.36,66.05,173h0C75.6,172.27,86.6,169.9,86.6,162.59Z" transform="translate(3.26)"/><path class="cls-26" d="M35.36,197.76H51l.06-.6c1-9.93.2-11.72-10.2-12-6.18-.16-6.13,8.73-5.65,11.69C35.28,197.13,35.32,197.44,35.36,197.76Z" transform="translate(3.26)"/><path class="cls-90" d="M49.63,197.76A14.19,14.19,0,0,0,47,195c-1-.34-1.22-1.73-1.91-1.21l-6.12,3.6s.15.15.39.42Z" transform="translate(3.26)"/><path class="cls-91" d="M61.73,197.76H77.4c0-.32.07-.63.12-.92.48-3,.52-11.85-5.65-11.69-10.4.29-11.22,2.08-10.21,12C61.68,197.36,61.71,197.57,61.73,197.76Z" transform="translate(3.26)"/><path class="cls-90" d="M73.45,197.76c.23-.27.38-.42.38-.42l-6.11-3.6c-.7-.52-.87.87-1.91,1.21a13.89,13.89,0,0,0-2.68,2.81Z" transform="translate(3.26)"/><path class="cls-26" d="M75.47,197.76c4.68-6.94-.93-17-.93-17H40.13s-5.62,10.1-.93,17Z" transform="translate(3.26)"/><g class="cls-92"><path class="cls-26" d="M71.54,195.68a4.32,4.32,0,0,1-.92,2.08h4.85c4.68-6.94-.93-17-.93-17H67.71l-4.17,7.57S72.29,191,71.54,195.68Z" transform="translate(3.26)"/></g><path class="cls-93" d="M81.64,197.76a9.4,9.4,0,0,0,.32-2.45.67.67,0,0,0-.67-.67H33.38a.67.67,0,0,0-.67.67,9.85,9.85,0,0,0,.31,2.45Z" transform="translate(3.26)"/><path class="cls-94" d="M81.64,197.76a9.4,9.4,0,0,0,.32-2.45.67.67,0,0,0-.67-.67H77.6a9.45,9.45,0,0,1-1.06,3.12Z" transform="translate(3.26)"/><path class="cls-95" d="M53.42,123.65c-.21,5.24-1.21,11.37-2.06,13.64,2,1,4.1,2.68,6,2.45,1.86.23,4.16-1.49,6.22-2.45-.85-2.27-1.85-8.4-2.07-13.64Z" transform="translate(3.26)"/><path class="cls-96" d="M61.47,123.65H61a8.88,8.88,0,0,1-2.9,4.66c-1.78,4.85,1.9,6.43,2.18,6.47a17.67,17.67,0,0,0,2.28-1.27A73.88,73.88,0,0,1,61.47,123.65Z" transform="translate(3.26)"/><path class="cls-95" d="M48,120.53c0-1.58.66-2.9,1.56-3.26.87-4.28,4-7.44,7.7-7.44s6.84,3.19,7.7,7.49a3.56,3.56,0,0,1,1.46,3.21c0,1.8-.87,3.26-1.95,3.35-1.26,3.39-4,5.75-7.21,5.75s-5.95-2.35-7.22-5.74C49,123.88,48,122.38,48,120.53Z" transform="translate(3.26)"/><path class="cls-96" d="M64.51,123.88c1.08-.09,1.95-1.55,1.95-3.35A3.56,3.56,0,0,0,65,117.32,10.64,10.64,0,0,0,63.1,113l-.93,2.14s.21,10.18-4,13.19a8.68,8.68,0,0,0-.37,1.3C60.77,129.39,63.31,127.1,64.51,123.88Z" transform="translate(3.26)"/><path class="cls-97" d="M57.45,106.29c-9.39.08-8.37,9.41-8.37,9.41a1.3,1.3,0,0,0,.05,2c1.12,1.15,1.73,3.56,2,7.69,2.32,2.46,6.09,2.33,6.09,2.33s3.76.13,6.08-2.33c.31-4.13.93-6.54,2-7.69a1.3,1.3,0,0,0,0-2s2.82-5.37-2.3-5.67C61.5,107.21,59.15,106.27,57.45,106.29Z" transform="translate(3.26)"/><g class="cls-43"><path class="cls-97" d="M49.08,115.7a10.2,10.2,0,0,1,3.37-6.84,9.48,9.48,0,0,1,7.47-1.43,9.35,9.35,0,0,0-7.26,1.69A10.07,10.07,0,0,0,49.08,115.7Z" transform="translate(3.26)"/></g><g class="cls-43"><path class="cls-97" d="M49.65,118.26a11.71,11.71,0,0,1,2.83-7.75c2-2.08,5.12-2.59,7.84-2.3-2.74-.18-5.74.46-7.6,2.54A11.55,11.55,0,0,0,49.65,118.26Z" transform="translate(3.26)"/></g><path class="cls-98" d="M63.13,110a7.51,7.51,0,0,0-3.74-3.38,5,5,0,0,1,1,5.07c3.12,2.87,3.05,12.27-2.27,16a8.28,8.28,0,0,0,5.2-2.29c.31-4.13.93-6.54,2-7.69a1.3,1.3,0,0,0,0-2S68.25,110.33,63.13,110Z" transform="translate(3.26)"/><ellipse class="cls-99" cx="60.59" cy="135.94" rx="8.72" ry="7.3"/><ellipse class="cls-100" cx="60.59" cy="138.04" rx="8.72" ry="7.3"/><path class="cls-88" d="M75.45,173.93c-.23-16.18,1.14-27.6.32-31-1.91-5-6-7.46-15.28-11.12v0a10.15,10.15,0,0,0-3.16-.5,9.87,9.87,0,0,0-4.81,1.22C44.6,135.88,40.9,138.34,39.13,143c-.8,3.26-.5,15.57-.58,31,0,5.22-2.49,9.8-1.41,11.7,2.6,4.56,18.19,5.34,20.38,5.34,2.45,0,16.24-.57,20.23-5.34C78.24,182.69,75.52,178.83,75.45,173.93Z" transform="translate(3.26)"/><g class="cls-101"><path class="cls-102" d="M71.64,137.48c1.24,1.44,2.55,3.05,3.82,4.76A12.31,12.31,0,0,0,71.64,137.48Z" transform="translate(3.26)"/><path class="cls-103" d="M75.45,173.93c0-1.1,0-2.18,0-3.25-3.15,1.26-6.69,1.52-9.37,2.27-3.69,1,.83,13.51,5.41,16.13,2.86-.72,5.92-2.68,6.25-3.46a1.91,1.91,0,0,0,.09-.94C77.7,181.88,75.51,178.32,75.45,173.93Z" transform="translate(3.26)"/></g><g class="cls-104"><polygon class="cls-105" points="70.77 189.16 70.77 189.16 70.77 189.16 70.77 189.16"/></g><path class="cls-9" d="M62.57,130.85" transform="translate(3.26)"/><path class="cls-106" d="M67.3,187c-4.64,1.41-15.3,1.41-19.93,0-4-1.22-8.35-6-9.63-9.12-2.51-6.11-3.05-26-3.05-26,0-4.57,4.14-8.52,10-9.5h0a77.09,77.09,0,0,1,25.36,0h0c5.82,1,10,4.93,10,9.5,0,0-.54,19.88-3,26C75.64,181,71.34,185.77,67.3,187Z" transform="translate(3.26)"/><path class="cls-107" d="M66.44,188.9c-4.23,1.41-14,1.41-18.21,0-3.7-1.22-7.63-6-8.81-9.12-2.29-6.11-2.79-26-2.79-26,0-4.57,3.79-8.52,9.11-9.5h0a64.55,64.55,0,0,1,23.19,0h0c5.32,1,9.11,4.93,9.11,9.5,0,0-.5,19.88-2.79,26C74.07,182.91,70.14,187.68,66.44,188.9Z" transform="translate(3.26)"/><path class="cls-108" d="M68.93,144.29h0q-2.85-.53-5.73-.79c2.55,1,4.29,2.32,3.68,4.2,4.34,3.82,8.1,8.6,10.92,12,.18-3.43.24-5.88.24-5.88C78,149.22,74.25,145.27,68.93,144.29Z" transform="translate(3.26)"/><path class="cls-93" d="M66.44,192.65c-4.23,1.4-14,1.4-18.21,0-3.7-1.23-7.63-6-8.81-9.13-2.29-6.1-2.79-26-2.79-26,0-4.57,3.79-8.53,9.11-9.5h0a64.1,64.1,0,0,1,23.19,0h0c5.32,1,9.11,4.93,9.11,9.5,0,0-.5,19.88-2.79,26C74.07,186.66,70.14,191.42,66.44,192.65Z" transform="translate(3.26)"/><path class="cls-94" d="M68.93,148h0c-.68-.13-1.37-.24-2.05-.34,2.4,4.75,4.09,11.41,3.74,20.7-.63,16.49-10.77,23.34-21.43,24.52,4.6,1.13,13.31,1,17.25-.27,3.7-1.23,7.63-6,8.81-9.13,2.29-6.1,2.79-26,2.79-26C78,153,74.25,149,68.93,148Z" transform="translate(3.26)"/><path class="cls-97" d="M59.07,197.76V166.42a1.74,1.74,0,0,0-3.47,0v31.34Z" transform="translate(3.26)"/><path class="cls-90" d="M59.07,197.76V165.47a.79.79,0,0,0-1.57,0v32.29Z" transform="translate(3.26)"/><path class="cls-109" d="M74.51,185.15" transform="translate(3.26)"/><g class="cls-110"><path class="cls-111" d="M37.68,194.64h1.67c-.07-2.73.4-6.53,2.56-8.38a3.5,3.5,0,0,1-.48-.63c-.75-1.32.21-3.94.87-7.16q-.15-.32-.27-.6a33,33,0,0,1-1.61-7.18c-4.55-1.58-7.86-4.1-7.86-8.1,0-8.44,12.67-22.83,12.67-22.83h0c1.68-2.12,4.18-3.78,7.93-5.54a7.57,7.57,0,0,1,4-4.56c.07-.51.13-1,.18-1.55a9.67,9.67,0,0,1-3-4.22c-1.13,0-2.05-1.51-2.05-3.36a4.05,4.05,0,0,1,1-2.9,1.28,1.28,0,0,1,0-1.93s-.82-7.49,5.77-9.11a5.17,5.17,0,0,0-1.7-.3c-9.39.08-8.37,9.41-8.37,9.41a1.28,1.28,0,0,0,0,1.93,4.09,4.09,0,0,0-1,2.9c0,1.85.91,3.35,2.05,3.36a9.51,9.51,0,0,0,3,4.22c-.06.52-.11,1-.18,1.55a7.57,7.57,0,0,0-4,4.56c-3.75,1.76-6.26,3.42-7.93,5.54h0s-12.67,14.39-12.67,22.83c0,4,3.3,6.52,7.86,8.1a33,33,0,0,0,1.61,7.18q.12.28.27.6c-.66,3.22-1.62,5.84-.87,7.16a3.44,3.44,0,0,0,.47.63c-2.15,1.85-2.62,5.65-2.56,8.38H33.38a.67.67,0,0,0-.67.67,9.85,9.85,0,0,0,.31,2.45h4.3a9.4,9.4,0,0,1-.31-2.45A.67.67,0,0,1,37.68,194.64Z" transform="translate(3.26)"/></g><rect class="cls-112" x="3.26" y="185.48" width="192.02" height="13.84"/><rect class="cls-34" x="26.7" y="185.11" width="75.3" height="0.75"/><rect class="cls-34" x="106.76" y="185.11" width="6.96" height="0.75"/><rect class="cls-34" x="148.73" y="185.11" width="37.05" height="0.75"/><path class="cls-14" d="M155.35,40.46h-2.48V36.7s0,0,0,0h2.49v-.88c-2.13,0-4.26,0-6.39.1a.58.58,0,0,0,0-.19V32.15h6.36v-.88H142.13a.44.44,0,0,0,0,.88h6v3.53a.46.46,0,0,0,0,.21h-.33c-1,0-2,.06-3.05.12-.56,0-.57.91,0,.88,2.4-.14,4.81-.19,7.22-.22,0,0,0,0,0,0v3.75c-2.75,0-5.5.06-8.24.13-1,0-2,.06-3.05.12-.56,0-.57.91,0,.88,4.41-.25,8.85-.24,13.27-.25h1.38Z" transform="translate(3.26)"/><g class="cls-15"><rect class="cls-10" x="63.02" y="22.17" width="7.19" height="3.03"/><rect class="cls-10" x="54.09" y="15.96" width="11.19" height="4.79"/></g></g><g id="Text"><path class="cls-113" d="M154,134.35a1.86,1.86,0,1,1-1.86-1.85A1.81,1.81,0,0,1,154,134.35Zm-.55,0a1.31,1.31,0,1,0-1.31,1.35A1.28,1.28,0,0,0,153.43,134.35Z" transform="translate(3.26)"/><path class="cls-113" d="M155.1,136.13v-3.81l2.59,2.71v-2.47h.54v3.79l-2.59-2.71v2.49Z" transform="translate(3.26)"/><path class="cls-113" d="M160.07,132.56v3.06h1.05v.51h-1.6v-3.57Z" transform="translate(3.26)"/><path class="cls-113" d="M162.61,132.56v3.57h-.54v-3.57Z" transform="translate(3.26)"/><path class="cls-113" d="M163.9,136.13v-3.81l2.59,2.71v-2.47H167v3.79l-2.6-2.71v2.49Z" transform="translate(3.26)"/><path class="cls-113" d="M170.3,133.07h-1.43V134h1.39v.51h-1.39v1.13h1.43v.51h-2v-3.57h2Z" transform="translate(3.26)"/><path class="cls-113" d="M141.62,138.85v4.67H140.4v-4.67Z" transform="translate(3.26)"/><path class="cls-113" d="M143.15,143.52v-4.67h1.22l2.23,2.86v-2.86h1.21v4.67H146.6l-2.23-2.85v2.85Z" transform="translate(3.26)"/><path class="cls-113" d="M151.11,139.88v3.64H149.9v-3.64h-1v-1h3.2v1Z" transform="translate(3.26)"/><path class="cls-113" d="M155.86,139.88h-1.44v.78h1.36v1h-1.36v.8h1.44v1H153.2v-4.67h2.66Z" transform="translate(3.26)"/><path class="cls-113" d="M159.08,138.85a1.41,1.41,0,0,1,1.54,1.47,1.35,1.35,0,0,1-.37,1,1.33,1.33,0,0,1-.65.32l1.47,1.91h-1.51l-1.16-1.79v1.79h-1.21v-4.67Zm-.68,2.1h.23a.93.93,0,0,0,.59-.19.59.59,0,0,0,.15-.39.54.54,0,0,0-.16-.4.82.82,0,0,0-.58-.18h-.23Z" transform="translate(3.26)"/><path class="cls-113" d="M162.71,138.85l1.12,2.85,1.14-2.85h1.31l-2,4.67h-.94l-2-4.67Z" transform="translate(3.26)"/><path class="cls-113" d="M168.54,138.85v4.67h-1.21v-4.67Z" transform="translate(3.26)"/><path class="cls-113" d="M172.73,139.88h-1.44v.78h1.37v1h-1.37v.8h1.44v1h-2.65v-4.67h2.65Z" transform="translate(3.26)"/><path class="cls-113" d="M174.84,138.85l.81,3,1-3h1l.91,3,.89-3h1.26l-1.49,4.67h-1.24l-.85-2.7-.89,2.7H175l-1.4-4.67Z" transform="translate(3.26)"/></g></g></svg>