<svg xmlns="http://www.w3.org/2000/svg" xmlns:xlink="http://www.w3.org/1999/xlink" width="1032.508" height="708.02" viewBox="0 0 1032.508 708.02">
  <defs>
    <clipPath id="clip-path">
      <path id="Path_17" data-name="Path 17" d="M705,258h81.457V371.032H705Zm0,0" transform="translate(-705 -258)"/>
    </clipPath>
    <clipPath id="clip-path-2">
      <path id="Path_26" data-name="Path 26" d="M48.711,259h81.57V370.583H48.711Zm0,0" transform="translate(-48.711 -259)"/>
    </clipPath>
    <clipPath id="clip-path-3">
      <path id="Path_29" data-name="Path 29" d="M97,136.289h56.516V264.843H97Zm0,0" transform="translate(-97 -136.289)"/>
    </clipPath>
  </defs>
  <g id="surface1" transform="translate(-48.711 -136.289)">
    <path id="Path_1" data-name="Path 1" d="M499.6,629.411c34.988-19.626,47.114-48.433,47.3-74.007a123.484,123.484,0,0,0-8.169-45.252c-6.975,5.508-12.46,12.023-18.137,17.39A122.93,122.93,0,0,0,505.3,543.528,118.632,118.632,0,0,0,486.814,576.7a128.493,128.493,0,0,0-7.36,52.367C492.825,597.848,510.3,569.675,529.6,550.8,526.551,576.6,515.507,604.159,499.6,629.411Zm0,0" transform="translate(193.318 167.914)" fill="#495860"/>
    <path id="Path_2" data-name="Path 2" d="M571.088,521.828c.883,25.173-5.95,53.419-18.159,80.2,31.246-24.108,39.771-52.835,35.023-78.547a120.02,120.02,0,0,0-15.075-42.46,135.2,135.2,0,0,0-14.316,19.415c-4.585,6-8.83,11.548-12.068,17.413a114.31,114.31,0,0,0-12.945,34.4c-4.665,21.992-2.135,41.934-.362,51.625C542.649,572.417,555.023,542.178,571.088,521.828Zm0,0" transform="translate(216.562 154.83)" fill="#495860"/>
    <path id="Path_3" data-name="Path 3" d="M606.052,485.777c7.4,25.632,3.679,52.248-3.7,80.417,13.677-13.609,21.114-28.287,24.251-41.974,2.937-13.813-.278-28.388-4.014-39.732a113.251,113.251,0,0,0-21.879-37.831c-16.268,28.609-23.989,52.43-24.935,74.365a131.126,131.126,0,0,0,7.88,50.215C587.054,538.206,596.383,509.4,606.052,485.777Zm0,0" transform="translate(236.671 139.396)" fill="#495860"/>
    <path id="Path_4" data-name="Path 4" d="M628.435,529.456c-1.93-31.965,2.253-60.614,5.491-86.121a154.289,154.289,0,0,1,12.3,37.83,186.092,186.092,0,0,1-.238,40.412c23.945-29.832,15.278-62.529,4.1-82.347a106.829,106.829,0,0,0-27.7-31.863c-13.115,29.028-11.581,55.542-10.216,75.7A123.615,123.615,0,0,0,628.435,529.456Zm0,0" transform="translate(252.673 121.75)" fill="#495860"/>
    <path id="Path_5" data-name="Path 5" d="M666.457,480c-5.368-29.029-12.041-59.642-10.755-83.79,13.557,19.133,25.1,46.242,26.928,73.181,14.774-34.263,2.83-63.111-11.848-80.2a115.877,115.877,0,0,0-34.021-26.219c-1.527,16.506-3.214,29.775-2.19,42.239a118.37,118.37,0,0,0,8.3,33.874A113.447,113.447,0,0,0,666.457,480Zm0,0" transform="translate(262.988 101.811)" fill="#495860"/>
    <path id="Path_6" data-name="Path 6" d="M705.508,364.794a87.134,87.134,0,0,0-23.519-29.956A109.927,109.927,0,0,0,645.613,315.2,119.208,119.208,0,0,0,651.2,357.65a103.614,103.614,0,0,0,12.481,31.123,123.7,123.7,0,0,0,32.453,35.605,310.807,310.807,0,0,1-17.124-41.238c-3.923-13.241-7.279-26.17-10.058-38.577,18.979,17.016,31.287,40.05,39.534,66.088Q713.792,383.745,705.508,364.794Zm0,0" transform="translate(268.032 80.353)" fill="#495860"/>
    <path id="Path_7" data-name="Path 7" d="M723.641,348.736c1.143-36.07-17.734-58.2-37.818-69.621a112.123,112.123,0,0,0-38.889-14.073c5.988,32.73,15.3,54.156,30.177,70.182a109.415,109.415,0,0,0,36.012,28.829c-15.781-24.143-31.626-50.114-38.346-73.4A161.356,161.356,0,0,1,723.641,348.736Zm0,0" transform="translate(268.682 57.828)" fill="#495860"/>
    <path id="Path_8" data-name="Path 8" d="M720.164,302.162c-20.366-21.086-37.479-44.43-48.4-66.383a157.892,157.892,0,0,1,55.825,49.876c-2.62-35.243-26.684-54-46.372-62.845a112.311,112.311,0,0,0-39.754-8.677C658.781,276.672,700.964,296.274,720.164,302.162Zm0,0" transform="translate(266.226 34.962)" fill="#495860"/>
    <path id="Path_9" data-name="Path 9" d="M694.906,178.5c27.409,23.219,22.762,55.486,25.942,82.209,17.271-41.039,6.675-74.669-8.167-94.573-14.475-20.36-32.771-27.765-32.771-27.765-19.308,66.428,8.321,108.668,23.922,123.6C694.811,233.02,686.664,199.565,694.906,178.5Zm0,0" transform="translate(280.525 0.933)" fill="#495860"/>
    <path id="Path_10" data-name="Path 10" d="M497.9,594.791c28.632,3.5,59.335,10.574,86.461,21.533-32.017,6.334-68.772,4.727-99.538-4.908,7,7.783,21.121,20.611,44.907,26.821a126,126,0,0,0,43.371,2.819,184.5,184.5,0,0,0,27.506-4.907c9.645-3.058,19.563-8.327,30.2-14.175a146.858,146.858,0,0,0-39.851-24.018C566.945,588.461,533.95,578.77,497.9,594.791Zm0,0" transform="translate(195.871 202.089)" fill="#495860"/>
    <path id="Path_11" data-name="Path 11" d="M550.471,569.572c28.315-.44,59.522,2.208,87.854,8.866-30.946,10.709-67.186,14.836-98.648,8.785,8.1,7.421,23.225,17.549,47.555,20.463,12.181,1.348,26.492.662,43.271-3.458,8.241-2.208,17.411-4.659,26.457-9.33a221.554,221.554,0,0,0,27.67-18.856,147.9,147.9,0,0,0-42.767-17.049C617.584,554.6,583.207,548.8,550.471,569.572Zm0,0" transform="translate(220.509 187.947)" fill="#495860"/>
    <path id="Path_12" data-name="Path 12" d="M643.836,516.506a100.671,100.671,0,0,0-45.564,21.834c27.058-5.247,59.839-5.831,86.784-6.612-26.616,18.114-63.8,25.609-94.583,25.609,8.689,5.412,25.3,13.451,49.66,12.261,12.193-.645,26.345-3.634,42.274-10.432,16.122-6.373,30.964-20.344,47.872-37.892a150.569,150.569,0,0,0-45.064-9.075C672.252,511.361,658.8,513.042,643.836,516.506Zm0,0" transform="translate(243.323 168.738)" fill="#495860"/>
    <path id="Path_13" data-name="Path 13" d="M718.652,459.079c-26.26,3.277-52.966,14.542-79.441,41.673,13.19-4.6,27.6-8.559,41.877-12.277a304.723,304.723,0,0,1,40.582-10.755c-21.2,23.741-56.164,37.728-86.907,42.6,9.334,3.7,27.047,8.6,50.934,3.21,24.992-4.484,52.141-23.457,78.927-63.949A157.214,157.214,0,0,0,718.652,459.079Zm0,0" transform="translate(263.215 144.341)" fill="#495860"/>
    <path id="Path_14" data-name="Path 14" d="M671.639,457.419c24.2-13.71,48.517-28.768,74.975-38.34-18.839,25.529-44.775,48.291-76.2,57.636,9.873,1.772,28.394,3.34,50.889-6.3,10.3-5.321,21.4-13.523,32.516-25.909,11.2-12.368,22.744-28.868,29.458-51.183a138.533,138.533,0,0,0-43.026,8.463C716.194,410.016,689.21,424.971,671.639,457.419Zm0,0" transform="translate(279.226 115.445)" fill="#495860"/>
    <path id="Path_15" data-name="Path 15" d="M718.2,365.539c-9.5,10.693-19.382,23.763-24.59,41.431a545.8,545.8,0,0,1,65.228-50.562A165.894,165.894,0,0,1,748.4,376.877a195.947,195.947,0,0,1-15.239,18.9,178.309,178.309,0,0,1-35.849,30.291c9.754-.181,27.206-2.485,46.022-16.2a113.522,113.522,0,0,0,28.19-30.313c7.625-13.835,14.4-31.61,19.105-53.8a144.778,144.778,0,0,0-41.3,15.2C738.589,346.9,727.494,354.8,718.2,365.539Zm0,0" transform="translate(289.645 85.093)" fill="#495860"/>
    <g id="Group_1" data-name="Group 1" transform="translate(999.761 312.664)" clip-path="url(#clip-path)">
      <path id="Path_16" data-name="Path 16" d="M711.51,369.4c18.381-3.074,71.365-22.546,74.7-110.886A132.492,132.492,0,0,0,749,278.975c-18.245,14.735-39.132,37.033-43.355,72.615,16.585-20.95,34.382-42.358,55.157-59.2C751.889,320.887,735.658,349.722,711.51,369.4Zm0,0" transform="translate(-704.712 -257.77)" fill="#495860"/>
    </g>
    <path id="Path_18" data-name="Path 18" d="M752.795,228.9a173.54,173.54,0,0,1-12.158,42.823A186.8,186.8,0,0,1,716.325,310.3c16.749-6.056,65.069-32.243,57.167-117.567a130.667,130.667,0,0,0-33.579,24.647c-17.294,16.869-31.955,41.029-32.5,76.516C721.029,270.958,735.287,247.783,752.795,228.9Zm0,0" transform="translate(295.846 25.353)" fill="#495860"/>
    <path id="Path_19" data-name="Path 19" d="M271.524,616.67c27.074-10.981,57.812-18.1,86.331-21.573-35.973-15.962-68.925-6.43-93.068,3.3a143.931,143.931,0,0,0-39.682,24.1c10.683,5.713,20.465,11.135,30.2,13.932a180.642,180.642,0,0,0,27.449,4.953c17.1,1.663,31.388.232,43.309-2.9,23.911-6.153,37.961-18.942,44.861-26.821C340.227,621.312,303.523,622.959,271.524,616.67Zm0,0" transform="translate(79.224 202.229)" fill="#495860"/>
    <path id="Path_20" data-name="Path 20" d="M315.871,587.473c-31.569,6.256-67.679,2.111-98.632-8.621,28.3-6.714,59.488-9.369,87.791-8.927-32.781-20.707-67.033-15.035-91.453-10.438a148,148,0,0,0-42.722,17.135,244.314,244.314,0,0,0,27.693,18.934,148.55,148.55,0,0,0,26.554,9.109c16.6,4.1,31.043,4.782,43.213,3.374C292.662,605.147,307.607,595.059,315.871,587.473Zm0,0" transform="translate(54.859 188.116)" fill="#495860"/>
    <path id="Path_21" data-name="Path 21" d="M263.338,557.768c-30.829.023-67.7-7.563-94.6-25.456,27.119.526,59.742,1.272,86.857,6.373A102.344,102.344,0,0,0,210,516.874c-15.159-3.237-28.484-4.986-41.435-4.086a151,151,0,0,0-45.042,9.074c32.185,37.473,66.049,46.961,90.236,48.127C238.2,571.2,254.667,563.11,263.338,557.768Zm0,0" transform="translate(33.599 168.993)" fill="#495860"/>
    <path id="Path_22" data-name="Path 22" d="M215.971,520.746c-30.635-4.84-65.912-18.658-87.026-42.393a303.907,303.907,0,0,1,40.5,10.711c14.554,3.463,28.813,7.579,42.064,12.164-26.474-27.1-53.464-38.2-79.617-41.515a154.465,154.465,0,0,0-45.886.5c26.769,40.655,54.025,59.409,79.023,63.853C188.947,529.492,206.551,524.505,215.971,520.746Zm0,0" transform="translate(16.751 144.612)" fill="#495860"/>
    <path id="Path_23" data-name="Path 23" d="M174.973,477.217C143.6,467.933,117.392,445.3,98.655,419.7c26.51,9.566,50.612,24.645,75.056,38.215-17.837-32.306-44.522-47.363-68.766-55.447a138.876,138.876,0,0,0-43.038-8.383c6.657,22.28,18.442,38.7,29.549,51.1,11.174,12.323,22.241,20.549,32.588,25.813C146.737,480.557,165.088,479.051,174.973,477.217Zm0,0" transform="translate(5.926 115.787)" fill="#495860"/>
    <path id="Path_24" data-name="Path 24" d="M96.968,410.591c18.827,13.648,36.2,15.94,46.077,16.1-12.809-7.9-24.918-18.352-35.9-30.3-11.344-11.78-20.367-25.309-25.875-39.245,21.488,14.061,45.653,32.226,65.393,50.346-5.276-17.594-15-30.613-24.693-41.3-9.238-10.755-20.458-18.646-31.145-24.561a144.03,144.03,0,0,0-41.283-15.159c4.7,22.234,11.446,39.986,19.1,53.838C77.654,393.965,87.537,403.752,96.968,410.591Zm0,0" transform="translate(0.374 85.418)" fill="#495860"/>
    <g id="Group_2" data-name="Group 2" transform="translate(48.711 314.114)" clip-path="url(#clip-path-2)">
      <path id="Path_25" data-name="Path 25" d="M123.686,370.037C99.453,350.354,83.077,321.666,74.2,293.08c20.871,16.806,38.555,38.215,55.39,59.109-4.563-35.572-25.14-57.846-43.582-72.542a132.667,132.667,0,0,0-37.293-20.4C52.141,347.6,105.193,366.986,123.686,370.037Zm0,0" transform="translate(-48.711 -258.889)" fill="#495860"/>
    </g>
    <path id="Path_27" data-name="Path 27" d="M114.373,310.875c-19.19-22.62-32.99-52.87-36.472-81.321,17.458,18.878,31.813,42.058,45.455,64.956-.758-35.525-15.233-59.607-32.633-76.436a130.636,130.636,0,0,0-33.568-24.59C49.315,278.786,97.685,304.938,114.373,310.875Zm0,0" transform="translate(3.41 25.688)" fill="#495860"/>
    <g id="Group_3" data-name="Group 3" transform="translate(118.688 136.289)" clip-path="url(#clip-path-3)">
      <path id="Path_28" data-name="Path 28" d="M131.258,178.673c12.3,33.392-4.058,58.162-8.214,84.932,27.777-33.166,31.768-62.155,29.888-85.816A135.362,135.362,0,0,0,142.444,136.9c-30.013,20.781-41.345,48.9-44.889,71.948-2.2,23.582,2.751,42.358,8.791,51.285C105.282,229.035,113.161,192.581,131.258,178.673Zm0,0" transform="translate(-96.989 -136.014)" fill="#495860"/>
    </g>
    <path id="Path_30" data-name="Path 30" d="M325.262,543.314a127.21,127.21,0,0,0-15.375-15.981c-5.479-5.53-11.112-11.9-18.074-17.524a126.262,126.262,0,0,0-8.231,45.251c-.028,25.773,12.306,54.44,47.177,74.059-15.9-25.231-26.871-52.747-29.985-78.526,19.36,18.884,36.857,47.007,50.108,78.231a126.127,126.127,0,0,0-7.228-52.379A119.753,119.753,0,0,0,325.262,543.314Zm0,0" transform="translate(105.488 167.76)" fill="#495860"/>
    <path id="Path_31" data-name="Path 31" d="M274.591,601.68c-12.181-26.776-18.963-55-18.075-80.156,15.919,20.368,28.5,50.443,37.819,82.109a134.741,134.741,0,0,0-.3-51.728,115.4,115.4,0,0,0-12.906-34.337c-3.221-5.91-7.586-11.338-11.967-17.485a138.412,138.412,0,0,0-14.31-19.423,120.1,120.1,0,0,0-15.136,42.354C234.74,548.911,243.389,577.481,274.591,601.68Zm0,0" transform="translate(85.197 154.669)" fill="#495860"/>
    <path id="Path_32" data-name="Path 32" d="M199.055,523.841c3.126,13.654,10.592,28.27,24.154,41.918-7.217-28.162-11.151-54.642-3.481-80.393,9.47,23.78,18.975,52.367,22.185,85.477a130.157,130.157,0,0,0,8.1-50.176,111.074,111.074,0,0,0-6.946-34.582c-4.937-11.683-8.543-26.35-17.985-39.845a113.62,113.62,0,0,0-21.862,37.774C199.452,495.374,196.293,509.762,199.055,523.841Zm0,0" transform="translate(67.054 139.208)" fill="#495860"/>
    <path id="Path_33" data-name="Path 33" d="M179.1,521c-1.484-13.87-1.823-27.381-.074-40.383a154.53,154.53,0,0,1,12.318-37.735c3.272,25.451,7.2,54.157,5.384,86.038a124.763,124.763,0,0,0,16.235-46.333c1.387-20.044,3.175-46.7-10.121-75.678a107.9,107.9,0,0,0-27.715,31.848C164.05,458.418,155.088,491.188,179.1,521Zm0,0" transform="translate(51.73 121.543)" fill="#495860"/>
    <path id="Path_34" data-name="Path 34" d="M144.128,468.837c2.107-27.063,13.445-54.019,27.07-73.181,1.41,24.086-5.6,54.8-10.919,83.75a115.864,115.864,0,0,0,23.644-40.784,115.044,115.044,0,0,0,8.4-33.873c.968-12.471-.52-25.813-2.049-42.3a116.721,116.721,0,0,0-34.094,26.119C141.2,405.749,129.632,434.381,144.128,468.837Zm0,0" transform="translate(39.867 101.574)" fill="#495860"/>
    <path id="Path_35" data-name="Path 35" d="M150.99,382.567a296.076,296.076,0,0,1-17.185,41.193,123.434,123.434,0,0,0,32.549-35.605,109.194,109.194,0,0,0,12.594-31.106,116.958,116.958,0,0,0,5.592-42.354,109.3,109.3,0,0,0-36.409,19.518,86.536,86.536,0,0,0-23.44,29.917c-5.905,12.725-6.657,27.929-3.137,45.88,8.095-25.977,20.634-49.1,39.608-66.021a159.416,159.416,0,0,1-4.873,18.975A189.559,189.559,0,0,1,150.99,382.567Zm0,0" transform="translate(31.765 80.128)" fill="#495860"/>
    <path id="Path_36" data-name="Path 36" d="M186.922,264.5a113.42,113.42,0,0,0-38.815,13.931c-20.321,11.474-38.912,33.552-38.09,69.621,11.745-23.582,30.138-44.413,48.992-58-6.588,23.237-22.625,49.191-38.412,73.294C138.132,354.469,177.781,328.634,186.922,264.5Zm0,0" transform="translate(27.522 57.586)" fill="#495860"/>
    <path id="Path_37" data-name="Path 37" d="M109.16,285.025c14.242-21.211,35.159-38.985,55.9-49.876-5.088,11.011-12.538,22.309-21.007,33.529a242.659,242.659,0,0,1-27.516,32.81c19.172-5.831,61.475-25.355,78.8-87.957a112.657,112.657,0,0,0-39.771,8.667C135.737,231.006,111.895,249.738,109.16,285.025Zm0,0" transform="translate(27.15 34.692)" fill="#495860"/>
    <g id="Group_5" data-name="Group 5" transform="translate(353.732 213.724)">
      <g id="Group_4" data-name="Group 4" transform="translate(0 0)">
        <path id="Path_38" data-name="Path 38" d="M21.585,25.79H7.547V-57.422H21.585Zm0,0" transform="translate(-7.547 57.422)"/>
      </g>
    </g>
    <g id="Group_7" data-name="Group 7" transform="translate(389.63 213.724)">
      <g id="Group_6" data-name="Group 6" transform="translate(0 0)">
        <path id="Path_39" data-name="Path 39" d="M79.709,25.79H65.92L21.585-33.9V25.79H7.547V-57.422H21.336L65.92,2.377v-59.8h13.79Zm0,0" transform="translate(-7.547 57.422)"/>
      </g>
    </g>
    <g id="Group_9" data-name="Group 9" transform="translate(483.773 213.724)">
      <g id="Group_8" data-name="Group 8" transform="translate(0 0)">
        <path id="Path_40" data-name="Path 40" d="M7.547-57.422H41.67q18.655,0,30.839,11.774Q84.685-33.9,84.691-15.827T72.441,14.016Q60.214,25.793,41.307,25.79H7.547ZM21.585-44.833V13.178H42.032q12.227,0,20.378-8.129Q70.562-3.1,70.562-15.691q0-12.609-8.4-20.877A28.381,28.381,0,0,0,41.42-44.833Zm0,0" transform="translate(-7.547 57.422)"/>
      </g>
    </g>
    <g id="Group_11" data-name="Group 11" transform="translate(575.895 213.724)">
      <g id="Group_10" data-name="Group 10" transform="translate(0 0)">
        <path id="Path_41" data-name="Path 41" d="M21.585,25.79H7.547V-57.422H21.585Zm0,0" transform="translate(-7.547 57.422)"/>
      </g>
    </g>
    <g id="Group_13" data-name="Group 13" transform="translate(600.97 213.724)">
      <g id="Group_12" data-name="Group 12" transform="translate(0 0)">
        <path id="Path_42" data-name="Path 42" d="M64.632,7H22.676L14.705,25.79H.078L36.827-57.422H51.205L87.57,25.79H72.6ZM59.289-5.479,43.6-42.455,27.906-5.479Zm0,0" transform="translate(-0.078 57.422)"/>
      </g>
    </g>
    <g id="Group_15" data-name="Group 15" transform="translate(695.714 213.724)">
      <g id="Group_14" data-name="Group 14" transform="translate(0 0)">
        <path id="Path_43" data-name="Path 43" d="M15.383-28.19H4.922V-57.422H15.383Zm0,0" transform="translate(-4.922 57.422)"/>
      </g>
    </g>
    <g id="Group_17" data-name="Group 17" transform="translate(716.409 213.135)">
      <g id="Group_16" data-name="Group 16" transform="translate(0 0)">
        <path id="Path_44" data-name="Path 44" d="M37.327-57.828a51.653,51.653,0,0,1,29.118,8.559L60.627-36.906Q47.9-44.65,36.241-44.65q-6.3,0-9.918,2.264A7.174,7.174,0,0,0,22.7-35.955a9.071,9.071,0,0,0,3.329,7.065,20.581,20.581,0,0,0,8.31,4.279q5,1.359,10.823,3.442t10.8,4.415a19.741,19.741,0,0,1,8.265,7.246A21.093,21.093,0,0,1,67.51,2.424,20.746,20.746,0,0,1,58.77,19.9q-8.746,6.547-22.643,6.544A49.308,49.308,0,0,1,17.7,22.893,51.115,51.115,0,0,1,2.141,13.247L8.186,1.134A47.054,47.054,0,0,0,22.044,10.1a37.2,37.2,0,0,0,14.333,3.147q7.353,0,11.457-2.672a8.407,8.407,0,0,0,4.1-7.427A9.147,9.147,0,0,0,48.6-4.029a20.6,20.6,0,0,0-8.333-4.28q-4.984-1.376-10.8-3.328-5.825-1.97-10.823-4.166a19.64,19.64,0,0,1-8.31-7.087A20.344,20.344,0,0,1,7.009-34.665a20.089,20.089,0,0,1,8.31-16.869Q23.648-57.825,37.327-57.828Zm0,0" transform="translate(-2.141 57.828)"/>
      </g>
    </g>
    <g id="Group_19" data-name="Group 19" transform="translate(490.237 349.789)">
      <g id="Group_18" data-name="Group 18" transform="translate(0 0)">
        <path id="Path_45" data-name="Path 45" d="M7.312-39.321q6.249-.475,12.793-.475a19.723,19.723,0,0,1,11.3,3.215A10.482,10.482,0,0,1,36.182-27.3a15.462,15.462,0,0,1-2.536,8.514A17.507,17.507,0,0,1,27.6-12.852a20.68,20.68,0,0,1,9.555,6.113A14.228,14.228,0,0,1,41,2.953q0,7.54-4.778,11.48-4.78,3.923-13.087,3.917-8.287,0-15.827-.634Zm16.28,54.229a14.21,14.21,0,0,0,9.623-3.238A10.49,10.49,0,0,0,37,3.36a11.992,11.992,0,0,0-3.668-8.74,19.54,19.54,0,0,0-9.985-5.072,33.4,33.4,0,0,0-6.861-.634H11.162V14.5Q14.694,14.908,23.593,14.908Zm8.74-42.319a7.663,7.663,0,0,0-3.645-6.77,14.5,14.5,0,0,0-8.2-2.423q-4.534,0-9.329.317v21.918h3.917q2.9,0,8.514.475a17.849,17.849,0,0,0,6.159-5.525A13.456,13.456,0,0,0,32.333-27.411Zm0,0" transform="translate(-7.312 39.797)"/>
      </g>
    </g>
    <g id="Group_21" data-name="Group 21" transform="translate(539.722 355.404)">
      <g id="Group_20" data-name="Group 20" transform="translate(0 0)">
        <path id="Path_46" data-name="Path 46" d="M6.641,16.134V-35.922H30.959v3.193H10.331V-13.8H28.944v3.147H10.331V12.76h21.42v3.374Zm0,0" transform="translate(-6.641 35.922)"/>
      </g>
    </g>
    <g id="Group_23" data-name="Group 23" transform="translate(573.502 354.43)">
      <g id="Group_22" data-name="Group 22" transform="translate(0 0)">
        <path id="Path_47" data-name="Path 47" d="M19.035-33.378A11.348,11.348,0,0,0,11.97-31.3a6.969,6.969,0,0,0-2.717,5.864,10.5,10.5,0,0,0,3.6,7.766,51.554,51.554,0,0,0,6.634,5.276q4.05,2.768,5.57,3.962t3.691,3.283a12.457,12.457,0,0,1,3.94,9.057q0,6.657-4.461,10.076T15.774,17.409A20.988,20.988,0,0,1,2.438,13.22l1.925-2.808A20.238,20.238,0,0,0,15.91,14.1q6.088,0,9.51-2.559a8.5,8.5,0,0,0,3.419-7.223A10.167,10.167,0,0,0,25.375-3.06a48.038,48.038,0,0,0-6.453-5.208q-4.059-2.8-5.661-4.053A44.469,44.469,0,0,1,9.5-15.649a12.985,12.985,0,0,1-4.1-9.465,10.184,10.184,0,0,1,3.8-8.423q3.821-3.057,10.551-3.057a27.011,27.011,0,0,1,12.114,2.649l-1.359,2.966A26.21,26.21,0,0,0,19.035-33.378Zm0,0" transform="translate(-2.438 36.594)"/>
      </g>
    </g>
    <g id="Group_25" data-name="Group 25" transform="translate(610.168 355.404)">
      <g id="Group_24" data-name="Group 24" transform="translate(0 0)">
        <path id="Path_48" data-name="Path 48" d="M18.529-32.639H.891v-3.283h38.9v3.283H22.152V16.134H18.529Zm0,0" transform="translate(-0.891 35.922)"/>
      </g>
    </g>
    <g id="Group_27" data-name="Group 27" transform="translate(289 470.24)">
      <g id="Group_26" data-name="Group 26" transform="translate(0)">
        <path id="Path_49" data-name="Path 49" d="M35.461,19.051a30.094,30.094,0,0,1-21.488-8.536,27.973,27.973,0,0,1-8.989-21.1q0-12.567,7.857-21.1Q20.7-40.25,32.971-40.25a62.666,62.666,0,0,1,19.5,3.215l-1.041,3.215a64.031,64.031,0,0,0-18.454-2.9,21.839,21.839,0,0,0-17.163,7.54A26.9,26.9,0,0,0,9.151-10.724a25.2,25.2,0,0,0,7.744,18.59,25.458,25.458,0,0,0,18.567,7.653,42.1,42.1,0,0,0,16.371-2.9l1.2,2.74a26.476,26.476,0,0,1-7.993,2.717A49.544,49.544,0,0,1,35.461,19.051Zm0,0" transform="translate(-4.984 40.25)"/>
      </g>
    </g>
    <g id="Group_29" data-name="Group 29" transform="translate(347.95 475.697)">
      <g id="Group_28" data-name="Group 28" transform="translate(0 0)">
        <path id="Path_50" data-name="Path 50" d="M30.665,17.179a25.052,25.052,0,0,1-18.7-7.766A26.336,26.336,0,0,1,4.422-9.63,26.38,26.38,0,0,1,11.962-28.7a25.031,25.031,0,0,1,18.7-7.789A24.963,24.963,0,0,1,49.345-28.7,26.353,26.353,0,0,1,56.908-9.63,26.31,26.31,0,0,1,49.345,9.412,24.985,24.985,0,0,1,30.665,17.179ZM30.71-33.2a21.04,21.04,0,0,0-16.054,6.838A23.591,23.591,0,0,0,8.294-9.63,23.472,23.472,0,0,0,14.656,7.058a21.12,21.12,0,0,0,16.054,6.77A20.915,20.915,0,0,0,46.7,7.058,23.553,23.553,0,0,0,53.036-9.63,23.672,23.672,0,0,0,46.7-26.363,20.836,20.836,0,0,0,30.71-33.2Zm0,0" transform="translate(-4.422 36.484)"/>
      </g>
    </g>
    <g id="Group_31" data-name="Group 31" transform="translate(415.99 476.512)">
      <g id="Group_30" data-name="Group 30" transform="translate(0 0)">
        <path id="Path_51" data-name="Path 51" d="M43.854,10.767q-5.3,6.164-16.122,6.159T11.611,10.767q-5.3-6.181-5.3-17.1V-35.922H10V-6.328q0,19.971,17.729,19.971T45.462-6.328V-35.922h3.691V-6.328Q49.153,4.592,43.854,10.767Zm0,0" transform="translate(-6.313 35.922)"/>
      </g>
    </g>
    <g id="Group_33" data-name="Group 33" transform="translate(477.596 476.173)">
      <g id="Group_32" data-name="Group 32" transform="translate(0 0)">
        <path id="Path_52" data-name="Path 52" d="M6.641,16.239v-52.4H8.407L42.575,3.152Q44.426,5.257,45.994,7.3c1.041,1.359,1.591,2.072,1.653,2.128q-.161-1.919-.159-7.54v-37.7h3.691V16.556H49.413L14.588-23.386l-4.415-5.389q.153,1.613.158,7.54V16.239Zm0,0" transform="translate(-6.641 36.156)"/>
      </g>
    </g>
    <g id="Group_35" data-name="Group 35" transform="translate(535.281 475.539)">
      <g id="Group_34" data-name="Group 34" transform="translate(0 0)">
        <path id="Path_53" data-name="Path 53" d="M19.035-33.378A11.348,11.348,0,0,0,11.97-31.3a6.969,6.969,0,0,0-2.717,5.864,10.5,10.5,0,0,0,3.6,7.766,51.554,51.554,0,0,0,6.634,5.276q4.05,2.768,5.57,3.962t3.691,3.283a12.457,12.457,0,0,1,3.94,9.057q0,6.657-4.461,10.076T15.774,17.409A20.988,20.988,0,0,1,2.438,13.22l1.925-2.808A20.238,20.238,0,0,0,15.91,14.1q6.088,0,9.51-2.559a8.5,8.5,0,0,0,3.419-7.223A10.167,10.167,0,0,0,25.375-3.06a48.038,48.038,0,0,0-6.453-5.208q-4.059-2.8-5.661-4.053A44.469,44.469,0,0,1,9.5-15.649a12.985,12.985,0,0,1-4.1-9.465,10.184,10.184,0,0,1,3.8-8.423q3.821-3.057,10.551-3.057a27.011,27.011,0,0,1,12.114,2.649l-1.359,2.966A26.21,26.21,0,0,0,19.035-33.378Zm0,0" transform="translate(-2.438 36.594)"/>
      </g>
    </g>
    <g id="Group_37" data-name="Group 37" transform="translate(580.28 476.512)">
      <g id="Group_36" data-name="Group 36" transform="translate(0 0)">
        <path id="Path_54" data-name="Path 54" d="M6.641,16.134V-35.922H30.959v3.193H10.331V-13.8H28.944v3.147H10.331V12.76h21.42v3.374Zm0,0" transform="translate(-6.641 35.922)"/>
      </g>
    </g>
    <g id="Group_39" data-name="Group 39" transform="translate(620.152 476.512)">
      <g id="Group_38" data-name="Group 38" transform="translate(0 0)">
        <path id="Path_55" data-name="Path 55" d="M6.641,16.134V-35.922h3.691V12.76H34.242v3.374Zm0,0" transform="translate(-6.641 35.922)"/>
      </g>
    </g>
    <g id="Group_41" data-name="Group 41" transform="translate(658.658 476.512)">
      <g id="Group_40" data-name="Group 40" transform="translate(0 0)">
        <path id="Path_56" data-name="Path 56" d="M6.641,16.134V-35.922h3.691V12.76H34.242v3.374Zm0,0" transform="translate(-6.641 35.922)"/>
      </g>
    </g>
    <g id="Group_43" data-name="Group 43" transform="translate(697.166 476.512)">
      <g id="Group_42" data-name="Group 42" transform="translate(0 0)">
        <path id="Path_57" data-name="Path 57" d="M6.641,16.134V-35.922h3.691V16.134Zm0,0" transform="translate(-6.641 35.922)"/>
      </g>
    </g>
    <g id="Group_45" data-name="Group 45" transform="translate(720.108 476.173)">
      <g id="Group_44" data-name="Group 44" transform="translate(0 0)">
        <path id="Path_58" data-name="Path 58" d="M6.641,16.239v-52.4H8.407L42.575,3.152Q44.426,5.257,45.994,7.3c1.041,1.359,1.591,2.072,1.653,2.128q-.161-1.919-.159-7.54v-37.7h3.691V16.556H49.413L14.588-23.386l-4.415-5.389q.153,1.613.158,7.54V16.239Zm0,0" transform="translate(-6.641 36.156)"/>
      </g>
    </g>
    <g id="Group_47" data-name="Group 47" transform="translate(780.671 475.697)">
      <g id="Group_46" data-name="Group 46" transform="translate(0 0)">
        <path id="Path_59" data-name="Path 59" d="M29.374-33.2a19.277,19.277,0,0,0-14.967,6.793A24.1,24.1,0,0,0,8.362-9.766,22.835,22.835,0,0,0,15.177,6.967a21.909,21.909,0,0,0,16.076,6.861q9.281,0,14.423-2.174V-9.766h3.691v23.1q-6.275,3.855-17.752,3.849A26.474,26.474,0,0,1,12.279,9.412,25.878,25.878,0,0,1,4.422-9.721q0-11.361,7.11-19.065t18.341-7.7A57.365,57.365,0,0,1,47.6-33.677l-.974,3.057A58.009,58.009,0,0,0,29.374-33.2Zm0,0" transform="translate(-4.422 36.484)"/>
      </g>
    </g>
    <g id="Group_49" data-name="Group 49" transform="translate(378.261 596.814)">
      <g id="Group_48" data-name="Group 48" transform="translate(0 0)">
        <path id="Path_60" data-name="Path 60" d="M6.641,16.239V-35.5a117.932,117.932,0,0,1,12.725-.657A18.047,18.047,0,0,1,30.71-32.579q4.662,3.583,4.664,10.8,0,7.2-6.34,11.82A24.811,24.811,0,0,1,14.022-5.339h-.883V-7.9h.566a20.915,20.915,0,0,0,12.431-3.759,11.546,11.546,0,0,0,5.3-9.8q0-6.02-3.736-8.74t-9.827-2.74q-3.218,0-7.54.317V16.239Zm0,0" transform="translate(-6.641 36.156)"/>
      </g>
    </g>
    <g id="Group_51" data-name="Group 51" transform="translate(420.619 597.154)">
      <g id="Group_50" data-name="Group 50" transform="translate(0 0)">
        <path id="Path_61" data-name="Path 61" d="M6.641,16.134V-35.922h3.691V12.76H34.242v3.374Zm0,0" transform="translate(-6.641 35.922)"/>
      </g>
    </g>
    <g id="Group_53" data-name="Group 53" transform="translate(450.476 596.814)">
      <g id="Group_52" data-name="Group 52" transform="translate(0 0)">
        <path id="Path_62" data-name="Path 62" d="M11.9-1.807,4.431,16.239H.672l21.8-52.4h2.174l21.986,52.4h-4.1L35-1.807ZM23.36-30.2q-1.206,3.6-2.151,6L13.171-4.932H33.708L25.76-24.11Q23.926-28.611,23.36-30.2Zm0,0" transform="translate(-0.672 36.156)"/>
      </g>
    </g>
    <g id="Group_55" data-name="Group 55" transform="translate(498.685 597.154)">
      <g id="Group_54" data-name="Group 54" transform="translate(0 0)">
        <path id="Path_63" data-name="Path 63" d="M18.529-32.639H.891v-3.283h38.9v3.283H22.152V16.134H18.529Zm0,0" transform="translate(-0.891 35.922)"/>
      </g>
    </g>
    <g id="Group_57" data-name="Group 57" transform="translate(548.493 597.154)">
      <g id="Group_56" data-name="Group 56" transform="translate(0 0)">
        <path id="Path_64" data-name="Path 64" d="M6.641,16.134V-35.922H33.359v3.193H10.331V-13.8H31.344v3.147H10.331V16.134Zm0,0" transform="translate(-6.641 35.922)"/>
      </g>
    </g>
    <g id="Group_59" data-name="Group 59" transform="translate(586.271 596.339)">
      <g id="Group_58" data-name="Group 58" transform="translate(0 0)">
        <path id="Path_65" data-name="Path 65" d="M30.665,17.179a25.052,25.052,0,0,1-18.7-7.766A26.336,26.336,0,0,1,4.422-9.63,26.38,26.38,0,0,1,11.962-28.7a25.031,25.031,0,0,1,18.7-7.789A24.963,24.963,0,0,1,49.345-28.7,26.353,26.353,0,0,1,56.908-9.63,26.31,26.31,0,0,1,49.345,9.412,24.985,24.985,0,0,1,30.665,17.179ZM30.71-33.2a21.04,21.04,0,0,0-16.054,6.838A23.591,23.591,0,0,0,8.294-9.63,23.472,23.472,0,0,0,14.656,7.058a21.12,21.12,0,0,0,16.054,6.77A20.915,20.915,0,0,0,46.7,7.058,23.553,23.553,0,0,0,53.036-9.63,23.672,23.672,0,0,0,46.7-26.363,20.836,20.836,0,0,0,30.71-33.2Zm0,0" transform="translate(-4.422 36.484)"/>
      </g>
    </g>
    <g id="Group_61" data-name="Group 61" transform="translate(654.789 596.814)">
      <g id="Group_60" data-name="Group 60" transform="translate(0 0)">
        <path id="Path_66" data-name="Path 66" d="M6.641,16.239V-35.59q6.9-.56,11.706-.566a19.052,19.052,0,0,1,12.2,3.827q4.823,3.8,4.823,10.868a15.189,15.189,0,0,1-2.74,8.74,25.482,25.482,0,0,1-6.181,6.5Q36.005,6.463,38.25,8.948a16.422,16.422,0,0,0,9.94,5.366l-.068,2.491a19.261,19.261,0,0,1-7.313-1.336,17.351,17.351,0,0,1-5.57-4.212Q32.47,8.294,23.079-4.705q-6.5,0-12.748-.385v21.33ZM21.087-7.74q3.125,0,6.725-4.166a14.412,14.412,0,0,0,3.623-9.714q0-5.545-3.781-8.423a15.591,15.591,0,0,0-9.782-2.9q-3.218,0-7.54.317V-8.147Q16.105-7.74,21.087-7.74Zm0,0" transform="translate(-6.641 36.156)"/>
      </g>
    </g>
    <g id="Group_63" data-name="Group 63" transform="translate(698.107 596.814)">
      <g id="Group_62" data-name="Group 62" transform="translate(0 0)">
        <path id="Path_67" data-name="Path 67" d="M32.492,13.522H30.318L15.147-23.318q-.951-2.148-1.925-5.049c0,.062-.04.357-.113.883s-.175,1.24-.294,2.128-.215,1.608-.317,2.2l-6,39.4H2.875l8.514-52.4H13.54L29.752,2.291Q31.671,7.1,31.677,7.34A43.463,43.463,0,0,1,33.85,2.359L51.9-36.156H54.07L62,16.239H58.146L52.463-23.318a45.511,45.511,0,0,1-.566-5.208l-2.332,5.3Zm0,0" transform="translate(-2.875 36.156)"/>
      </g>
    </g>
  </g>
</svg>
